<svg width="48" height="48" viewBox="0 0 48 48" fill="none" xmlns="http://www.w3.org/2000/svg">
<rect width="48" height="48" fill="#1769FF"/>
<path d="M28.8931 15.323H36.8781V17.2516H28.8931V15.323ZM20.8921 22.954C22.6572 22.1132 23.5817 20.834 23.5817 18.8575C23.5817 14.9484 20.6599 14 17.2858 14H8V33.6214H17.546C21.1242 33.6214 24.4823 31.908 24.4823 27.9231C24.4823 25.4605 23.3136 23.6394 20.8921 22.954ZM12.3307 17.3473H16.3932C17.9582 17.3473 19.3631 17.7816 19.3631 19.5908C19.3631 21.2564 18.2704 21.9259 16.7215 21.9259H12.3307V17.3473ZM16.9536 30.2901H12.3267V24.8866H17.0457C18.9508 24.8866 20.1556 25.6796 20.1556 27.688C20.1556 29.6645 18.7187 30.2901 16.9536 30.2901ZM40 26.7237C40 22.5196 37.5305 19.0169 33.0637 19.0169C28.721 19.0169 25.7671 22.2726 25.7671 26.5403C25.7671 30.9635 28.5649 34 33.0637 34C36.4698 34 38.6752 32.4738 39.7358 29.2182H36.2817C35.9054 30.4336 34.3765 31.0711 33.1877 31.0711C30.8903 31.0711 29.6896 29.7322 29.6896 27.4569H39.972C39.984 27.2218 40 26.9747 40 26.7237ZM29.6896 24.9942C29.8136 23.1253 31.0664 21.9578 32.9396 21.9578C34.9088 21.9578 35.8934 23.1094 36.0655 24.9942H29.6896Z" fill="white"/>
</svg>
