<svg width="48" height="48" viewBox="0 0 48 48" fill="none" xmlns="http://www.w3.org/2000/svg">
<rect width="48" height="48" fill="#5865F2"/>
<path d="M35.1306 14.027C38.7446 19.2572 40.5294 25.1568 39.8622 31.9485C39.8594 31.9773 39.8442 32.0036 39.8202 32.021C37.0834 33.999 34.4318 35.1995 31.8174 35.9956C31.7971 36.0017 31.7753 36.0014 31.7551 35.9947C31.735 35.988 31.7175 35.9752 31.705 35.9582C31.101 35.131 30.5522 34.2589 30.0714 33.3431C30.0438 33.2892 30.069 33.2242 30.1258 33.2029C30.9974 32.8797 31.8262 32.4923 32.6234 32.0336C32.6862 31.9973 32.6902 31.9088 32.6322 31.8662C32.463 31.7426 32.2954 31.6127 32.135 31.4827C32.105 31.4587 32.0646 31.454 32.0306 31.4702C26.855 33.8227 21.1855 33.8227 15.9487 31.4702C15.9147 31.4552 15.8743 31.4603 15.8451 31.4839C15.6851 31.6139 15.5171 31.7426 15.3495 31.8662C15.2915 31.9088 15.2963 31.9973 15.3595 32.0336C16.1567 32.4836 16.9855 32.8797 17.8559 33.2045C17.9123 33.2258 17.9391 33.2892 17.9111 33.3431C17.4407 34.2601 16.8919 35.1322 16.2767 35.9594C16.2499 35.9929 16.2059 36.0082 16.1643 35.9956C13.5623 35.1995 10.9107 33.999 8.17388 32.021C8.15108 32.0036 8.13468 31.9761 8.13228 31.9473C7.57468 26.0726 8.71108 20.1242 12.8595 14.0258C12.8695 14.0097 12.8847 13.9971 12.9023 13.9896C14.9435 13.0675 17.1303 12.3891 19.4159 12.0017C19.4575 11.9954 19.4991 12.0143 19.5207 12.0505C19.8031 12.5426 20.1259 13.1738 20.3443 13.6896C22.7535 13.3273 25.2003 13.3273 27.6598 13.6896C27.8782 13.1848 28.1898 12.5426 28.471 12.0505C28.4811 12.0325 28.4966 12.0181 28.5154 12.0093C28.5342 12.0006 28.5554 11.9979 28.5758 12.0017C30.8626 12.3903 33.0494 13.0687 35.089 13.9896C35.107 13.9971 35.1218 14.0097 35.1306 14.027V14.027ZM21.5691 25.1969C21.5943 23.4602 20.3079 22.0231 18.6931 22.0231C17.0915 22.0231 15.8175 23.4476 15.8175 25.1969C15.8175 26.9459 17.1167 28.3704 18.6931 28.3704C20.2951 28.3704 21.5691 26.9459 21.5691 25.1969V25.1969ZM32.2018 25.1969C32.227 23.4602 30.9406 22.0231 29.3262 22.0231C27.7242 22.0231 26.4503 23.4476 26.4503 25.1969C26.4503 26.9459 27.7494 28.3704 29.3262 28.3704C30.9406 28.3704 32.2018 26.9459 32.2018 25.1969V25.1969Z" fill="white"/>
</svg>
