<svg width="48" height="48" viewBox="0 0 48 48" fill="none" xmlns="http://www.w3.org/2000/svg">
<rect width="48" height="48" fill="white"/>
<path d="M24.0002 10.3613C31.5328 10.3613 37.6274 16.4559 37.6274 23.9771C37.6274 31.4983 31.5328 37.6043 24.0002 37.6043C16.4676 37.6043 10.373 31.5097 10.373 23.9885C10.373 16.4673 16.4676 10.3613 24.0002 10.3613Z" fill="#E74D89"/>
<path d="M24 40C15.175 40 8 32.8291 8 24.0063C8 15.1709 15.175 8 24 8C32.825 8 40 15.1709 40 23.9937C40 32.8166 32.825 40 24 40ZM37.4875 26.1838C37.025 26.0336 33.2625 24.9198 28.975 25.5956C30.7625 30.5014 31.4875 34.5061 31.625 35.332C34.7 33.2671 36.8875 29.9883 37.4875 26.1838ZM29.3375 36.596C29.1375 35.3946 28.3375 31.2147 26.425 26.2339C26.4 26.2464 26.3625 26.2589 26.3375 26.2589C18.625 28.9495 15.8625 34.2933 15.6125 34.7939C17.925 36.596 20.8375 37.6723 24 37.6723C25.8875 37.6848 27.7 37.2968 29.3375 36.596V36.596ZM13.85 33.1545C14.1625 32.6289 17.9125 26.4216 24.9625 24.1314C25.1375 24.0688 25.325 24.0188 25.5 23.9687C25.1625 23.1928 24.7875 22.4169 24.3875 21.6535C17.5625 23.6934 10.9375 23.6058 10.3375 23.5933C10.3375 23.7309 10.325 23.8686 10.325 24.0063C10.3375 27.5229 11.6625 30.7266 13.85 33.1545V33.1545ZM10.625 21.2155C11.2375 21.228 16.8625 21.253 23.2625 19.551C21 15.5213 18.55 12.1424 18.2 11.6543C14.3625 13.4564 11.5125 16.9855 10.625 21.2155ZM20.8 10.7282C21.175 11.2288 23.6625 14.6077 25.9 18.7251C30.7625 16.8979 32.8125 14.1447 33.0625 13.7943C30.65 11.6543 27.475 10.3528 24 10.3528C22.9 10.3528 21.825 10.4904 20.8 10.7282V10.7282ZM34.575 15.3711C34.2875 15.7591 32 18.7 26.95 20.765C27.2625 21.4157 27.575 22.079 27.8625 22.7423C27.9625 22.9801 28.0625 23.2178 28.1625 23.4431C32.7125 22.8674 37.225 23.7935 37.675 23.8811C37.6375 20.6648 36.4875 17.6989 34.575 15.3711V15.3711Z" fill="#B2215A"/>
</svg>
