<svg width="48" height="48" viewBox="0 0 48 48" fill="none" xmlns="http://www.w3.org/2000/svg">
<rect width="48" height="48" fill="url(#paint0_radial_247_3174)"/>
<rect width="48" height="48" fill="url(#paint1_radial_247_3174)"/>
<path d="M18.6679 24C18.6679 21.0546 21.0551 18.6662 24.0006 18.6662C26.9462 18.6662 29.3346 21.0546 29.3346 24C29.3346 26.9454 26.9462 29.3338 24.0006 29.3338C21.0551 29.3338 18.6679 26.9454 18.6679 24V24ZM15.7845 24C15.7845 28.5376 19.4629 32.2158 24.0006 32.2158C28.5384 32.2158 32.2168 28.5376 32.2168 24C32.2168 19.4624 28.5384 15.7842 24.0006 15.7842C19.4629 15.7842 15.7846 19.4621 15.7846 24H15.7845ZM30.6221 15.4584C30.6219 15.8382 30.7344 16.2094 30.9453 16.5253C31.1561 16.8411 31.4559 17.0873 31.8067 17.2328C32.1575 17.3782 32.5435 17.4164 32.916 17.3425C33.2885 17.2685 33.6307 17.0858 33.8993 16.8174C34.168 16.549 34.351 16.2069 34.4252 15.8345C34.4994 15.4621 34.4616 15.076 34.3164 14.7252C34.1712 14.3743 33.9252 14.0743 33.6095 13.8632C33.2939 13.6521 32.9227 13.5394 32.5429 13.5392H32.5422C32.0331 13.5394 31.545 13.7417 31.185 14.1015C30.825 14.4614 30.6225 14.9494 30.6221 15.4584V15.4584ZM17.5364 37.0237C15.9764 36.9527 15.1285 36.6929 14.565 36.4733C13.818 36.1825 13.2849 35.8362 12.7245 35.2765C12.1641 34.7169 11.8172 34.1844 11.5277 33.4374C11.308 32.8742 11.0482 32.0261 10.9773 30.4662C10.8997 28.7796 10.8842 28.273 10.8842 24.0003C10.8842 19.7275 10.901 19.2223 10.9773 17.5343C11.0483 15.9744 11.3101 15.1279 11.5277 14.5631C11.8185 13.8161 12.1649 13.2831 12.7245 12.7227C13.2842 12.1623 13.8167 11.8154 14.565 11.5259C15.1282 11.3062 15.9764 11.0464 17.5364 10.9755C19.223 10.8979 19.7296 10.8824 24.0006 10.8824C28.2717 10.8824 28.7788 10.8989 30.4668 10.9757C32.0268 11.0468 32.8733 11.3085 33.4382 11.5261C34.1852 11.8157 34.7183 12.1633 35.2787 12.7229C35.8391 13.2826 36.1847 13.8163 36.4755 14.5633C36.6952 15.1265 36.955 15.9747 37.0259 17.5346C37.1035 19.2225 37.119 19.7277 37.119 24.0005C37.119 28.2733 37.1035 28.7785 37.0259 30.4664C36.9549 32.0264 36.6938 32.8742 36.4755 33.4377C36.1847 34.1847 35.8383 34.7177 35.2787 35.2768C34.719 35.8359 34.1852 36.1828 33.4382 36.4736C32.875 36.6932 32.0268 36.9531 30.4668 37.024C28.7802 37.1016 28.2736 37.1171 24.0006 37.1171C19.7277 37.1171 19.2225 37.1016 17.5364 37.024V37.0237ZM17.4039 8.0969C15.7005 8.17446 14.5366 8.44454 13.5201 8.84006C12.468 9.24851 11.5762 9.79648 10.6857 10.6856C9.79514 11.5747 9.24856 12.4666 8.8401 13.5199C8.44456 14.537 8.17447 15.7002 8.0969 17.4035C8.01805 19.1095 8 19.6549 8 24C8 28.3451 8.01805 28.8905 8.0969 30.5965C8.17447 32.2999 8.44456 33.463 8.8401 34.4801C9.24856 35.5322 9.79527 36.4257 10.6857 37.3144C11.5761 38.2031 12.4667 38.7503 13.5201 39.1599C14.5385 39.5555 15.7005 39.8255 17.4039 39.9031C19.1108 39.9807 19.6554 40 24.0006 40C28.3459 40 28.8913 39.982 30.5974 39.9031C32.3009 39.8255 33.4641 39.5555 34.4812 39.1599C35.5333 38.7503 36.4251 38.2035 37.3156 37.3144C38.2061 36.4253 38.7516 35.5322 39.1612 34.4801C39.5567 33.463 39.8281 32.2998 39.9044 30.5965C39.982 28.8892 40 28.3451 40 24C40 19.6549 39.982 19.1095 39.9044 17.4035C39.8268 15.7001 39.5567 14.5363 39.1612 13.5199C38.7516 12.4678 38.2047 11.5761 37.3156 10.6856C36.4265 9.79507 35.5333 9.24851 34.4825 8.84006C33.4641 8.44454 32.3008 8.17318 30.5987 8.0969C28.8924 8.01894 28.3472 8 24.0026 8C19.6579 8 19.1115 8.01805 17.4045 8.0969" fill="white"/>
<defs>
<radialGradient id="paint0_radial_247_3174" cx="0" cy="0" r="1" gradientUnits="userSpaceOnUse" gradientTransform="translate(3.10651 46.9485) scale(60.9422)">
<stop offset="0.09" stop-color="#FA8F21"/>
<stop offset="0.78" stop-color="#D82D7E"/>
</radialGradient>
<radialGradient id="paint1_radial_247_3174" cx="0" cy="0" r="1" gradientUnits="userSpaceOnUse" gradientTransform="translate(33.2479 45.4072) scale(53.6297)">
<stop offset="0.64" stop-color="#8C3AAA" stop-opacity="0"/>
<stop offset="1" stop-color="#8C3AAA"/>
</radialGradient>
</defs>
</svg>
