<svg width="48" height="48" viewBox="0 0 48 48" fill="none" xmlns="http://www.w3.org/2000/svg">
<rect width="48" height="48" fill="#F79418"/>
<path d="M24.0006 12C20.5606 12 17.7622 14.7785 17.7622 18.1943C17.7622 21.6097 20.5606 24.387 24.0006 24.387C27.4405 24.387 30.2376 21.6097 30.2376 18.1943C30.2376 14.7785 27.4406 12 24.0006 12ZM24.0006 15.6293C25.4244 15.6293 26.5821 16.7805 26.5821 18.1943C26.5821 19.6074 25.4244 20.7578 24.0006 20.7578C22.5766 20.7578 21.4177 19.6075 21.4177 18.1943C21.4177 16.7805 22.5766 15.6293 24.0006 15.6293ZM18.8574 24.5977C18.2402 24.5882 17.6332 24.8903 17.2811 25.4475C16.7431 26.2963 17.0008 27.4164 17.8536 27.9502C18.9817 28.653 20.2057 29.1516 21.4751 29.439L17.9888 32.9025C17.2751 33.6115 17.2757 34.7599 17.9896 35.469C18.3474 35.8229 18.814 36 19.2818 36C19.7492 36 20.2174 35.8226 20.5741 35.4683L23.9992 32.0655L27.4273 35.4683C28.1404 36.1771 29.2967 36.1771 30.011 35.4683C30.725 34.7597 30.725 33.6101 30.011 32.9025L26.5232 29.4398C27.793 29.1524 29.0174 28.6535 30.1447 27.9503C30.9992 27.4164 31.2573 26.2951 30.7194 25.4475C30.1809 24.5985 29.0535 24.3428 28.1984 24.8775C25.6445 26.4728 22.3538 26.4717 19.8007 24.8775C19.5068 24.6937 19.1807 24.6028 18.8574 24.5978V24.5977Z" fill="white"/>
</svg>
