<svg width="48" height="48" viewBox="0 0 48 48" fill="none" xmlns="http://www.w3.org/2000/svg">
<rect width="48" height="48" fill="#4EAC27"/>
<path d="M32.9994 28.4765V31.1862C33.0005 31.4377 32.9488 31.6867 32.8479 31.9172C32.7469 32.1477 32.5988 32.3546 32.413 32.5247C32.2273 32.6947 32.008 32.8242 31.7693 32.9048C31.5305 32.9854 31.2775 33.0153 31.0265 32.9927C28.2415 32.6907 25.5664 31.7409 23.216 30.2197C21.0293 28.8329 19.1753 26.9827 17.7858 24.8003C16.2563 22.4439 15.3044 19.7611 15.0073 16.9692C14.9847 16.7194 15.0145 16.4676 15.0947 16.23C15.1749 15.9923 15.3038 15.7739 15.4732 15.5887C15.6426 15.4034 15.8489 15.2554 16.0787 15.1541C16.3086 15.0528 16.5571 15.0003 16.8084 15.0001H19.5235C19.9627 14.9958 20.3885 15.151 20.7215 15.4368C21.0545 15.7227 21.2721 16.1196 21.3335 16.5537C21.4481 17.4208 21.6607 18.2723 21.9671 19.0918C22.0888 19.4151 22.1152 19.7664 22.043 20.1042C21.9708 20.442 21.8031 20.752 21.5598 20.9976L20.4104 22.1447C21.6988 24.406 23.5748 26.2784 25.8406 27.5642L26.99 26.4171C27.2361 26.1742 27.5467 26.0069 27.8852 25.9348C28.2236 25.8628 28.5757 25.8891 28.8996 26.0106C29.7207 26.3164 30.5739 26.5285 31.4428 26.6429C31.8824 26.7048 32.2839 26.9258 32.5709 27.2639C32.858 27.6019 33.0105 28.0335 32.9994 28.4765Z" stroke="white" stroke-width="1.6" stroke-linecap="round" stroke-linejoin="round"/>
</svg>
