<svg width="48" height="48" viewBox="0 0 48 48" fill="none" xmlns="http://www.w3.org/2000/svg">
<rect width="48" height="48" fill="white"/>
<path d="M35.5604 15.0679C36.2543 15.9651 36.8418 16.9399 37.3109 17.9726L24.0038 27.7824L18.4424 24.2961V20.1018L24.0038 23.5882L35.5604 15.0679Z" fill="#21A038"/>
<path fill-rule="evenodd" clip-rule="evenodd" d="M30.3341 14.7257L33.1744 12.632C30.5783 10.5297 27.3377 9.38528 23.9971 9.39114V9.39258C22.0796 9.39078 20.1808 9.76748 18.4093 10.5011C16.7865 11.1731 15.2999 12.1325 14.0204 13.3318C12.5885 14.6682 11.4401 16.2802 10.6447 18.0719C9.81682 19.9369 9.3899 21.9551 9.39161 23.9956C9.39161 23.9981 9.39161 24.0006 9.39161 24.0031C9.39017 25.9211 9.76741 27.8204 10.5017 29.5922C11.1712 31.2076 12.1254 32.688 13.3176 33.9634C14.6571 35.403 16.2747 36.5571 18.0733 37.3554C19.7707 38.1087 21.5949 38.5299 23.4474 38.5981C23.631 38.6052 23.8153 38.6087 24.0002 38.6087C25.9183 38.6106 27.8176 38.2337 29.5894 37.4993C31.1378 36.8576 32.562 35.954 33.8004 34.8299L33.8031 34.8329C35.3186 33.4647 36.5296 31.7934 37.3576 29.9272C38.1857 28.0609 38.6123 26.0415 38.6098 23.9998C38.6116 23.1221 38.5348 22.2459 38.3803 21.3818L35.2359 23.6992V23.9998C35.2368 25.5695 34.9077 27.1219 34.2702 28.5562C33.7084 29.8202 32.9181 30.9677 31.9406 31.9418L31.9387 31.9399C30.8976 32.9849 29.6604 33.8138 28.2981 34.3792C26.936 34.9446 25.4755 35.2353 24.0007 35.2347V35.2341C23.8177 35.2342 23.635 35.2298 23.4526 35.2209L23.4382 35.2198L23.4382 35.2202C22.0611 35.1515 20.7069 34.8292 19.444 34.268C18.1806 33.7065 17.0335 32.9168 16.0594 31.9402L16.0612 31.9384C15.0161 30.8975 14.187 29.6602 13.6216 28.2978C13.0562 26.9355 12.7656 25.4747 12.7666 23.9997C12.7666 23.9997 12.7666 23.9996 12.7666 23.9996H12.7666C12.7666 23.9907 12.7666 23.9817 12.7666 23.9728C12.7669 23.8376 12.7696 23.7029 12.7747 23.5689C12.8287 22.1467 13.1533 20.7462 13.7325 19.4432C14.2939 18.1802 15.0834 17.0333 16.0599 16.0596L16.0616 16.0613C17.1025 15.0158 18.3398 14.1864 19.7024 13.6208C21.0649 13.0552 22.5258 12.7645 24.0012 12.7654C24.1893 12.7654 24.3762 12.7723 24.562 12.7814L24.5622 12.7787C26.6256 12.8805 28.6244 13.5527 30.3341 14.7257Z" fill="#21A038"/>
</svg>
