<svg width="48" height="48" viewBox="0 0 48 48" fill="none" xmlns="http://www.w3.org/2000/svg">
<rect width="48" height="48" fill="#FFFC01"/>
<path d="M15.7829 19.4346L16.696 17.6085V14.8694L18.5221 12.1303L21.2612 10.3042H24.9134L29.4786 12.1303L31.3047 15.7825L32.2177 19.4346H34.0438L34.9569 21.2607V23.0868L32.2177 23.9999V25.8259L34.9569 28.5651L37.696 30.3912L36.7829 32.2172L34.9569 33.1303L34.0438 34.0433L32.2177 34.9564H30.3916L25.8264 36.7825H22.1743L19.4351 35.8694L16.696 34.9564L13.9569 34.0433L13.0438 33.1303L11.2177 32.2172L10.3047 30.3912L12.1308 29.4781L14.8699 26.739L15.7829 23.9999L13.9569 23.0868L13.0438 22.1738V20.3477L15.7829 19.4346Z" fill="white"/>
<path d="M37.9005 30.479C37.7063 29.9406 37.3353 29.6528 36.9135 29.4147C36.8436 29.3732 36.7718 29.3353 36.6983 29.301L36.315 29.1037C34.999 28.3948 33.9718 27.5011 33.2595 26.4422C33.0569 26.1443 32.8812 25.8286 32.7345 25.4987C32.675 25.321 32.6785 25.2215 32.7205 25.1309C32.7643 25.0604 32.8222 24.9998 32.8903 24.9532C33.116 24.8004 33.3488 24.6459 33.5063 24.5428C33.7898 24.358 34.012 24.2105 34.1555 24.1075C34.6963 23.7237 35.0743 23.3151 35.3105 22.8602C35.4752 22.5456 35.5711 22.1987 35.592 21.843C35.6128 21.4874 35.558 21.1314 35.4313 20.7992C35.0725 19.8433 34.1835 19.2498 33.1055 19.2498C32.8176 19.2492 32.531 19.2881 32.2533 19.3653C32.2638 18.7115 32.2498 18.0203 32.192 17.3416C31.989 14.9536 31.1648 13.7028 30.3073 12.7042C29.7575 12.0791 29.1101 11.5503 28.391 11.1389C27.0873 10.3838 25.6103 10 23.9986 10C22.3886 10 20.9186 10.3838 19.6148 11.1389C18.8938 11.5511 18.2463 12.0806 17.6951 12.7078C16.8376 13.7063 16.0151 14.9589 15.8104 17.3451C15.7526 18.0239 15.7404 18.7168 15.7474 19.3671C15.4697 19.2899 15.183 19.251 14.8951 19.2516C13.8189 19.2516 12.9281 19.8468 12.5711 20.8027C12.4437 21.135 12.3882 21.4911 12.4085 21.8471C12.4287 22.203 12.5241 22.5504 12.6884 22.8655C12.9264 23.3204 13.3044 23.729 13.8434 24.111C13.9869 24.2141 14.2109 24.3598 14.4926 24.5481L15.0859 24.9408C15.162 24.992 15.2269 25.0585 15.2766 25.1362C15.3221 25.2304 15.3239 25.3317 15.2556 25.5218C15.1109 25.8447 14.9381 26.1539 14.7394 26.4457C14.0429 27.4816 13.0454 28.3593 11.7714 29.0611C11.0976 29.4236 10.3959 29.6652 10.1001 30.4825C9.87613 31.1008 10.0231 31.8027 10.5901 32.3925C10.7984 32.6146 11.0399 32.8012 11.3059 32.9433C11.8586 33.2516 12.4462 33.4903 13.0559 33.654C13.1817 33.6868 13.3012 33.7408 13.4094 33.8139C13.6159 33.9987 13.5879 34.2759 13.8626 34.681C14.0009 34.8907 14.1776 35.0719 14.3806 35.214C14.9581 35.6209 15.6074 35.6458 16.2968 35.6724C16.9181 35.6973 17.6233 35.7257 18.4266 35.9923C18.7591 36.106 19.1073 36.3227 19.5081 36.575C20.4706 37.1756 21.7918 38 23.9986 38C26.2071 38 27.5336 37.172 28.5065 36.5679C28.9038 36.3192 29.2485 36.106 29.5723 35.9976C30.3773 35.7275 31.0825 35.6991 31.7038 35.676C32.3915 35.6493 33.0408 35.6227 33.62 35.2176C33.8611 35.0463 34.0619 34.823 34.208 34.5637C34.4075 34.2226 34.4005 33.9827 34.5878 33.8175C34.6893 33.7474 34.8017 33.6951 34.9203 33.6629C35.5386 33.4986 36.1345 33.2575 36.6948 32.9451C36.9748 32.7905 37.2303 32.5898 37.4455 32.3481L37.4525 32.3392C37.9845 31.7618 38.1175 31.0795 37.9005 30.479V30.479ZM35.9388 31.5486C34.7418 32.2202 33.9455 32.1473 33.326 32.5524C32.801 32.8954 33.1125 33.6363 32.731 33.9028C32.2603 34.2333 30.8743 33.8815 29.0823 34.482C27.6036 34.9777 26.6603 36.4045 24.0021 36.4045C21.3438 36.4045 20.4233 34.9813 18.9201 34.4785C17.1316 33.8779 15.7421 34.2297 15.2731 33.901C14.8916 33.6345 15.2014 32.8918 14.6764 32.5489C14.0569 32.1438 13.2606 32.2166 12.0654 31.5486C11.3024 31.1222 11.7346 30.8556 11.9884 30.7313C16.3248 28.6009 17.0161 25.3121 17.0458 25.0669C17.0843 24.772 17.1246 24.5392 16.8043 24.239C16.4946 23.9476 15.1209 23.0841 14.7394 22.814C14.1094 22.3663 13.8294 21.9203 14.0359 21.3713C14.1794 20.9911 14.5276 20.8471 14.8934 20.8471C15.0093 20.8477 15.1249 20.8608 15.2381 20.8862C15.9311 21.039 16.6031 21.3926 16.9916 21.4868C17.0388 21.4992 17.0861 21.5045 17.1351 21.5063C17.3416 21.5063 17.4151 21.3997 17.4011 21.1598C17.3556 20.3905 17.2488 18.8909 17.3678 17.4891C17.5323 15.563 18.1448 14.6071 18.8711 13.7632C19.2211 13.3563 20.8608 11.5955 23.9986 11.5955C27.1346 11.5955 28.7795 13.3492 29.1278 13.7543C29.8558 14.5983 30.4683 15.5542 30.631 17.4819C30.75 18.882 30.6468 20.3816 30.5978 21.151C30.5803 21.4033 30.6573 21.4974 30.8638 21.4974C30.9121 21.4973 30.9603 21.4913 31.0073 21.4797C31.3958 21.3837 32.0695 21.0301 32.7608 20.8791C32.8739 20.8528 32.9895 20.8391 33.1055 20.8383C33.473 20.8383 33.8213 20.9839 33.963 21.3624C34.1678 21.9114 33.893 22.3574 33.2613 22.8051C32.8798 23.0752 31.506 23.9387 31.1963 24.2301C30.8743 24.5304 30.9163 24.7631 30.953 25.0581C30.9845 25.3068 31.6758 28.5956 36.0105 30.7242C36.2678 30.8539 36.7 31.1186 35.9388 31.5486V31.5486Z" fill="#404040"/>
</svg>
