<svg width="48" height="48" viewBox="0 0 48 48" fill="none" xmlns="http://www.w3.org/2000/svg">
<rect width="48" height="48" fill="url(#paint0_linear_249_2935)"/>
<path d="M8.91906 30.2133C8.98724 30.2133 9.04428 30.159 9.05541 30.0839L9.43106 27.2707L9.05541 24.3921C9.04567 24.317 8.98585 24.2627 8.91767 24.2627C8.84811 24.2627 8.78689 24.3183 8.77854 24.3921L8.4502 27.2707L8.77854 30.0825C8.78689 30.159 8.84811 30.2133 8.91767 30.2133H8.91906Z" fill="white"/>
<path d="M7.68312 29.1435C7.7499 29.1435 7.80556 29.0934 7.8153 29.0183L8.10608 27.2708L7.8153 25.49C7.80556 25.4162 7.7499 25.3647 7.68312 25.3647C7.61217 25.3647 7.5579 25.4162 7.54677 25.49L7.30469 27.2708L7.54677 29.0183C7.5579 29.0921 7.61217 29.1435 7.68312 29.1435V29.1435Z" fill="white"/>
<path d="M10.3932 23.8569C10.3904 23.8143 10.3717 23.7743 10.3407 23.7449C10.3098 23.7155 10.2689 23.6989 10.2262 23.6982C10.1836 23.6985 10.1427 23.7151 10.1119 23.7446C10.0811 23.7741 10.0628 23.8143 10.0607 23.8569L9.74902 27.2711L10.0607 30.5602C10.0635 30.6025 10.0823 30.6421 10.1133 30.6711C10.1444 30.7 10.1852 30.7161 10.2276 30.716C10.2702 30.7157 10.311 30.6994 10.342 30.6702C10.373 30.641 10.3918 30.6012 10.3946 30.5588L10.748 27.2711L10.3946 23.8569H10.3932Z" fill="white"/>
<path d="M11.5507 30.8482C11.6002 30.8473 11.6476 30.828 11.6836 30.794C11.7196 30.7601 11.7417 30.7139 11.7455 30.6645L12.0808 27.2711L11.7469 23.7623C11.7431 23.7127 11.7208 23.6663 11.6845 23.6323C11.6482 23.5983 11.6004 23.5792 11.5507 23.5786C11.5007 23.5786 11.4526 23.5977 11.4163 23.6322C11.38 23.6666 11.3584 23.7137 11.3559 23.7637L11.0596 27.2711L11.3545 30.6645C11.357 30.7147 11.3789 30.762 11.4154 30.7965C11.452 30.831 11.5004 30.85 11.5507 30.8496V30.8482Z" fill="white"/>
<path d="M12.8837 30.9036C12.9411 30.9037 12.9964 30.8819 13.0383 30.8426C13.0802 30.8033 13.1055 30.7495 13.1091 30.6921L13.4235 27.2709L13.1091 24.0153C13.1052 23.9582 13.0797 23.9047 13.0379 23.8657C12.996 23.8267 12.9409 23.805 12.8837 23.8052C12.8265 23.8051 12.7715 23.827 12.7301 23.8664C12.6886 23.9058 12.6639 23.9596 12.6611 24.0167L12.3828 27.2723L12.6611 30.6921C12.6639 30.7492 12.6886 30.803 12.7301 30.8424C12.7715 30.8818 12.8265 30.9037 12.8837 30.9036V30.9036Z" fill="white"/>
<path d="M14.7758 27.2724L14.4809 21.9785C14.477 21.9138 14.4487 21.8529 14.4017 21.8082C14.3547 21.7636 14.2925 21.7384 14.2277 21.7378C14.1627 21.7381 14.1003 21.7631 14.0533 21.8079C14.0062 21.8526 13.978 21.9136 13.9745 21.9785L13.7129 27.2724L13.9745 30.6922C13.981 30.7548 14.0105 30.8127 14.0573 30.8548C14.1041 30.897 14.1647 30.9203 14.2277 30.9203C14.2906 30.9203 14.3513 30.897 14.3981 30.8548C14.4448 30.8127 14.4743 30.7548 14.4809 30.6922L14.7758 27.2724V27.2724Z" fill="white"/>
<path d="M15.5845 30.9384C15.6566 30.9385 15.7259 30.9108 15.778 30.861C15.8301 30.8112 15.8609 30.7433 15.8642 30.6713V30.6741L16.141 27.2737L15.8642 20.768C15.8591 20.6967 15.8273 20.6299 15.775 20.5812C15.7227 20.5325 15.6539 20.5054 15.5824 20.5054C15.5109 20.5054 15.4421 20.5325 15.3898 20.5812C15.3376 20.6299 15.3057 20.6967 15.3007 20.768L15.0586 27.2737L15.3021 30.6727C15.306 30.7447 15.3376 30.8123 15.3902 30.8616C15.4428 30.9108 15.5124 30.9379 15.5845 30.937V30.9384Z" fill="white"/>
<path d="M16.9478 19.9317C16.868 19.9312 16.7911 19.9617 16.7332 20.0167C16.6754 20.0717 16.6411 20.1469 16.6375 20.2266L16.4121 27.2736L16.6375 30.6378C16.6411 30.7174 16.6755 30.7924 16.7333 30.8472C16.7912 30.902 16.8681 30.9321 16.9478 30.9313C17.0275 30.9325 17.1046 30.9024 17.1626 30.8476C17.2205 30.7928 17.2548 30.7175 17.258 30.6378L17.5154 27.2736L17.258 20.2266C17.2551 20.1467 17.221 20.071 17.163 20.0159C17.105 19.9608 17.0278 19.9305 16.9478 19.9317V19.9317Z" fill="white"/>
<path d="M18.324 30.9385C18.4116 30.94 18.4963 30.907 18.5598 30.8466C18.6233 30.7862 18.6605 30.7033 18.6635 30.6157V30.6185L18.9 27.2738L18.6635 19.9903C18.6606 19.903 18.6235 19.8203 18.5603 19.7599C18.4971 19.6996 18.4128 19.6664 18.3254 19.6676C18.2378 19.6657 18.153 19.6986 18.0896 19.7591C18.0263 19.8196 17.9895 19.9028 17.9873 19.9903L17.7744 27.2738L17.9873 30.6185C17.9901 30.798 18.1403 30.9385 18.3254 30.9385H18.324Z" fill="white"/>
<path d="M19.7126 30.9359C19.8074 30.937 19.8988 30.9009 19.9672 30.8353C20.0357 30.7698 20.0756 30.68 20.0785 30.5852V30.588L20.297 27.2753L20.0785 20.1755C20.0749 20.0813 20.0346 19.9922 19.9663 19.9272C19.8979 19.8622 19.8069 19.8265 19.7126 19.8277C19.6181 19.8262 19.5267 19.8617 19.4581 19.9267C19.3894 19.9917 19.3489 20.081 19.3453 20.1755L19.1533 27.2753L19.3467 30.5866C19.3509 30.7814 19.5123 30.9345 19.7126 30.9345V30.9359Z" fill="white"/>
<path d="M21.703 27.2749L21.5055 20.4338C21.5018 20.332 21.4584 20.2356 21.3846 20.1654C21.3107 20.0951 21.2122 20.0567 21.1103 20.0582C21.0079 20.0563 20.9089 20.0948 20.8347 20.1654C20.7605 20.2359 20.7171 20.3329 20.7138 20.4352L20.5371 27.2749L20.7138 30.5667C20.7174 30.6688 20.761 30.7654 20.8352 30.8357C20.9094 30.9059 21.0082 30.9442 21.1103 30.9423C21.2129 30.9438 21.312 30.9048 21.386 30.8337C21.46 30.7626 21.5029 30.6651 21.5055 30.5625V30.5667L21.703 27.2749V27.2749Z" fill="white"/>
<path d="M22.5189 30.9481C22.7485 30.9481 22.9377 30.7672 22.9419 30.5446L23.1214 27.2764L22.9419 19.1373C22.9382 19.028 22.892 18.9243 22.8129 18.8487C22.7339 18.773 22.6283 18.7313 22.5189 18.7324C22.4095 18.7316 22.304 18.7734 22.2248 18.849C22.1456 18.9245 22.0989 19.0279 22.0946 19.1373L21.9346 27.2737L22.0946 30.546C22.0987 30.7658 22.2894 30.9481 22.5189 30.9481V30.9481Z" fill="white"/>
<path d="M23.9222 17.9673C23.805 17.9654 23.6918 18.0095 23.6067 18.0902C23.5217 18.1708 23.4716 18.2815 23.4673 18.3986L23.2822 27.278L23.4687 30.4988C23.473 30.6152 23.5228 30.7252 23.6073 30.8053C23.6918 30.8854 23.8044 30.9292 23.9208 30.9273C24.0377 30.9289 24.1505 30.8843 24.2349 30.8034C24.3192 30.7224 24.3683 30.6115 24.3716 30.4946V30.4988L24.5747 27.278L24.3716 18.4C24.3683 18.2834 24.3194 18.1727 24.2354 18.0918C24.1513 18.0109 24.0389 17.9662 23.9222 17.9673V17.9673Z" fill="white"/>
<path d="M25.205 30.9509L36.5872 30.9565C38.8565 30.9565 40.6958 29.1923 40.6958 27.0149C40.6958 24.8389 38.8565 23.0748 36.5872 23.0748C36.0252 23.0748 35.4881 23.1847 34.9984 23.3808C34.6742 19.8302 31.5688 17.0435 27.7817 17.0435C26.8565 17.0435 25.9535 17.2188 25.1563 17.5151C24.846 17.6306 24.7625 17.7488 24.7598 17.9784V30.4848C24.7641 30.6035 24.8118 30.7165 24.8939 30.8024C24.9759 30.8883 25.0866 30.9411 25.205 30.9509V30.9509Z" fill="white"/>
<defs>
<linearGradient id="paint0_linear_249_2935" x1="24" y1="0" x2="24" y2="48" gradientUnits="userSpaceOnUse">
<stop stop-color="#FF8700"/>
<stop offset="1" stop-color="#FF3300"/>
</linearGradient>
</defs>
</svg>
