<svg width="48" height="48" viewBox="0 0 48 48" fill="none" xmlns="http://www.w3.org/2000/svg">
<rect width="48" height="48" fill="#191414"/>
<path d="M24 8C15.1635 8 8 15.1636 8 24C8 32.837 15.1636 40 24 40C32.8371 40 40 32.837 40 24C40 15.1643 32.8371 8.00088 23.9998 8.00088L23.9999 8.00013L24 8ZM31.3374 31.0767C31.0508 31.5467 30.4355 31.6957 29.9655 31.4072C26.2089 29.1126 21.4799 28.5929 15.9105 29.8654C15.6526 29.9241 15.3819 29.8779 15.158 29.7371C14.9341 29.5963 14.7753 29.3724 14.7165 29.1145C14.6872 28.9868 14.6833 28.8547 14.7052 28.7255C14.727 28.5964 14.7741 28.4728 14.8438 28.3619C14.9135 28.2509 15.0043 28.1549 15.1112 28.0791C15.218 28.0033 15.3388 27.9494 15.4665 27.9204C21.5615 26.5279 26.7894 27.1274 31.0069 29.7049C31.4769 29.9934 31.6259 30.6067 31.3374 31.0767ZM33.2957 26.7201C32.9345 27.307 32.1665 27.4924 31.58 27.1313C27.2793 24.4878 20.7234 23.7221 15.6365 25.2663C14.9767 25.4655 14.28 25.0938 14.0798 24.4351C13.881 23.7754 14.253 23.0799 14.9116 22.8794C20.7222 21.1161 27.946 21.9703 32.885 25.0053C33.4715 25.3665 33.6569 26.1345 33.2957 26.7202V26.7201ZM33.4639 22.1835C28.3071 19.1205 19.7993 18.8388 14.8759 20.3333C14.0853 20.573 13.2491 20.1266 13.0096 19.336C12.77 18.545 13.2159 17.7095 14.0071 17.4691C19.6588 15.7534 29.0543 16.085 34.9911 19.6095C35.7039 20.0315 35.9369 20.95 35.5146 21.6601C35.0944 22.3714 34.1734 22.6058 33.4646 22.1835H33.4639V22.1835Z" fill="#1ED760"/>
</svg>
