<svg width="48" height="48" viewBox="0 0 48 48" fill="none" xmlns="http://www.w3.org/2000/svg">
<rect width="48" height="48" fill="black"/>
<path d="M32.7148 21.9917C33.6331 21.9901 34.5304 21.7149 35.2932 21.2007C36.0561 20.6866 36.6502 19.9567 37.0006 19.1032C37.3509 18.2497 37.4418 17.311 37.2617 16.4056C37.0816 15.5002 36.6385 14.6688 35.9886 14.0165C35.3387 13.3641 34.511 12.9201 33.6102 12.7405C32.7094 12.561 31.7758 12.6539 30.9275 13.0076C30.0792 13.3613 29.3542 13.9598 28.8441 14.7276C28.334 15.4955 28.0618 16.398 28.0617 17.3214L28.0615 17.3216C28.0628 18.5612 28.5537 19.7495 29.4263 20.6253C30.2989 21.5011 31.4818 21.9926 32.7148 21.9917V21.9917Z" fill="white"/>
<path d="M32.7053 8.00001C30.2424 8.00075 27.8804 8.98363 26.1374 10.733C24.3944 12.4824 23.4128 14.8555 23.4078 17.3317V17.4514L17.5304 26.0017C17.4028 25.9946 17.2733 25.991 17.142 25.9909C15.7405 25.9887 14.3713 26.4131 13.2144 27.2084L0 21.7248V30.0912L10.2999 34.3753C10.6433 36.0797 11.6038 37.5953 12.9953 38.6281C14.3869 39.661 16.1103 40.1376 17.8315 39.9656C19.5527 39.7935 21.149 38.9851 22.3111 37.6969C23.4731 36.4088 24.118 34.7328 24.1208 32.9938C24.1208 32.8844 24.1173 32.7732 24.112 32.662L32.4942 26.6615C32.5649 26.6632 32.6341 26.6649 32.7053 26.6649C33.9253 26.6665 35.1337 26.4264 36.2613 25.9581C37.3889 25.4898 38.4136 24.8027 39.2769 23.9359C40.1401 23.0691 40.825 22.0398 41.2922 20.9067C41.7595 19.7736 42 18.5591 42 17.3325C42 16.1059 41.7595 14.8913 41.2922 13.7582C40.825 12.6251 40.1401 11.5958 39.2769 10.729C38.4136 9.86227 37.3889 9.1751 36.2613 8.70683C35.1337 8.23857 33.9253 7.99838 32.7053 8.00001V8.00001ZM21.968 35.0008C21.5798 35.9376 20.9304 36.7414 20.098 37.3155C19.2657 37.8895 18.2859 38.2093 17.2769 38.2361C16.2679 38.263 15.2727 37.9958 14.4113 37.4669C13.5499 36.9379 12.8591 36.1697 12.4221 35.255L15.4503 36.5111C16.3926 36.9066 17.4524 36.9095 18.3968 36.5193C18.8645 36.3261 19.2896 36.0421 19.6481 35.6837C20.0066 35.3253 20.2913 34.8994 20.4861 34.4303C20.6809 33.9613 20.7818 33.4582 20.7832 32.9499C20.7846 32.4416 20.6864 31.938 20.4942 31.4679C20.3021 30.9978 20.0196 30.5703 19.6631 30.2099C19.3066 29.8495 18.883 29.5632 18.4165 29.3674L15.2871 28.0688C16.2419 27.7036 17.2822 27.6277 18.2794 27.8506C19.2766 28.0735 20.187 28.5854 20.8979 29.3231C21.6088 30.0607 22.089 30.9916 22.2792 32.0007C22.4694 33.0098 22.3612 34.0529 21.968 35.0008V35.0008ZM32.7059 23.5492C31.483 23.5473 30.2882 23.1809 29.2723 22.4964C28.2565 21.8119 27.4653 20.84 26.9987 19.7036C26.532 18.5671 26.411 17.3171 26.6508 16.1115C26.8906 14.9058 27.4805 13.7988 28.346 12.9301C29.2114 12.0615 30.3135 11.4703 31.5131 11.2312C32.7126 10.9921 33.9557 11.116 35.0853 11.587C36.2149 12.0581 37.1802 12.8552 37.8593 13.8777C38.5384 14.9002 38.9008 16.1021 38.9006 17.3316C38.8971 18.9813 38.243 20.5624 37.0817 21.7279C35.9204 22.8935 34.3468 23.5485 32.7059 23.5492L32.7059 23.5492Z" fill="white"/>
</svg>
