<svg width="48" height="48" viewBox="0 0 48 48" fill="none" xmlns="http://www.w3.org/2000/svg">
<rect width="48" height="48" fill="#34AADF"/>
<path d="M9.83925 23.4521C9.83925 23.4521 23.1075 18.1836 27.7092 16.3285C29.4732 15.5865 35.4554 13.2119 35.4554 13.2119C35.4554 13.2119 38.2165 12.1731 37.9864 14.696C37.9096 15.7349 37.2961 19.3708 36.6826 23.3037C35.7622 28.869 34.7652 34.9537 34.7652 34.9537C34.7652 34.9537 34.6118 36.6605 33.308 36.9573C32.0042 37.2541 29.8566 35.9185 29.4732 35.6216C29.1664 35.399 23.7211 32.0598 21.727 30.4273C21.1901 29.9821 20.5766 29.0917 21.8036 28.0528C24.5647 25.604 27.8626 22.5617 29.8566 20.6324C30.777 19.7419 31.6973 17.6642 27.8626 20.1871C22.4173 23.8231 17.0486 27.2365 17.0486 27.2365C17.0486 27.2365 15.8214 27.9785 13.5206 27.3107C11.2197 26.6429 8.53535 25.7524 8.53535 25.7524C8.53535 25.7524 6.69477 24.6394 9.83925 23.4521Z" fill="white"/>
</svg>
