<svg width="48" height="48" viewBox="0 0 48 48" fill="none" xmlns="http://www.w3.org/2000/svg">
<rect width="48" height="48" fill="black"/>
<path fill-rule="evenodd" clip-rule="evenodd" d="M30.7519 19.5512C32.7947 21.0274 35.2974 21.896 38.0002 21.896V16.638C37.4887 16.6382 36.9785 16.5842 36.478 16.4769V20.6158C33.7754 20.6158 31.273 19.7472 29.2297 18.271V29.001C29.2297 34.3688 24.9253 38.7199 19.6158 38.7199C17.6347 38.7199 15.7933 38.1144 14.2637 37.0761C16.0095 38.8805 18.4441 40.0001 21.1376 40.0001C26.4475 40.0001 30.7521 35.649 30.7521 30.281V19.5512H30.7519ZM32.6297 14.2465C31.5857 13.0936 30.9003 11.6034 30.7519 9.95604V9.27979H29.3094C29.6724 11.3735 30.9109 13.1623 32.6297 14.2465V14.2465ZM17.6219 32.9572C17.0386 32.1841 16.7234 31.2382 16.7248 30.2657C16.7248 27.8107 18.6937 25.8203 21.1227 25.8203C21.5753 25.8199 22.0253 25.8902 22.4567 26.0285V20.653C21.9526 20.5832 21.4438 20.5536 20.9351 20.5645V24.7485C20.5034 24.6102 20.0533 24.5399 19.6005 24.5402C17.1715 24.5402 15.2028 26.5307 15.2028 28.9859C15.2028 30.7219 16.1868 32.225 17.6219 32.9572V32.9572Z" fill="#EE1D52"/>
<path fill-rule="evenodd" clip-rule="evenodd" d="M29.2276 18.271C31.2709 19.7472 33.7733 20.6158 36.4759 20.6158V16.4769C34.9673 16.1522 33.6318 15.3551 32.6276 14.2465C30.9088 13.1623 29.6703 11.3735 29.3073 9.27979H25.5183V30.2809C25.5097 32.7291 23.5442 34.7114 21.1204 34.7114C19.6921 34.7114 18.4232 34.0233 17.6196 32.9572C16.1846 32.225 15.2005 30.7219 15.2005 28.9859C15.2005 26.5307 17.1692 24.5402 19.5982 24.5402C20.0636 24.5402 20.5121 24.6135 20.9328 24.7485V20.5645C15.7166 20.6734 11.5215 24.982 11.5215 30.281C11.5215 32.9262 12.5662 35.3243 14.2616 37.0762C15.7913 38.1146 17.6327 38.7201 19.6137 38.7201C24.9232 38.7201 29.2276 34.3688 29.2276 29.0012V18.271Z" fill="white"/>
<path fill-rule="evenodd" clip-rule="evenodd" d="M36.4764 16.4772V15.358C35.1159 15.3601 33.7823 14.9749 32.6281 14.2466C33.6498 15.3774 34.9952 16.1572 36.4764 16.4772V16.4772ZM29.3078 9.28001C29.2731 9.07994 29.2465 8.87852 29.2281 8.67625V8H23.9964V29.0013C23.988 31.4493 22.0227 33.4317 19.5987 33.4317C18.887 33.4317 18.2152 33.261 17.6202 32.9574C18.4237 34.0235 19.6926 34.7117 21.1209 34.7117C23.5445 34.7117 25.5102 32.7294 25.5188 30.2811V9.28001H29.3078ZM20.9335 20.5647V19.3732C20.4964 19.3128 20.0556 19.2826 19.6144 19.2828C14.3043 19.2828 10 23.6341 10 29.0013C10 32.3663 11.6917 35.3319 14.2624 37.0763C12.5669 35.3243 11.5222 32.9263 11.5222 30.2811C11.5222 24.9823 15.7172 20.6736 20.9335 20.5647V20.5647Z" fill="#69C9D0"/>
</svg>
