<svg width="48" height="48" viewBox="0 0 48 48" fill="none" xmlns="http://www.w3.org/2000/svg">
<rect width="48" height="48" fill="#FCE527"/>
<path fill-rule="evenodd" clip-rule="evenodd" d="M16.278 31.0462C16.7016 30.697 17.087 30.5245 17.0701 29.6831C16.4051 30.0196 14.5286 30.0028 13.7366 28.9257C13.5121 28.6186 13.7366 28.4672 13.9653 28.707C14.5032 29.3128 15.4986 29.0393 15.8629 28.8626C15.8005 28.6391 15.6842 28.434 15.524 28.2652C15.6596 28.1306 16.045 27.9328 16.1255 27.592C15.7917 27.4922 15.448 27.4287 15.1005 27.4027C15.205 27.3118 15.2796 27.1918 15.3143 27.0582C15.3491 26.9245 15.3424 26.7836 15.2953 26.6538C14.4778 26.902 13.4697 26.5655 13.241 26.2667C13.0123 25.968 13.241 25.6946 13.4358 25.8881C13.8594 26.3088 15.8459 26.8011 16.5914 26.0606C16.3267 25.9906 16.0973 25.8257 15.9476 25.5978C16.638 25.5305 17.1887 25.1266 17.2183 24.6217C16.7591 24.6527 16.2988 24.5808 15.8714 24.4113C16.0251 24.379 16.1667 24.3048 16.2804 24.197C16.3941 24.0893 16.4754 23.9523 16.5152 23.8013C15.2445 23.7256 15.1513 22.7957 15.147 22.6401C15.9688 23.1113 17.4174 22.9009 17.0404 21.7439C16.3585 21.7061 15.668 20.608 17.5487 19.5982C19.243 18.681 21.1999 17.6881 21.0304 16.0599C20.9161 15.0165 19.1879 14.3055 18.9677 13.7753C18.2476 14.1161 18.1205 14.5116 18.4255 15.1764C18.4255 15.1764 16.8159 15.3362 16.6888 14.3349C16.6886 14.1109 16.7387 13.8897 16.8354 13.6874C16.9321 13.4851 17.0731 13.3067 17.248 13.1653C17.0658 13.1653 15.8544 12.8413 15.4901 13.8258C14.8082 13.3672 14.2194 13.3799 13.7704 13.8679C14.499 14.2886 14.9522 15.7738 16.1594 16.2114C15.3122 16.6742 13.9102 16.4806 13.1012 15.0586C12.3345 16.2072 11.894 17.3431 13.5248 18.5548C10.5301 19.9096 10.5598 22.4928 7.95059 23.7256C8.21744 24.4282 8.77231 24.4282 9.47968 24.3188C8.35298 25.7703 9.31448 27.2933 7.53125 27.9118C7.69644 28.505 8.03107 28.9762 8.69184 28.8037C8.50546 29.094 8.38263 29.0856 8.09036 29.4054C9.06458 30.0154 10.2082 29.5737 10.4835 27.6173C10.5301 27.2681 11.013 27.4869 10.8478 27.8276C9.73805 30.108 12.5421 31.8246 11.5509 33.4991C12.4277 33.4612 13.0927 33.3939 13.4612 33.0994C13.6433 33.4161 13.7286 33.7787 13.7069 34.1428C13.8884 34.1262 14.058 34.0459 14.1853 33.9164C14.3126 33.7869 14.3892 33.6165 14.4016 33.4359C14.7192 34.3531 15.8502 35.3334 17.6673 35.3334C16.7058 33.9745 17.5995 32.5903 16.2399 31.0336L16.278 31.0462ZM14.4482 32.7165L14.0585 33.3728C13.9066 32.9609 13.7225 32.5614 13.5078 32.178C13.1986 32.8175 12.703 32.8301 12.2371 32.8301C12.3727 31.3113 10.4412 29.7756 11.2883 28.0338C11.3323 27.9511 11.3593 27.8605 11.3678 27.7672C11.3763 27.674 11.366 27.5801 11.3377 27.4909C11.3093 27.4016 11.2634 27.3189 11.2025 27.2474C11.1417 27.1759 11.0672 27.1172 10.9834 27.0745C9.68722 26.4224 10.2887 29.1319 8.99257 29.2118C9.17058 28.8984 9.29779 28.5591 9.36955 28.2063C9.09423 28.2778 8.43346 28.6943 8.13696 28.16C8.43995 27.9957 8.69791 27.7603 8.88838 27.4743C9.07884 27.1883 9.19604 26.8604 9.22977 26.5192C9.29183 26.0184 9.41413 25.5269 9.59404 25.0551C9.86818 24.5753 10.1903 24.1243 10.5555 23.7087C10.4242 23.7087 8.96716 24.0327 8.64101 23.8812C11.1613 22.3456 10.5937 20.3892 14.4312 18.6516C13.4231 17.9069 12.3938 17.3179 13.1309 15.8958C14.1813 17.158 16.1848 16.7373 17.2607 16.1314C16.1933 15.9211 14.8167 14.987 14.4905 13.9478C14.9141 13.8847 15.4139 14.3181 15.7146 14.52C15.8586 14.1372 15.9179 13.6786 16.3839 13.5944C15.7612 14.9239 16.9938 15.6139 18.1713 15.6181C18.3535 15.6181 19.1159 15.5424 19.1159 15.5424C18.9931 15.2942 18.5017 14.6168 18.8618 14.3391C19.1498 14.6084 19.4929 14.823 19.8063 15.0586C22.0936 16.8172 18.7177 18.4454 17.3369 19.1859C15.1682 20.3471 15.7485 21.7313 16.655 22.0847C16.655 22.2404 16.5533 22.3119 16.4051 22.3582C15.7739 22.5686 15.1767 22.1184 14.6726 21.8323C14.7023 22.699 14.643 23.5152 15.6087 24.0116L14.9437 24.2557C15.5156 24.6764 15.6892 24.9162 16.3796 25.0046C16.0388 25.1271 15.679 25.1898 15.3165 25.1897C15.384 25.4677 15.4986 25.7323 15.6553 25.9722C14.2448 26.1405 13.6815 25.3369 13.2452 25.3706C12.3134 25.4379 12.3727 27.1797 14.6642 27.1797L14.427 27.571C14.6898 27.7185 14.9765 27.8196 15.2741 27.8697C15.1216 27.9917 14.9734 28.1558 14.8506 28.2904L15.2148 28.6018C14.2787 28.7701 14.0161 27.7603 13.4104 28.2568C12.487 28.9846 14.5244 30.5203 16.4813 30.2931C16.227 30.5414 15.9521 30.768 15.6596 30.9705C17.2522 32.4641 16.4686 33.8735 17.1209 34.9043C16.5061 34.8681 15.9191 34.6375 15.4458 34.2461C14.9725 33.8547 14.6377 33.3231 14.4905 32.7291" fill="#DEE0E1"/>
<path fill-rule="evenodd" clip-rule="evenodd" d="M11.975 27.2805C12.3054 27.6213 12.7078 27.6592 13.4659 27.6087C12.6188 27.5077 12.1614 27.3058 11.8691 26.7672C11.8234 26.4648 11.7951 26.1599 11.7844 25.8543C11.8101 24.7804 12.1103 23.7308 12.6569 22.804C12.6775 23.3014 12.8725 23.7759 13.2082 24.1455C13.5439 24.5151 13.9992 24.7564 14.4952 24.8277C13.3516 24.3312 12.6781 23.2121 13.0466 22.1308C13.2838 21.7522 13.5549 21.3609 13.8556 20.9654C14.0081 20.7719 14.1521 20.591 14.2792 20.4185C14.1267 20.9696 14.796 21.5418 15.2492 21.6344C15.0035 21.3988 14.4825 20.6288 15.6727 19.3456C15.3219 19.5109 14.9897 19.7125 14.6816 19.9472C16.8757 17.5912 18.6801 17.5239 19.5103 16.3374C18.3074 17.1536 15.1306 17.5996 13.7031 17.2083C14.491 17.73 16.3928 17.6837 16.8545 17.587C15.3042 19.0848 11.9242 20.6288 11.3481 22.0046C11.8828 21.3656 12.6081 20.9118 13.4194 20.7088C12.8659 21.4636 12.3919 22.2728 12.0046 23.1237C11.1067 25.0633 9.88678 25.0885 9.82324 26.6915C10.2468 25.4293 11.0685 25.1348 11.6446 24.3228C11.5353 24.9038 11.4913 25.495 11.5133 26.0857C11.5277 26.7479 11.6626 27.4022 11.9114 28.0168C11.8521 28.8078 11.9114 30.1583 12.8391 31.0544C12.3342 30.3117 12.0887 29.4248 12.1402 28.5301C12.856 29.9017 14.8934 31.7949 15.8803 33.0655C14.8934 31.4289 12.4917 29.5188 11.958 27.31" fill="#DEE0E1"/>
<path fill-rule="evenodd" clip-rule="evenodd" d="M34.5467 20.6917C35.3577 20.8953 36.0828 21.3489 36.6179 21.9875C36.0334 20.6117 32.6491 19.0677 31.1115 17.5699C31.5774 17.6666 33.4793 17.7171 34.2671 17.1912C32.8397 17.5783 29.6587 17.1365 28.46 16.3203C29.3071 17.5068 31.0946 17.5825 33.2887 19.9302C32.9807 19.6953 32.6484 19.4936 32.2975 19.3285C33.5047 20.6117 32.9837 21.3775 32.7211 21.6173C33.1701 21.5205 33.8435 20.9525 33.6911 20.4014C33.8351 20.5739 33.9833 20.759 34.1146 20.9483C34.4154 21.3438 34.6822 21.7351 34.9194 22.1137C35.2837 23.195 34.6102 24.3141 33.4708 24.8106C33.9664 24.7392 34.4211 24.4977 34.7561 24.1281C35.0912 23.7584 35.2853 23.2839 35.3049 22.7869C35.8523 23.7133 36.1527 24.7632 36.1774 25.8372C36.1667 26.1428 36.1384 26.4477 36.0927 26.7501C35.8004 27.3013 35.3303 27.5032 34.5001 27.5916C35.2583 27.6379 35.6564 27.5916 35.9911 27.2634C35.4701 29.468 33.0557 31.3824 32.0688 33.019C33.0557 31.7568 35.0931 29.8551 35.8089 28.4835C35.8601 29.3783 35.6146 30.265 35.11 31.0079C36.0207 30.116 36.0927 28.7654 36.0334 27.9703C36.2811 27.3553 36.4159 26.7013 36.4316 26.0391C36.455 25.4485 36.411 24.8571 36.3003 24.2763C36.8763 25.0925 37.7107 25.4038 38.1216 26.645C38.0454 25.042 36.8509 25.0167 35.9402 23.0772C35.5538 22.2259 35.0797 21.4166 34.5255 20.6622" fill="#DEE0E1"/>
<path fill-rule="evenodd" clip-rule="evenodd" d="M38.46 24.3355C39.1674 24.4449 39.7307 24.4449 39.9891 23.7423C37.3842 22.5095 37.4053 19.9263 34.4149 18.5715C36.0584 17.3598 35.6179 16.2197 34.8385 15.0753C34.0295 16.4974 32.6359 16.6909 31.7803 16.2281C32.9875 15.8074 33.4407 14.3138 34.1693 13.8846C33.7372 13.3966 33.1442 13.3671 32.4665 13.8173C32.098 12.837 30.8908 13.1568 30.7087 13.1568C30.8836 13.2982 31.0245 13.4765 31.1212 13.6789C31.218 13.8812 31.268 14.1024 31.2678 14.3264C31.1407 15.3109 29.5354 15.1679 29.5354 15.1679C29.8573 14.5031 29.7175 14.1076 28.9932 13.7668C28.773 14.2969 27.0448 15.008 26.9347 16.0514C26.761 17.6838 28.7052 18.6725 30.4122 19.5897C32.2928 20.5994 31.6024 21.6933 30.9205 21.7354C30.5435 22.8966 31.9921 23.1028 32.8138 22.6316C32.8138 22.7872 32.7079 23.717 31.4457 23.7928C31.4855 23.9438 31.5668 24.0808 31.6805 24.1885C31.7942 24.2962 31.9358 24.3704 32.0895 24.4028C31.6619 24.5716 31.2017 24.6435 30.7426 24.6132C30.7892 25.1181 31.3398 25.522 32.0133 25.5893C31.8672 25.8214 31.6391 25.9909 31.3737 26.0647C32.1192 26.801 34.1227 26.3171 34.5293 25.8922C34.7157 25.6987 34.9529 25.9763 34.7241 26.2666C34.4954 26.5569 33.4873 26.9062 32.6698 26.6579C32.6228 26.7874 32.6158 26.9279 32.6497 27.0613C32.6837 27.1948 32.7571 27.3151 32.8604 27.4068C32.52 27.4343 32.1835 27.4978 31.8566 27.5961C31.9328 27.9369 32.3225 28.1347 32.458 28.2693C32.2919 28.4364 32.1697 28.6416 32.1022 28.8667C32.4665 29.0434 33.4661 29.3169 33.9998 28.7111C34.2159 28.4713 34.4531 28.6227 34.2328 28.9298C33.445 30.0069 31.5643 30.0237 30.8993 29.6872C30.8993 30.5286 31.2466 30.7011 31.6914 31.0545C30.3317 32.6112 31.2297 33.9996 30.2682 35.3544C32.0811 35.3544 33.2332 34.3741 33.5339 33.4569C33.5462 33.6375 33.6229 33.8078 33.7502 33.9373C33.8775 34.0669 34.0471 34.1471 34.2286 34.1637C34.2085 33.7997 34.2938 33.4377 34.4742 33.1203C34.8427 33.4148 35.512 33.4821 36.3845 33.52C35.3934 31.8371 38.2017 30.1331 37.0877 27.8486C36.9225 27.5078 37.4053 27.289 37.4519 27.6382C37.7103 29.5904 38.8709 30.0364 39.8451 29.4263C39.5528 29.1066 39.4215 29.115 39.2436 28.8247C39.9002 28.9972 40.2348 28.526 40.4042 27.9327C38.621 27.31 39.5825 25.7912 38.4558 24.3397L38.46 24.3355ZM38.604 28.223C38.672 28.5776 38.7979 28.9186 38.9768 29.2328C37.6807 29.1486 38.2821 26.4391 36.986 27.0913C36.9021 27.1339 36.8276 27.1927 36.7668 27.2641C36.706 27.3356 36.6601 27.4184 36.6317 27.5076C36.6033 27.5968 36.5931 27.6908 36.6015 27.784C36.61 27.8772 36.637 27.9678 36.681 28.0505C37.5282 29.7923 35.5967 31.328 35.7068 32.8552C35.2282 32.8552 34.7326 32.8552 34.4361 32.2031C34.2217 32.5866 34.0376 32.9861 33.8855 33.398L33.4958 32.7416C33.3479 33.3353 33.013 33.8665 32.5398 34.2578C32.0667 34.6491 31.48 34.88 30.8654 34.9168C31.5177 33.886 30.7341 32.4808 32.3267 30.983C32.0339 30.7809 31.759 30.5542 31.505 30.3056C33.4619 30.537 35.4993 28.9972 34.5717 28.2693C33.9659 27.7939 33.6991 28.7826 32.7672 28.6143L33.1315 28.303C33.0044 28.1767 32.8562 28.0127 32.7079 27.8822C33.0057 27.8324 33.2924 27.7313 33.5551 27.5835L33.3179 27.1922C35.6094 27.1922 35.6645 25.4504 34.7368 25.3831C34.3133 25.3495 33.733 26.1488 32.3267 25.9848C32.4817 25.7439 32.5962 25.4796 32.6656 25.2022C32.3031 25.2022 31.9433 25.1396 31.6024 25.0171C32.2928 24.9287 32.4496 24.6973 33.0383 24.2682L32.3733 24.0242C33.3391 23.5445 33.2798 22.7115 33.3052 21.8448C32.8011 22.1351 32.2039 22.5811 31.577 22.3707C31.4288 22.3202 31.3271 22.2529 31.3271 22.0972C32.2335 21.7438 32.8096 20.3596 30.6452 19.1984C29.2474 18.4453 25.8673 16.8213 28.1588 15.0795C28.4722 14.8439 28.8111 14.6293 29.0991 14.3601C29.4592 14.6335 28.9678 15.3109 28.845 15.5633C28.845 15.5633 29.6074 15.6391 29.7853 15.6391C30.9628 15.6391 32.1997 14.9407 31.577 13.6154C32.0472 13.7121 32.1022 14.1581 32.242 14.541C32.5427 14.339 33.0637 13.9057 33.4661 13.9688C33.14 15.008 31.7719 15.942 30.696 16.1524C31.7761 16.7372 33.7753 17.1705 34.8258 15.9167C35.5628 17.3346 34.5378 17.9278 33.5254 18.6725C37.3672 20.4143 36.7996 22.3665 39.3199 23.9022C38.9937 24.0536 37.5324 23.7507 37.4053 23.7297C37.7727 24.1445 38.0963 24.5956 38.3711 25.076C38.5535 25.5476 38.6786 26.0391 38.7438 26.5401C38.7793 26.8809 38.8972 27.208 39.0875 27.4937C39.2778 27.7795 39.5348 28.0152 39.8366 28.181C39.5401 28.7153 38.8836 28.2988 38.6083 28.2272" fill="#DEE0E1"/>
<path fill-rule="evenodd" clip-rule="evenodd" d="M20.319 32.4847L20.8654 32.0219L20.7807 31.8536C20.7214 31.7358 20.751 31.7273 20.8146 31.6811L21.1026 31.4665C21.1338 31.4434 21.1703 31.4286 21.2089 31.4234C21.2474 31.4183 21.2866 31.4229 21.3228 31.437L22.17 31.639H21.2763C21.1982 31.6357 21.1213 31.6583 21.0576 31.7033C20.994 31.7482 20.9472 31.8129 20.9247 31.8872L20.8612 32.0176L20.624 32.4973C20.5689 32.5988 20.5478 32.7151 20.5638 32.8294C20.5798 32.9436 20.632 33.0498 20.7129 33.1326L20.8781 33.3261L20.5477 34.0119H20.8315L21.0645 33.5407C21.2597 33.363 21.4056 33.1384 21.488 32.8886C21.3906 32.8086 21.3186 32.7539 21.3737 32.6403L21.4796 32.4173C21.5135 32.3416 21.5262 32.3122 21.6278 32.3332L22.5385 32.5309C22.6066 32.5648 22.6847 32.5733 22.7586 32.5547C22.8324 32.5362 22.8971 32.4919 22.9409 32.43C23.068 32.2406 23.0849 32.2617 23.3645 32.2911L23.8304 32.3416C24.3546 32.4086 24.8866 32.3053 25.3468 32.0471C25.4511 32.2196 25.5642 32.3867 25.6856 32.5478C25.7153 32.6025 25.6856 32.6824 25.6263 32.7834L25.1223 34.0119H25.9271L26.3845 32.8801C26.4174 32.7915 26.4695 32.7111 26.537 32.6445L26.2744 34.0119H27.0538L27.2613 32.6572C27.3079 32.3584 27.2613 32.2617 27.1342 32.1354C26.8081 31.862 26.8166 31.294 26.7107 30.9406C26.7698 30.9073 26.8381 30.894 26.9055 30.9027C27.0749 30.9027 27.202 31.3529 27.4053 31.6264C27.8035 32.1859 28.3499 32.8002 28.9768 31.9335C28.9169 31.8368 28.8489 31.7453 28.7734 31.66L28.5998 31.4581C28.4981 31.3445 28.0153 30.7975 27.8119 30.6166C27.6249 30.432 27.3809 30.315 27.119 30.2845C26.8572 30.254 26.5925 30.3117 26.3676 30.4483C25.7322 30.1202 25.063 30.4483 24.902 30.4483L23.8092 30.381C23.7731 30.3797 23.7378 30.3693 23.7067 30.351C23.6757 30.3326 23.6497 30.3068 23.6313 30.2758L23.8346 30.2085C23.644 29.4218 23.1654 28.7612 22.3309 28.6518C22.3309 28.6518 22.2801 28.4036 22.1573 28.3531L21.9074 28.6476C21.8345 28.658 21.7633 28.6778 21.6956 28.7065L20.6282 28.311L21.4287 29.1146C21.4287 29.1146 21.0306 29.6868 20.8993 29.8046C20.8602 29.8447 20.8384 29.8982 20.8384 29.954C20.8384 30.0097 20.8602 30.0633 20.8993 30.1033L21.056 30.3053C21.1365 30.4105 21.2254 30.4063 21.3525 30.3389L21.5262 30.2506C21.6024 30.1875 21.8608 30.3137 21.9497 30.2127C21.9051 30.4188 21.881 30.6288 21.8777 30.8396L21.1577 30.7555C21.1012 30.7412 21.042 30.7407 20.9853 30.7539C20.9285 30.7671 20.8758 30.7936 20.8315 30.8312L20.2173 31.2982C20.1173 31.3756 20.0483 31.4859 20.0227 31.6092C19.9971 31.7326 20.0165 31.861 20.0775 31.9714L20.319 32.4847ZM26.249 32.6193L25.7619 33.8099H25.4611L25.9482 32.6572C25.9991 32.5099 25.9016 32.4384 25.783 32.2743C25.9522 32.3729 26.1293 32.4573 26.3125 32.5267C26.2899 32.5557 26.27 32.5867 26.2532 32.6193H26.249ZM21.56 30.036L21.4203 30.1075C21.3228 30.1622 21.2763 30.1875 21.1915 30.0823L21.1322 30.0066C21.1131 29.9767 21.1048 29.9413 21.1086 29.9061C21.1125 29.8709 21.1283 29.8381 21.1534 29.813L21.7507 29.1188L21.2 28.6687L21.9031 28.9253L22.1615 28.6055C22.2378 28.6687 22.2123 28.8538 22.2123 28.8538C22.541 28.9201 22.8355 29.0995 23.044 29.3604C23.2525 29.6214 23.3615 29.9471 23.3517 30.28C23.4494 30.428 23.6014 30.5322 23.7753 30.5703L24.991 30.6419C25.19 30.6419 25.6941 30.259 26.3422 30.6419C26.4981 30.5397 26.6743 30.4723 26.8589 30.4441C27.122 30.4508 27.3793 30.5228 27.6072 30.6536C27.8351 30.7845 28.0263 30.9699 28.1635 31.193C28.3922 31.4791 28.7057 31.9209 28.7057 31.9209C28.5701 32.0808 28.4388 32.1312 28.3287 32.0934C28.2528 32.0496 28.1883 31.9888 28.1405 31.9157C28.0926 31.8426 28.0628 31.7593 28.0534 31.6726C27.9643 31.4546 27.818 31.2643 27.6298 31.1215C27.7194 31.3229 27.782 31.5351 27.8162 31.7526C27.3418 31.2856 27.2528 30.7134 26.9182 30.6377C26.8265 30.6238 26.7328 30.6363 26.648 30.6736C26.5632 30.7108 26.4909 30.7713 26.4396 30.848C26.609 31.2351 26.6005 31.6895 26.77 31.9798C26.9013 32.2028 26.9267 32.2238 26.986 32.2743C27.1258 32.3753 27.0453 32.552 27.0241 32.695L26.842 33.8142H26.537L26.7361 32.7161C26.7954 32.3837 25.8508 32.3837 25.3679 31.7442C24.9444 32.2238 23.8007 32.1018 23.3009 32.0261C23.2082 31.9928 23.1068 31.9926 23.014 32.0256C22.9212 32.0587 22.8429 32.1228 22.7926 32.207C22.7291 32.3206 22.619 32.2869 22.5512 32.2701L21.6405 32.0765C21.6118 32.0639 21.5807 32.0575 21.5493 32.0578C21.5179 32.0581 21.4869 32.065 21.4584 32.0782C21.4299 32.0913 21.4046 32.1104 21.3842 32.134C21.3637 32.1577 21.3486 32.1854 21.3398 32.2154L21.1577 32.5898C21.1345 32.6246 21.1252 32.6666 21.1314 32.7078C21.1377 32.749 21.1591 32.7864 21.1915 32.8128L21.2805 32.9054C21.2373 33.0274 21.1628 33.1362 21.0645 33.2209L20.8654 32.9979C20.8216 32.9373 20.7961 32.8657 20.7916 32.7912C20.7871 32.7168 20.8038 32.6426 20.84 32.5772L21.1365 31.9672C21.1555 31.9252 21.1865 31.8896 21.2257 31.865C21.2648 31.8403 21.3104 31.8275 21.3567 31.8283H22.4834L22.1361 31.2687C21.8777 30.848 22.3055 30.1033 22.242 29.7499C22.2081 30.2211 21.6363 30.0066 21.5431 30.0697L21.56 30.036ZM20.3317 31.4455L20.8654 31.0247C20.899 30.9884 20.9405 30.9601 20.9867 30.9418C21.0329 30.9236 21.0827 30.916 21.1322 30.9195L21.8862 31.0163C21.9201 31.1434 21.9745 31.2641 22.0472 31.3739L21.2466 31.2056C21.202 31.1949 21.1553 31.1954 21.1109 31.2072C21.0665 31.219 21.0258 31.2416 20.9925 31.273L20.6112 31.5591C20.5772 31.589 20.5551 31.6301 20.5489 31.6748C20.5427 31.7196 20.5528 31.7651 20.5774 31.8031L20.6409 31.9335L20.374 32.1312L20.2724 31.9419C20.1707 31.74 20.1623 31.5548 20.3317 31.4244" fill="#DEE0E1"/>
<path fill-rule="evenodd" clip-rule="evenodd" d="M22.6566 17.0648C22.9143 17.2266 23.1848 17.3673 23.4656 17.4854V17.1447L22.3262 16.7241C22.3262 16.7241 22.3262 16.8629 22.6566 17.0858" fill="#DEE0E1"/>
<path fill-rule="evenodd" clip-rule="evenodd" d="M23.4667 16.6526V16.3119L22.1748 15.8535C22.3226 15.9979 22.4844 16.1275 22.6577 16.2404C22.9152 16.4026 23.1858 16.5433 23.4667 16.661" fill="#DEE0E1"/>
<path fill-rule="evenodd" clip-rule="evenodd" d="M23.4655 15.8783V15.5334L22.0508 15.0161C22.0508 15.0161 22.3261 15.239 22.6565 15.4619C22.9142 15.6237 23.1848 15.7644 23.4655 15.8825" fill="#DEE0E1"/>
<path fill-rule="evenodd" clip-rule="evenodd" d="M27.4434 20.5484H28.892C28.8377 20.4104 28.7387 20.2942 28.6107 20.218C28.4826 20.1419 28.3328 20.1102 28.1846 20.1278C28.0339 20.1228 27.8848 20.1595 27.7539 20.2337C27.623 20.308 27.5155 20.4169 27.4434 20.5484" fill="#DEE0E1"/>
<path fill-rule="evenodd" clip-rule="evenodd" d="M25.9264 15.0203L24.5117 15.5376V15.8825C24.7928 15.765 25.0634 15.6244 25.3207 15.4619C25.6511 15.239 25.9264 15.0161 25.9264 15.0161" fill="#DEE0E1"/>
<path fill-rule="evenodd" clip-rule="evenodd" d="M25.6511 16.7076L24.5117 17.1281V17.4688C24.7925 17.3507 25.063 17.21 25.3207 17.0482C25.6511 16.8253 25.6511 16.6865 25.6511 16.6865" fill="#DEE0E1"/>
<path fill-rule="evenodd" clip-rule="evenodd" d="M25.8088 15.8531L24.5381 16.3116V16.6522C24.8192 16.5349 25.0898 16.3942 25.3471 16.2317C25.5205 16.1188 25.6823 15.9892 25.83 15.8447" fill="#DEE0E1"/>
<path fill-rule="evenodd" clip-rule="evenodd" d="M19.7943 20.1282C19.646 20.1098 19.4958 20.1412 19.3676 20.2174C19.2394 20.2937 19.1406 20.4103 19.0869 20.5487H20.5355C20.463 20.4176 20.3554 20.309 20.2246 20.2347C20.0938 20.1605 19.9449 20.1236 19.7943 20.1282" fill="#DEE0E1"/>
<path fill-rule="evenodd" clip-rule="evenodd" d="M26.863 14.0988C26.863 13.291 25.4948 12.5674 23.9869 12.5674C22.479 12.5674 21.1109 13.291 21.1109 14.0988L21.1448 14.2966L21.7462 17.7297L18.9126 19.3832C18.7116 19.5136 18.5409 19.6849 18.4116 19.8858C18.2824 20.0868 18.1976 20.3127 18.1628 20.5486H18.6838C18.7208 20.262 18.8651 19.9997 19.0881 19.8142C19.311 19.6286 19.5962 19.5333 19.8868 19.5473C20.5433 19.5809 20.933 19.968 21.3227 20.5486L21.4243 20.7L21.5683 20.923H17.375C17.7266 21.5256 17.9325 22.2011 17.9765 22.8962V31.5464C17.9765 33.7763 19.7004 34.8365 21.5683 34.8365C23.0085 34.8365 23.2033 34.7734 23.9996 35.5601C24.7917 34.7692 24.9866 34.8365 26.4309 34.8365C28.2946 34.8365 30.0186 33.7763 30.0186 31.5464V22.8836C30.0609 22.1888 30.2654 21.5133 30.6158 20.9104H26.4182L26.5622 20.6874L26.6639 20.536C27.0493 19.968 27.439 19.5725 28.0998 19.5346C28.3909 19.5231 28.6756 19.6212 28.897 19.8091C29.1185 19.9971 29.2604 20.2612 29.2943 20.5486H29.8153C29.782 20.3137 29.6992 20.0885 29.5722 19.8876C29.4452 19.6868 29.2768 19.5149 29.0783 19.3832L26.2276 17.7339L26.8291 14.3008L26.863 14.0988ZM21.6954 14.4943L23.8133 15.2138V18.5207L22.2461 17.7003L21.6954 14.4943ZM22.2164 21.5121C22.5297 21.9166 22.9821 22.1922 23.4871 22.2862C23.5401 22.5203 23.6697 22.7304 23.8556 22.8836C23.8224 23.0207 23.8169 23.1629 23.8394 23.3021C23.862 23.4413 23.9122 23.5747 23.987 23.6945C24.0619 23.8142 24.16 23.9181 24.2756 23.9999C24.3912 24.0817 24.522 24.1399 24.6604 24.171C24.6902 24.3179 24.7588 24.4542 24.8594 24.5659C24.9599 24.6776 25.0886 24.7606 25.2322 24.8063L24.7875 25.3154C24.7191 25.3996 24.6305 25.4653 24.5298 25.5065C24.4291 25.5477 24.3196 25.563 24.2114 25.551L22.2249 25.328C22.3096 25.1093 22.0809 24.8526 21.454 24.962L22.2334 22.7953L21.7547 21.7855L20.8525 22.5512L20.7847 24.8274L20.4035 24.6381C19.8995 24.4235 19.7512 25.328 20.2299 25.3323H20.4205C20.4103 25.3746 20.4134 25.419 20.4293 25.4596C20.4452 25.5002 20.4731 25.535 20.5094 25.5594C20.4866 25.5734 20.4678 25.5929 20.4548 25.6161C20.4418 25.6393 20.4349 25.6654 20.4349 25.692C20.4349 25.7185 20.4418 25.7447 20.4548 25.7679C20.4678 25.7911 20.4866 25.8106 20.5094 25.8245C20.4833 25.8385 20.461 25.8585 20.4442 25.8827C20.4275 25.907 20.4168 25.9349 20.4131 25.9641C20.4093 25.9933 20.4127 26.023 20.4228 26.0507C20.4329 26.0783 20.4496 26.1032 20.4713 26.1232C20.4374 26.1777 20.4164 26.2392 20.41 26.303C20.4036 26.3667 20.412 26.4311 20.4345 26.4912C20.4569 26.5512 20.4929 26.6054 20.5397 26.6495C20.5864 26.6937 20.6427 26.7267 20.7043 26.7459C20.9881 26.8216 21.166 26.5145 21.2253 26.3252L24.3173 27.276C24.5086 27.3436 24.7154 27.355 24.913 27.3087C25.1106 27.2625 25.2906 27.1605 25.4313 27.0152L26.2361 26.3126C26.174 26.5034 26.1825 26.71 26.2602 26.8951C26.3378 27.0803 26.4795 27.2317 26.6597 27.3223C26.6339 27.5204 26.6226 27.72 26.6258 27.9197H18.5779V22.871C18.5605 22.3983 18.4587 21.9325 18.2772 21.4952L22.2164 21.5121ZM25.5414 23.4306C25.4582 23.5915 25.4187 23.7713 25.4268 23.9521C25.435 24.1329 25.4906 24.3084 25.588 24.4614L25.4567 24.5918C24.8764 24.5203 24.6477 23.662 24.6477 23.662C24.6417 23.7376 24.6417 23.8135 24.6477 23.8892C24.4766 23.8288 24.3309 23.7129 24.2341 23.5603C24.1373 23.4077 24.095 23.2271 24.114 23.0477C24.2461 23.1196 24.3892 23.1694 24.5376 23.195L24.5757 22.9425C24.4065 22.9205 24.2474 22.8505 24.1174 22.7407C23.9874 22.631 23.8921 22.4863 23.8429 22.3241H23.7879H24.0039C24.2302 22.3245 24.4555 22.2933 24.6731 22.2315C24.7639 22.3531 24.8787 22.4551 25.0105 22.531C25.1423 22.607 25.2884 22.6554 25.4398 22.6733C25.393 22.9273 25.4286 23.1895 25.5414 23.4222V23.4306ZM26.3886 25.6941C26.3279 25.7737 26.282 25.8635 26.253 25.9591L25.9311 26.2537C25.9445 26.016 25.9025 25.7785 25.8085 25.5596C25.7145 25.3407 25.5709 25.1463 25.389 24.9915L25.732 24.6549L25.7998 24.7222C25.7746 24.8236 25.7698 24.929 25.7858 25.0322C25.8018 25.1354 25.8382 25.2345 25.893 25.3237C25.9477 25.4129 26.0197 25.4904 26.1047 25.5518C26.1898 25.6132 26.2863 25.6573 26.3886 25.6815V25.6941ZM24.8425 25.551L25.1094 25.2944C25.2935 25.4462 25.437 25.6409 25.5272 25.8611C25.6173 26.0813 25.6513 26.3202 25.6262 26.5566L25.3381 26.8216C25.2829 26.8747 25.2218 26.9212 25.156 26.9605C25.2206 26.7187 25.2263 26.4651 25.1725 26.2207C25.1187 25.9763 25.0071 25.7482 24.8468 25.5552L24.8425 25.551ZM24.275 25.774C24.3744 25.7865 24.4754 25.7719 24.5672 25.7319C24.6976 25.9307 24.7766 26.1583 24.7972 26.3946C24.8179 26.6309 24.7797 26.8686 24.6858 27.0867C24.551 27.0856 24.417 27.0658 24.2877 27.0278L24.186 26.9983C24.3618 26.6135 24.3904 26.1783 24.2665 25.774H24.275ZM23.593 25.6899L23.97 25.7362C24.0382 26.128 23.9757 26.5313 23.7921 26.8847L23.3685 26.7585C23.561 26.4352 23.6455 26.0596 23.61 25.6857L23.593 25.6899ZM22.8136 25.5973L23.2669 25.652C23.3011 26.0075 23.2273 26.3651 23.0551 26.6786L22.5934 26.544C22.7716 26.2619 22.8492 25.9285 22.8136 25.5973ZM20.9711 25.4753C20.9372 25.4917 20.8994 25.4987 20.8619 25.4954C20.8243 25.4921 20.7883 25.4787 20.7578 25.4567C20.7273 25.4346 20.7035 25.4047 20.6888 25.3702C20.6742 25.3357 20.6693 25.2978 20.6746 25.2607C20.7862 25.2013 20.9116 25.1724 21.0381 25.1768C21.1646 25.1812 21.2876 25.2189 21.3947 25.286C21.5048 25.3575 21.598 25.5552 21.7505 25.6773C21.721 25.8731 21.6743 26.066 21.6107 26.2537C21.5302 26.2495 21.4526 26.2226 21.3869 26.1761C21.3213 26.1297 21.2703 26.0656 21.2401 25.9913C21.2098 25.9171 21.2015 25.8359 21.2162 25.7571C21.2308 25.6784 21.2678 25.6054 21.3227 25.5468C21.2817 25.4948 21.2236 25.4587 21.1586 25.4449C21.0936 25.431 21.0257 25.4403 20.9669 25.4711L20.9711 25.4753ZM20.6704 26.3126C20.7625 26.3491 20.8596 26.3717 20.9584 26.3799C20.9564 26.4027 20.9497 26.4249 20.9385 26.4449C20.9274 26.465 20.9122 26.4825 20.8938 26.4964C20.8755 26.5103 20.8544 26.5202 20.832 26.5255C20.8095 26.5308 20.7862 26.5313 20.7636 26.5271C20.7424 26.5203 20.7229 26.509 20.7065 26.4941C20.69 26.4793 20.677 26.4611 20.6682 26.4408C20.6593 26.4205 20.655 26.3985 20.6554 26.3764C20.6557 26.3543 20.6609 26.3325 20.6704 26.3126V26.3126ZM20.2468 25.1051C20.2224 25.093 20.203 25.0729 20.1918 25.0482C20.1806 25.0235 20.1783 24.9958 20.1852 24.9696C20.1922 24.9435 20.208 24.9205 20.23 24.9045C20.252 24.8886 20.2789 24.8807 20.3061 24.8821C20.4332 24.8821 20.6026 25.0293 20.772 25.1009C20.5981 25.1291 20.4207 25.1291 20.2468 25.1009V25.1051ZM20.6704 25.9802C20.7593 26.0685 21.0346 26.0349 21.0346 26.0349V26.0896C20.916 26.2494 20.5814 26.1779 20.6577 25.9802H20.6704ZM21.0262 25.7993C20.8271 25.8792 20.628 25.7698 20.6916 25.6436C20.7805 25.7277 21.0389 25.6857 21.0389 25.6857L21.0262 25.7993ZM21.3142 23.5273L20.9372 24.8905L21.0643 22.6901L21.6488 22.1936L21.9453 22.8415L21.1956 24.9788L21.3947 23.54C21.3947 23.439 21.3311 23.4264 21.3142 23.54V23.5273ZM21.3735 25.1766C21.5532 25.1648 21.7337 25.1733 21.9114 25.2018C22.0004 25.2397 21.9411 25.3827 21.8267 25.3701C21.6693 25.3213 21.5174 25.2565 21.3735 25.1766V25.1766ZM22.03 25.509L22.4875 25.5637C22.5163 25.8674 22.4513 26.1726 22.3011 26.4388L21.8776 26.3126C21.9799 26.0428 22.0399 25.759 22.0555 25.4711L22.03 25.509ZM29.4298 31.5212C29.4501 31.9869 29.3387 32.449 29.1081 32.855C28.8775 33.261 28.537 33.5947 28.1252 33.8183L28.4175 33.2293H28.1337L27.7609 33.9866C27.3394 34.1413 26.893 34.2183 26.4436 34.2138C24.9569 34.2138 24.563 34.2727 24.0123 34.8197C23.4575 34.2769 23.0678 34.2138 21.5811 34.2138C21.1335 34.218 20.6887 34.1425 20.268 33.9908V33.9908L20.6407 33.2335H20.3527L20.0223 33.8983C19.9461 33.8604 19.8698 33.8225 19.7936 33.7805L20.0647 33.2377H19.7851L19.5818 33.6585C19.2552 33.4145 18.9927 33.0959 18.8165 32.7297C18.6402 32.3635 18.5555 31.9605 18.5695 31.5548V28.2353H29.4044L29.4298 31.5212ZM29.7305 21.4868C29.5458 21.9233 29.4425 22.3894 29.4256 22.8626V27.9113H28.8326C28.6013 27.5707 28.4335 27.1917 28.337 26.7922C28.2866 26.9807 28.2763 27.1777 28.307 27.3704C28.3376 27.5631 28.4084 27.7474 28.5149 27.9113H27.7525C27.5834 27.5461 27.4651 27.1597 27.4009 26.7627C27.1722 27.0194 27.3162 27.7178 27.4602 27.9113H26.9562C26.9424 27.6595 26.9666 27.4071 27.0282 27.1624C26.7656 27.1119 26.4818 26.9731 26.4818 26.6828C26.5277 26.7337 26.5863 26.7718 26.6517 26.7932C26.7172 26.8146 26.7871 26.8186 26.8545 26.8048L27.0705 26.6365C26.3547 26.6575 26.325 25.8834 26.8884 25.5174C26.325 25.5174 25.9015 25.2018 26.109 24.6044C26.014 24.5439 25.9322 24.4652 25.8683 24.3729C25.8043 24.2805 25.7596 24.1764 25.7367 24.0667C25.7138 23.957 25.7132 23.8438 25.735 23.7338C25.7567 23.6239 25.8004 23.5193 25.8634 23.4264C25.758 23.2847 25.6921 23.118 25.672 22.943C25.6519 22.768 25.6785 22.5908 25.749 22.4292C25.4575 22.4322 25.1763 22.322 24.9654 22.1221H24.9188C25.2555 21.9871 25.5485 21.763 25.7659 21.4742L29.7305 21.4868ZM27.5746 19.055C26.9858 19.156 26.4818 19.8712 26.0667 20.5149L26.0201 20.5907H25.5965V20.6664C25.5499 21.1628 25.0755 21.836 24.0293 21.836C23.634 21.8487 23.2465 21.7253 22.9322 21.4868C22.7348 21.3335 22.5875 21.1256 22.5087 20.8894C22.485 20.817 22.4694 20.7422 22.4621 20.6664V20.5907H22.0385L21.9326 20.5486C21.509 19.9049 21.0135 19.1938 20.4289 19.0887L22.0258 18.1673L23.9954 19.2191L25.9565 18.1589L27.5746 19.055ZM25.7405 17.675L24.1733 18.4954V15.2138L26.2912 14.4943L25.7405 17.675ZM23.9954 14.8477L21.6658 13.939C21.8606 13.4762 22.7755 13.0975 23.9912 13.0975C25.2068 13.0975 26.109 13.493 26.3166 13.939L23.9954 14.8477Z" fill="#DEE0E1"/>
<path fill-rule="evenodd" clip-rule="evenodd" d="M29.1591 24.7554V24.503C28.3797 24.503 28.1976 23.5693 28.1976 23.5693C28.1567 23.7128 28.1511 23.8638 28.1811 24.0099C28.211 24.1559 28.2758 24.2927 28.3699 24.4089C28.4641 24.525 28.5848 24.617 28.7221 24.6773C28.8594 24.7376 29.0092 24.7644 29.1591 24.7554" fill="#DEE0E1"/>
<path fill-rule="evenodd" clip-rule="evenodd" d="M28.1724 26.3292L28.0919 26.0895C27.4269 26.2577 27.0839 25.2104 27.0839 25.2104C27.038 25.3622 27.0336 25.5233 27.0713 25.6773C27.1089 25.8313 27.1872 25.9725 27.2981 26.0865C27.409 26.2004 27.5484 26.283 27.7021 26.3256C27.8558 26.3683 28.0181 26.3695 28.1724 26.3292" fill="#DEE0E1"/>
<path fill-rule="evenodd" clip-rule="evenodd" d="M28.6547 25.353C27.8584 25.4792 27.5322 24.5581 27.5322 24.5581C27.508 24.6784 27.5088 24.8023 27.5348 24.9222C27.5607 25.0422 27.6112 25.1555 27.6831 25.2553C27.755 25.355 27.8467 25.4391 27.9526 25.5022C28.0586 25.5653 28.1764 25.6061 28.2989 25.6222C28.2692 25.7532 28.2783 25.8899 28.3253 26.0158C28.3723 26.1417 28.4551 26.2514 28.5636 26.3315C28.6721 26.4117 28.8017 26.4588 28.9366 26.4673C29.0716 26.4758 29.2061 26.4452 29.3239 26.3792L29.2477 26.1521C29.1418 26.1924 29.0255 26.1969 28.9168 26.1651C28.808 26.1332 28.7128 26.0667 28.6459 25.9759C28.5789 25.885 28.5439 25.7748 28.5463 25.6622C28.5487 25.5497 28.5882 25.441 28.6589 25.353" fill="#DEE0E1"/>
<path fill-rule="evenodd" clip-rule="evenodd" d="M28.16 22.7236V22.4713C27.1095 22.2568 27.1985 21.5376 27.1985 21.5376C27.1578 21.6807 27.1521 21.8313 27.1819 21.977C27.2116 22.1227 27.276 22.2593 27.3696 22.3753C27.4633 22.4913 27.5835 22.5834 27.7202 22.644C27.8569 22.7046 28.0063 22.7319 28.1558 22.7236" fill="#DEE0E1"/>
<path fill-rule="evenodd" clip-rule="evenodd" d="M21.4922 33.2544L21.1152 34.0114H21.399L21.776 33.2544H21.4922Z" fill="#DEE0E1"/>
<path fill-rule="evenodd" clip-rule="evenodd" d="M22.0606 33.2544L21.6836 34.0114H21.9716L22.3444 33.2544H22.0606Z" fill="#DEE0E1"/>
<path fill-rule="evenodd" clip-rule="evenodd" d="M24.3389 33.2544L23.9619 34.0114H24.2457L24.6227 33.2544H24.3389Z" fill="#DEE0E1"/>
<path fill-rule="evenodd" clip-rule="evenodd" d="M24.9102 33.2544L24.5332 34.0114H24.817L25.1897 33.2544H24.9102Z" fill="#DEE0E1"/>
<path fill-rule="evenodd" clip-rule="evenodd" d="M23.7715 33.2544L23.3945 34.0114H23.6783L24.0553 33.2544H23.7715Z" fill="#DEE0E1"/>
<path fill-rule="evenodd" clip-rule="evenodd" d="M27.0967 34.0114H27.3805L27.7574 33.2544H27.4737L27.0967 34.0114Z" fill="#DEE0E1"/>
<path fill-rule="evenodd" clip-rule="evenodd" d="M22.6319 33.2544L22.2549 34.0114H22.5387L22.9156 33.2544H22.6319Z" fill="#DEE0E1"/>
<path fill-rule="evenodd" clip-rule="evenodd" d="M23.1992 33.2544L22.8223 34.0114H23.1103L23.483 33.2544H23.1992Z" fill="#DEE0E1"/>
<path fill-rule="evenodd" clip-rule="evenodd" d="M21.9112 29.1738C21.8874 29.1695 21.8627 29.1725 21.8406 29.1826C21.8186 29.1927 21.8001 29.2092 21.7878 29.23C21.7755 29.2508 21.7699 29.2748 21.7718 29.2988C21.7737 29.3229 21.783 29.3458 21.7984 29.3644C21.8139 29.383 21.8347 29.3965 21.858 29.403C21.8814 29.4095 21.9062 29.4088 21.9292 29.4008C21.9521 29.3929 21.972 29.3781 21.9862 29.3586C22.0004 29.339 22.0083 29.3156 22.0087 29.2915C22.0111 29.2632 22.0022 29.235 21.984 29.213C21.9658 29.191 21.9397 29.1769 21.9112 29.1738" fill="#DEE0E1"/>
<path fill-rule="evenodd" clip-rule="evenodd" d="M23.9959 12.0543C24.933 12.0289 25.8526 12.3098 26.6136 12.8537C26.7331 12.2415 26.9627 11.6558 27.2913 11.1245L26.351 11.2296L25.8596 10.1904L24.9151 10.6785L23.9959 9.77393L23.081 10.6785L22.128 10.1904L21.6324 11.2296L20.6963 11.1245C21.0257 11.6553 21.2554 12.2412 21.374 12.8537C22.1361 12.3089 23.0573 12.028 23.9959 12.0543V12.0543ZM21.8018 11.6335L22.2508 10.6911L23.0979 11.1118L23.9959 10.2367L24.9151 11.1371L25.7622 10.7164L26.1858 11.6588L26.7364 11.5746C26.5926 11.8341 26.4762 12.1076 26.3891 12.3909C25.6563 11.9844 24.831 11.7711 23.9917 11.7711C23.1524 11.7711 22.3271 11.9844 21.5943 12.3909C21.5074 12.1075 21.391 11.8339 21.2469 11.5746L21.8018 11.6335Z" fill="#DEE0E1"/>
<path fill-rule="evenodd" clip-rule="evenodd" d="M24.9527 10.1946C24.9855 10.1975 25.0186 10.1939 25.0501 10.184C25.0815 10.1741 25.1106 10.1582 25.1358 10.1371C25.161 10.116 25.1818 10.0901 25.1969 10.061C25.212 10.0319 25.2211 10.0001 25.2238 9.96748C25.1909 9.79262 25.1279 9.62472 25.0374 9.47119C25.0374 9.47119 24.7367 9.79083 24.7282 9.92542C24.7235 9.98992 24.7443 10.0537 24.7862 10.1032C24.8281 10.1527 24.8879 10.184 24.9527 10.1904" fill="#DEE0E1"/>
<path fill-rule="evenodd" clip-rule="evenodd" d="M26.4912 10.75C26.5497 10.7797 26.6176 10.7853 26.6802 10.7656C26.7429 10.7459 26.7952 10.7025 26.8258 10.6449C26.8636 10.4722 26.8707 10.2943 26.847 10.1191C26.847 10.1191 26.4488 10.2958 26.3853 10.4178C26.3565 10.476 26.3515 10.5431 26.3712 10.6049C26.3909 10.6668 26.4339 10.7188 26.4912 10.75" fill="#DEE0E1"/>
<path fill-rule="evenodd" clip-rule="evenodd" d="M23.0295 10.1943C23.0951 10.1889 23.1559 10.1581 23.1987 10.1085C23.2416 10.0589 23.263 9.99449 23.2583 9.92932C23.2583 9.79053 22.9491 9.4751 22.9491 9.4751C22.8588 9.62874 22.7958 9.79659 22.7627 9.97138C22.7681 10.0365 22.7992 10.0969 22.8491 10.1394C22.8991 10.1819 22.9639 10.2031 23.0295 10.1985" fill="#DEE0E1"/>
<path fill-rule="evenodd" clip-rule="evenodd" d="M21.4884 10.75C21.5458 10.7188 21.5885 10.6666 21.6075 10.6045C21.6265 10.5424 21.6203 10.4753 21.5901 10.4178C21.5265 10.2958 21.1284 10.1191 21.1284 10.1191C21.106 10.2945 21.1146 10.4724 21.1538 10.6449C21.1686 10.6738 21.189 10.6996 21.2139 10.7206C21.2388 10.7416 21.2677 10.7575 21.2989 10.7673C21.33 10.777 21.3628 10.7806 21.3954 10.7776C21.4279 10.7746 21.4596 10.7653 21.4884 10.75" fill="#DEE0E1"/>
<path fill-rule="evenodd" clip-rule="evenodd" d="M39.9728 19.1648C40.2937 19.0276 40.5477 18.7708 40.6801 18.4496C39.833 18.3276 37.6262 17.4062 35.8006 18.1593C36.4825 17.5156 37.0967 17.4314 37.156 16.5058C37.2299 16.5745 37.3187 16.6254 37.4155 16.6547C37.5123 16.6839 37.6146 16.6906 37.7145 16.6744C37.8143 16.6581 37.9091 16.6193 37.9915 16.5609C38.0738 16.5025 38.1416 16.4261 38.1895 16.3375C38.0031 15.7864 37.5245 16.2324 37.461 16.0809C37.3974 15.9294 38.0582 16.1482 38.2107 15.4288C37.6728 15.2436 37.5118 15.6812 37.4144 15.5802C37.317 15.4793 37.7575 15.2983 37.4398 14.7388C36.8807 15.0627 37.173 15.433 37.0544 15.4708C36.9358 15.5087 37.0247 15.0796 36.402 15.1006C36.3427 15.7611 36.9866 15.7822 36.8765 15.8874C36.7663 15.9925 36.5842 15.5087 36.114 15.7653C36.1062 15.8766 36.1258 15.9881 36.1712 16.0901C36.2165 16.1921 36.2862 16.2816 36.3743 16.3508C36.4623 16.4201 36.566 16.4669 36.6764 16.4873C36.7868 16.5077 36.9005 16.5011 37.0078 16.468C36.9358 17.4819 35.9997 17.3094 35.3135 18.437C36.7917 19.1901 37.4567 20.5027 38.3674 21.4073C38.6899 21.0615 38.9635 20.6737 39.1807 20.2545C39.2917 20.3654 39.4237 20.4535 39.5691 20.5135C39.7144 20.5736 39.8704 20.6045 40.0278 20.6045C40.1853 20.6045 40.3412 20.5736 40.4866 20.5135C40.632 20.4535 40.7639 20.3654 40.875 20.2545C40.5361 19.9095 40.5234 19.6487 40.0066 19.1774L39.9728 19.1648ZM38.575 19.3626C38.6848 19.6221 38.7261 19.9051 38.6949 20.1849C38.6638 20.4647 38.5613 20.7319 38.3971 20.9613C37.9585 20.0171 37.3044 19.1874 36.4868 18.5379C36.3512 18.4538 36.5588 18.2981 36.9358 18.2518C38.0752 18.0373 39.4052 18.5169 40.0405 18.6726C39.798 18.8684 39.504 18.991 39.1934 19.026C39.5884 19.3303 39.9366 19.6903 40.2269 20.0946C39.7779 20.204 39.528 19.9263 38.5665 19.3499" fill="#DEE0E1"/>
<path fill-rule="evenodd" clip-rule="evenodd" d="M29.0526 36.2633V35.0264C27.8538 35.5523 26.5729 35.8697 25.2659 35.9646L25.1939 36.4064C25.3294 36.4064 25.4988 36.44 25.7233 36.4568C24.5597 36.6156 23.3798 36.6156 22.2162 36.4568C22.4407 36.4568 22.6101 36.4274 22.7456 36.4064L22.6736 35.9646C21.3751 35.8675 20.1029 35.5501 18.9123 35.0264V36.2633L17.6416 36.7976C18.72 37.3369 19.8569 37.7519 21.0302 38.0346L20.8777 38.5521C22.9385 39.1287 25.1196 39.1287 27.1804 38.5521L27.0279 38.0346C28.2012 37.7519 29.3381 37.3369 30.4165 36.7976L29.0526 36.2633ZM18.3193 36.8271L19.2003 36.4737V35.4639C19.9728 35.7465 20.7676 35.9646 21.5766 36.1161L21.0768 37.7359C20.1291 37.5221 19.2054 37.2149 18.3193 36.8187V36.8271ZM23.9952 38.6909C23.0513 38.685 22.1114 38.5678 21.1954 38.3417L21.7248 36.6588C23.2265 36.9083 24.7595 36.9083 26.2613 36.6588L26.7907 38.3417C25.8746 38.5673 24.9348 38.6846 23.9909 38.6909H23.9952ZM26.9051 37.7443L26.401 36.1161C27.2102 35.9618 28.005 35.7409 28.7773 35.4555V36.4653L29.6583 36.8187C28.7727 37.216 27.8488 37.5233 26.9009 37.7359" fill="#DEE0E1"/>
<path fill-rule="evenodd" clip-rule="evenodd" d="M8.81501 20.2374C9.03242 20.6564 9.30599 21.0442 9.62827 21.3902C10.5389 20.4856 11.2082 19.173 12.6822 18.4199C11.9833 17.2797 11.0472 17.469 10.9879 16.4509C11.0948 16.4821 11.2077 16.4873 11.3171 16.4661C11.4265 16.4449 11.5291 16.3979 11.6163 16.329C11.7036 16.2601 11.7728 16.1713 11.8183 16.0703C11.8637 15.9692 11.884 15.8588 11.8774 15.7483C11.4073 15.4916 11.2421 16.0007 11.115 15.8703C10.9879 15.7398 11.6529 15.744 11.5894 15.0835C10.971 15.0835 11.0853 15.5042 10.9371 15.4537C10.7888 15.4033 11.1108 15.033 10.5516 14.7217C10.234 15.3023 10.666 15.4832 10.5771 15.5631C10.4881 15.6431 10.3187 15.2266 9.78075 15.4117C9.92477 16.1269 10.6279 15.8324 10.5262 16.0638C10.4246 16.2952 9.98407 15.7693 9.79769 16.3204C9.84514 16.4089 9.91248 16.4853 9.99447 16.5437C10.0765 16.6021 10.1709 16.641 10.2705 16.6572C10.37 16.6735 10.472 16.6668 10.5685 16.6376C10.665 16.6083 10.7535 16.5574 10.827 16.4887C10.8863 17.4185 11.5004 17.4943 12.1824 18.1422C10.3568 17.3891 8.1373 18.3147 7.30286 18.4325C7.43579 18.7524 7.68978 19.0077 8.01023 19.1435C7.49347 19.6189 7.48076 19.8798 7.16309 20.2206C7.16309 20.2206 7.85351 20.9737 8.85737 20.2206L8.81501 20.2374ZM7.82385 20.0775C8.11408 19.6718 8.46388 19.3116 8.8616 19.0089C8.55081 18.9718 8.25703 18.8478 8.01446 18.6513C8.64982 18.483 9.98406 18.0076 11.1192 18.2305C11.492 18.281 11.7038 18.4325 11.5682 18.5166C10.7489 19.1655 10.0934 19.9953 9.65368 20.94C9.48984 20.7105 9.38754 20.4432 9.35642 20.1635C9.3253 19.8838 9.36637 19.6008 9.47578 19.3413C8.51428 19.9177 8.26437 20.1827 7.81538 20.086" fill="#DEE0E1"/>
<path fill-rule="evenodd" clip-rule="evenodd" d="M23.1914 19.5477V20.0944C23.265 20.0258 23.3528 19.9741 23.4486 19.9429C23.5445 19.9116 23.6461 19.9016 23.7463 19.9136V20.7001C23.7439 20.8944 23.693 21.0852 23.598 21.2552H24.3901C24.2938 21.0855 24.2414 20.8948 24.2376 20.7001V19.9094C24.3378 19.8971 24.4395 19.907 24.5354 19.9382C24.6313 19.9695 24.7191 20.0214 24.7925 20.0902V19.5435H23.1914V19.5477Z" fill="#DEE0E1"/>
<path d="M41.3154 19.7788C41.2266 19.6838 41.1485 19.5794 41.0825 19.4675L40.9469 19.2655C41.0879 19.1026 41.2035 18.9197 41.29 18.7228L41.6458 17.9234L40.7775 17.7972C40.6292 17.7762 40.392 17.7131 40.1167 17.6415C39.4728 17.4596 38.8158 17.3274 38.1514 17.246C38.4175 17.1258 38.6364 16.9217 38.774 16.6654L38.918 16.4088C38.918 16.4088 38.8799 16.0512 38.7401 15.9376C38.7958 15.8209 38.837 15.698 38.863 15.5715L38.9816 14.9994L38.4267 14.81C38.3426 14.7816 38.2561 14.7605 38.1683 14.7469C38.1334 14.6316 38.0865 14.5203 38.0285 14.4145L37.6897 13.8171L37.0924 14.1621C36.954 14.2411 36.8283 14.3404 36.7197 14.4566C36.6261 14.4395 36.5311 14.4311 36.4359 14.4314C36.1931 14.4141 35.9494 14.447 35.7201 14.5281L35.2414 14.0359L34.6738 13.4343C34.4323 13.1602 34.1101 12.9685 33.7529 12.8862C33.3957 12.8039 33.0214 12.8352 32.6831 12.9757C32.4971 12.801 32.2772 12.6658 32.0369 12.5782C31.7966 12.4907 31.5409 12.4527 31.2853 12.4666C31.101 12.4681 30.917 12.4822 30.7346 12.5087C30.2017 12.6092 29.7016 12.8374 29.2776 13.1734L28.6422 12.8705C28.3644 13.2818 27.9581 13.5908 27.4859 13.7498C27.4354 13.5542 27.3477 13.3699 27.2275 13.2071L27.2698 12.9715C27.3737 12.4476 27.5701 11.9462 27.8501 11.4905L28.6083 10.3167L27.5324 10.4513C27.5404 10.3252 27.5404 10.1987 27.5324 10.0726L27.435 9.15966L26.5879 9.53832C26.4947 9.58039 26.4142 9.62246 26.3422 9.66033L26.177 9.30691L25.7916 9.50466C25.7458 9.39371 25.6935 9.28553 25.6349 9.1807L25.1774 8.34766L24.5463 9.02503C24.4827 9.09655 24.4277 9.15966 24.3769 9.21856L23.9914 8.83991L23.606 9.22277C23.5594 9.15966 23.5043 9.09655 23.4408 9.02923L22.8054 8.34766L22.3564 9.16387C22.2982 9.26888 22.2458 9.37704 22.1997 9.48783L21.8142 9.29009L21.6448 9.6435L21.3992 9.52149L20.552 9.14283L20.4588 10.06C20.4506 10.1861 20.4506 10.3126 20.4588 10.4387L19.3787 10.3167L20.1411 11.4905C20.4195 11.9477 20.6131 12.4507 20.713 12.9757L20.7511 13.2113C20.6305 13.3755 20.5428 13.5611 20.4927 13.7582C20.045 13.5524 19.6498 13.2489 19.3364 12.8705L18.6841 13.1776C18.1145 12.7253 17.4097 12.4737 16.6806 12.4624C16.4264 12.4465 16.1716 12.484 15.933 12.5724C15.6943 12.6608 15.4771 12.7983 15.2955 12.9757C14.9586 12.8367 14.5864 12.8057 14.231 12.8872C13.8756 12.9687 13.5547 13.1585 13.3132 13.43C13.3132 13.43 12.9828 13.8171 12.7456 14.0275C12.5806 14.1884 12.3972 14.3296 12.1992 14.4482C11.8903 14.3863 11.572 14.3863 11.2631 14.4482C11.1466 14.3301 11.0123 14.2307 10.865 14.1537L10.2889 13.8171L9.95851 14.423C9.90036 14.5271 9.8535 14.6371 9.81873 14.7511C9.73095 14.7648 9.64451 14.7859 9.56035 14.8142L9.00972 15.0036L9.12408 15.5715C9.1487 15.6997 9.18999 15.8242 9.24691 15.9418C9.21371 16.004 9.18539 16.0687 9.1622 16.1353L9.06901 16.413L9.21303 16.6696C9.34942 16.9279 9.56849 17.1336 9.83568 17.2545C9.17127 17.3357 8.51418 17.468 7.87031 17.6499C7.59499 17.7215 7.35779 17.7846 7.20954 17.8056L6.33698 17.9318L6.53606 18.3778L6.69702 18.7312C6.78714 18.9329 6.90706 19.1201 7.05282 19.2866C6.93909 19.4639 6.81608 19.6353 6.68431 19.7999L6.26074 20.2458L6.68431 20.7086C6.85321 20.8807 7.05465 21.018 7.27706 21.1125C7.49948 21.2071 7.73851 21.2572 7.98044 21.2598C8.19417 21.2593 8.40622 21.2223 8.60732 21.1504C8.78365 21.4523 9.00989 21.7225 9.27656 21.9498C8.85908 22.458 8.33416 22.8688 7.739 23.1531L7.18412 23.4139L7.42133 24.0408C7.50561 24.2703 7.64368 24.4767 7.82413 24.6428C8.00457 24.8088 8.22222 24.9299 8.45907 24.9958C8.34255 25.3289 8.25331 25.6708 8.19222 26.0182C8.06515 26.7629 8.01432 27.07 7.34508 27.2804L6.75208 27.4866L6.92151 28.084C7.00738 28.4755 7.19924 28.8363 7.47639 29.1274L7.08247 29.5481C7.62891 29.9464 8.26118 30.2129 8.92924 30.3265C9.13679 30.344 9.34573 30.3182 9.54267 30.2508C9.73961 30.1834 9.9202 30.0759 10.0729 29.9352C10.2201 30.4132 10.4085 30.8778 10.6362 31.3236C11.0598 32.1861 11.2716 32.6994 10.992 33.1664L10.3694 34.2182L11.5977 34.1677C12.0987 34.1649 12.5981 34.1127 13.0887 34.012C13.0901 34.0345 13.0901 34.0569 13.0887 34.0794L12.9828 34.9881L14.0587 34.7609C14.1688 34.7284 14.2753 34.6847 14.3764 34.6305C14.7968 35.0873 15.3125 35.4474 15.8875 35.6857C16.4626 35.9241 17.083 36.0349 17.7056 36.0105H17.7946L16.0367 36.7257L17.3075 37.3863C18.2159 37.8482 19.1678 38.2203 20.1496 38.497L20.0014 39.0061L20.6452 39.1912C22.8288 39.8056 25.1413 39.8056 27.3249 39.1912L27.9645 39.0061L27.8078 38.497C28.7956 38.2186 29.7533 37.8437 30.6669 37.3779L31.9376 36.7173L30.1798 36.0021H30.2687C30.8906 36.0262 31.5104 35.9151 32.0846 35.6768C32.6589 35.4385 33.1739 35.0785 33.5937 34.6221C33.6951 34.6757 33.8015 34.7194 33.9114 34.7525L34.9873 34.9797L34.8899 34.0751C34.8899 34.0541 34.8899 34.0331 34.8899 34.0078C35.372 34.108 35.8628 34.1616 36.3554 34.1677L37.5838 34.2182L36.9654 33.1706C36.6858 32.7036 36.9103 32.1903 37.3212 31.3278C37.5493 30.8822 37.7378 30.4176 37.8845 29.9394C38.1049 30.1058 38.3594 30.2221 38.63 30.2802C38.7557 30.3157 38.885 30.3368 39.0154 30.3433C39.4436 30.3621 39.8648 30.2311 40.2057 29.9731L40.8834 29.5523L40.4852 29.1316C40.76 28.8507 40.9544 28.5022 41.0486 28.1218L41.218 27.5202L40.625 27.3141C39.9642 27.0827 39.9134 26.7755 39.7779 26.0519C39.7274 25.701 39.648 25.3549 39.5407 25.0169C39.7775 24.9509 39.9952 24.8299 40.1756 24.6638C40.3561 24.4977 40.4941 24.2914 40.5784 24.0618L40.8156 23.4349L40.2607 23.1741C39.6656 22.8899 39.1407 22.4791 38.7232 21.9708C38.991 21.7435 39.2186 21.4733 39.3967 21.1714C39.5964 21.2429 39.807 21.2799 40.0193 21.2808V21.2808C40.2613 21.2784 40.5004 21.2285 40.7228 21.1339C40.9453 21.0393 41.1467 20.9019 41.3154 20.7297L41.739 20.2669L41.3154 19.7788Z" fill="white"/>
<path fill-rule="evenodd" clip-rule="evenodd" d="M18.5742 27.9413V22.8926C18.5568 22.4213 18.455 21.9568 18.2734 21.521H22.2169C22.4331 21.7789 22.7038 21.9864 23.0098 22.1288C23.3158 22.2712 23.6495 22.345 23.9874 22.345C24.3253 22.345 24.659 22.2712 24.965 22.1288C25.271 21.9864 25.5417 21.7789 25.7579 21.521H29.7056C29.5226 21.9563 29.4207 22.4211 29.4049 22.8926V27.9413H18.5742ZM23.9959 34.8539C23.4452 34.3069 23.0513 34.248 21.5646 34.248C19.7898 34.248 18.5996 33.213 18.5996 31.5596V28.2358H29.4303V31.5469C29.4303 33.2004 28.2273 34.2354 26.4653 34.2354C24.9786 34.2354 24.5846 34.2943 24.034 34.8412" fill="#FCE527"/>
<path d="M19.2004 35.4677V36.4771L18.3193 36.8304C19.2052 37.2269 20.129 37.5341 21.0768 37.7472L21.5766 36.1154C20.7676 35.9605 19.9728 35.7396 19.2004 35.4551" fill="white"/>
<path d="M23.9951 36.8309C23.234 36.8403 22.4737 36.7769 21.7248 36.6416L21.1953 38.3239C23.0308 38.7909 24.9552 38.7909 26.7907 38.3239L26.2612 36.6416C25.5137 36.7766 24.7548 36.84 23.9951 36.8309Z" fill="white"/>
<path d="M28.7776 35.4678C28.0048 35.7481 27.21 35.9647 26.4014 36.1155L26.9012 37.7305C27.8477 37.5178 28.7701 37.2106 29.6544 36.8136L28.7734 36.4603L28.7776 35.4678Z" fill="white"/>
<path d="M17.3585 19.1981C18.7393 18.445 22.111 16.8294 19.8237 15.0792C19.5102 14.8394 19.1672 14.6248 18.8791 14.3597C18.5233 14.6332 19.0147 15.3106 19.1375 15.5588C19.1375 15.5588 18.3751 15.6345 18.1929 15.6345C17.0154 15.6345 15.7828 14.9361 16.4097 13.6108C15.9395 13.7076 15.8845 14.1536 15.7405 14.5364C15.4397 14.3345 14.9187 13.9011 14.5163 13.9643C14.8425 15.0034 16.2106 15.9375 17.2865 16.1478C16.2064 16.7326 14.2071 17.166 13.1567 15.908C12.4197 17.3259 13.449 17.9191 14.4528 18.6638C10.6153 20.4014 11.1786 22.3536 8.66261 23.8934C8.98876 24.0449 10.4458 23.742 10.5771 23.7209C10.2054 24.1332 9.87623 24.5814 9.59446 25.0588C9.41231 25.5305 9.28719 26.022 9.22172 26.523C9.18799 26.8642 9.07079 27.1921 8.88032 27.4781C8.68986 27.7641 8.4319 27.9995 8.12891 28.1638C8.42541 28.6981 9.08194 28.2816 9.35726 28.2101C9.28586 28.5643 9.15864 28.905 8.98028 29.2198C10.2722 29.1357 9.67494 26.4262 10.9711 27.0783C11.0556 27.1203 11.131 27.1785 11.1928 27.2495C11.2546 27.3205 11.3016 27.403 11.3311 27.4922C11.3607 27.5814 11.3721 27.6755 11.3648 27.7691C11.3576 27.8627 11.3317 27.954 11.2887 28.0376C10.4416 29.7794 12.3688 31.3151 12.2672 32.8423C12.7416 32.8423 13.2329 32.8423 13.5379 32.1902C13.7518 32.5739 13.9359 32.9734 14.0885 33.385L14.474 32.7329C14.6214 33.3264 14.9563 33.8574 15.4297 34.2481C15.903 34.6388 16.4899 34.8686 17.1044 34.9039C16.4478 33.8731 17.2357 32.4679 15.643 30.9743C15.9358 30.7735 16.2107 30.5483 16.4648 30.3011C14.5121 30.5283 12.4705 28.9926 13.3981 28.2648C14.0038 27.7894 14.2664 28.7781 15.2025 28.6098L14.8383 28.2984C14.9653 28.1722 15.1136 28.0081 15.2618 27.8777C14.9641 27.8279 14.6774 27.7268 14.4147 27.579L14.6519 27.1919C12.3646 27.1919 12.3053 25.4501 13.2329 25.3828C13.6565 25.3491 14.2326 26.1485 15.643 25.9844C15.4863 25.7445 15.3717 25.4799 15.3042 25.2019C15.6668 25.2027 16.0267 25.14 16.3674 25.0168C15.6812 24.9284 15.5202 24.7012 14.9314 24.2679L15.5965 24.0238C14.6773 23.5484 14.7239 22.7112 14.6773 21.8445C15.1814 22.1348 15.7744 22.5808 16.4097 22.3704C16.5622 22.3199 16.6554 22.2526 16.6596 22.0969C15.7532 21.7435 15.1771 20.3593 17.3416 19.1981H17.3585ZM15.6896 19.3327C14.4825 20.616 15.0035 21.3859 15.2661 21.6215C14.8171 21.5247 14.1436 20.9567 14.2961 20.4056C14.1521 20.5781 14.0081 20.759 13.8725 20.9525C13.5718 21.348 13.3049 21.7393 13.0677 22.118C12.7035 23.1992 13.3727 24.3184 14.5163 24.8148C14.02 24.7443 13.5643 24.5033 13.2284 24.1335C12.8925 23.7638 12.6978 23.2887 12.6781 22.7911C12.1321 23.7179 11.8332 24.7678 11.8097 25.8414C11.8206 26.1471 11.8489 26.4519 11.8944 26.7544C12.1867 27.3055 12.6569 27.5075 13.4913 27.5958C12.7331 27.6421 12.3307 27.5958 12.0003 27.2635C12.5171 29.4681 14.9314 31.3824 15.9184 33.019C14.9357 31.7568 12.8941 29.8551 12.1782 28.4836C12.1264 29.3784 12.372 30.2653 12.8771 31.0079C11.9622 30.116 11.8944 28.7654 11.9537 27.9745C11.7049 27.3599 11.57 26.7056 11.5556 26.0433C11.5336 25.4527 11.5777 24.8615 11.6869 24.2805C11.1108 25.0967 10.2764 25.408 9.86554 26.6492C9.94602 25.0504 11.1363 25.0252 12.0469 23.0814C12.4343 22.2306 12.9083 21.4213 13.4617 20.6664C12.6526 20.8694 11.9291 21.3216 11.3946 21.9581C11.9792 20.5823 15.3593 19.0382 16.9011 17.5446C16.4351 17.6414 14.5375 17.6919 13.7497 17.166C15.1771 17.5489 18.3581 17.1113 19.5568 16.2951C18.7097 17.4773 16.9265 17.5573 14.7281 19.9007C15.0381 19.6666 15.3717 19.465 15.7235 19.2991" fill="white"/>
<path d="M38.7403 26.5231C38.6749 26.0221 38.5498 25.5306 38.3676 25.059C38.0932 24.5784 37.7695 24.1272 37.4019 23.7126C37.5332 23.7126 38.9902 24.0366 39.3164 23.8851C36.7962 22.3495 37.3637 20.3973 33.5262 18.6555C34.5343 17.9108 35.5636 17.3176 34.8266 15.8997C33.7761 17.1619 31.7726 16.7412 30.6967 16.1395C31.7641 15.9292 33.1365 14.9909 33.4669 13.956C33.0433 13.8928 32.5435 14.3262 32.2428 14.5281C32.0988 14.1453 32.0437 13.6867 31.5778 13.6025C32.2047 14.932 30.9678 15.622 29.7903 15.6262C29.6082 15.6262 28.85 15.5505 28.85 15.5505C28.9728 15.3023 29.4641 14.6249 29.1041 14.3514C28.8161 14.6207 28.4772 14.8353 28.1638 15.0709C25.8765 16.8295 29.2524 18.4577 30.6332 19.1982C32.7976 20.3594 32.2216 21.7226 31.3152 22.097C31.3152 22.2527 31.4168 22.32 31.5651 22.3705C32.1962 22.5809 32.7892 22.1307 33.2932 21.8446C33.2636 22.7113 33.3229 23.5275 32.3614 24.024L33.0264 24.268C32.4546 24.6887 32.2809 24.9285 31.5947 25.0169C31.9355 25.1399 32.2953 25.2025 32.6579 25.202C32.5883 25.4794 32.4739 25.7437 32.319 25.9846C33.7295 26.1528 34.2971 25.3535 34.7291 25.3829C35.6567 25.4502 35.6017 27.192 33.3102 27.192L33.5474 27.5791C33.2848 27.7272 32.998 27.8283 32.7002 27.8778C32.8527 27.9998 33.001 28.1639 33.1238 28.2986L32.7595 28.6099C33.6914 28.7782 33.9582 27.7684 34.5639 28.2649C35.4873 28.9928 33.4499 30.5284 31.4973 30.3012C31.7516 30.5482 32.0265 30.7734 32.319 30.9744C30.7264 32.468 31.51 33.8774 30.8577 34.9082C31.4721 34.8707 32.0584 34.6396 32.5315 34.2484C33.0045 33.8572 33.3396 33.3264 33.4881 32.733L33.8735 33.3851C34.0269 32.9738 34.211 32.5744 34.4242 32.1903C34.7334 32.8298 35.2289 32.8424 35.6949 32.8424C35.589 31.3152 37.5162 29.7795 36.6691 28.0377C36.6257 27.9548 36.5991 27.8643 36.5909 27.7712C36.5827 27.6781 36.5931 27.5844 36.6214 27.4953C36.6498 27.4062 36.6955 27.3235 36.756 27.252C36.8165 27.1805 36.8906 27.1215 36.9741 27.0784C38.2702 26.4263 37.6687 29.1358 38.9648 29.2199C38.7848 28.9059 38.6575 28.5649 38.5879 28.2102C38.8632 28.2817 39.5197 28.6982 39.8162 28.1639C39.5144 27.9982 39.2574 27.7624 39.0671 27.4767C38.8768 27.191 38.7589 26.8638 38.7234 26.5231H38.7403ZM36.3006 24.3101C36.4111 24.8909 36.4551 25.4823 36.4319 26.0729C36.4162 26.7351 36.2814 27.3891 36.0337 28.004C36.093 28.795 36.0337 30.1455 35.1103 31.0375C35.6144 30.2943 35.8598 29.4078 35.8092 28.5131C35.0934 29.8847 33.056 31.778 32.0691 33.0486C33.056 31.4119 35.4577 29.5018 35.9871 27.293C35.6525 27.638 35.2544 27.6717 34.4962 27.6254C35.3433 27.5244 35.7965 27.3225 36.0888 26.7839C36.1347 26.4815 36.163 26.1766 36.1735 25.871C36.1488 24.797 35.8484 23.7471 35.3009 22.8207C35.2812 23.3183 35.0865 23.7933 34.7506 24.1631C34.4147 24.5328 33.959 24.7739 33.4627 24.8444C34.6021 24.3479 35.2755 23.2288 34.9113 22.1475C34.6741 21.7689 34.4072 21.3818 34.1065 20.9821C33.9582 20.7928 33.81 20.6077 33.6829 20.4352C33.8354 20.9863 33.1662 21.5543 32.7129 21.6511C32.9586 21.4155 33.4796 20.6455 32.2894 19.3623C32.6414 19.5277 32.975 19.7294 33.2848 19.9639C31.0907 17.6079 29.2862 17.5448 28.4561 16.3583C29.659 17.1745 32.8358 17.6205 34.2632 17.2292C33.4754 17.7509 31.5735 17.7046 31.1118 17.6079C32.6579 19.1014 36.0464 20.6497 36.6183 22.0213C36.0838 21.3848 35.3602 20.9327 34.5512 20.7297C35.1051 21.4842 35.5792 22.2935 35.966 23.1446C36.8682 25.0842 38.0838 25.1094 38.1516 26.7124C37.728 25.4502 36.9063 25.1557 36.3302 24.3437" fill="white"/>
<path d="M25.762 21.5166C25.5536 21.7845 25.2849 22.0002 24.9774 22.1463C24.67 22.2924 24.3323 22.365 23.9915 22.3581C23.8222 22.3576 23.6534 22.3407 23.4875 22.3076C23.5385 22.5413 23.6686 22.7506 23.856 22.9008C23.8227 23.0379 23.8172 23.1801 23.8398 23.3193C23.8623 23.4585 23.9125 23.5919 23.9874 23.7116C24.0622 23.8314 24.1603 23.9352 24.2759 24.017C24.3915 24.0989 24.5223 24.157 24.6608 24.1882C24.6905 24.3351 24.7592 24.4714 24.8597 24.5831C24.9602 24.6948 25.089 24.7778 25.2326 24.8235L24.809 25.3326C24.7399 25.4159 24.6512 25.481 24.5507 25.5221C24.4502 25.5632 24.3411 25.579 24.2329 25.5682L22.2464 25.3452C22.3311 25.1264 22.1024 24.874 21.4755 24.9834L22.2549 22.8124L21.7593 21.8111L20.8571 22.5768L20.7893 24.853L20.3996 24.6636C19.8998 24.4491 19.7516 25.3536 20.2302 25.3578H20.4208C20.4102 25.4013 20.4134 25.4469 20.4301 25.4884C20.4468 25.5298 20.4761 25.5651 20.514 25.5892C20.4902 25.6023 20.4703 25.6215 20.4565 25.6448C20.4426 25.6682 20.4353 25.6947 20.4353 25.7218C20.4353 25.7488 20.4426 25.7754 20.4565 25.7987C20.4703 25.822 20.4902 25.8412 20.514 25.8543C20.4886 25.8689 20.467 25.8892 20.4508 25.9134C20.4345 25.9377 20.4242 25.9654 20.4205 25.9943C20.4168 26.0232 20.4199 26.0526 20.4295 26.0801C20.4391 26.1076 20.455 26.1326 20.4759 26.153C20.4419 26.2075 20.421 26.269 20.4146 26.3328C20.4082 26.3965 20.4166 26.4609 20.439 26.521C20.4615 26.581 20.4975 26.6352 20.5443 26.6793C20.591 26.7235 20.6473 26.7564 20.7088 26.7757C20.9969 26.8514 21.1748 26.5443 21.2341 26.355L24.3261 27.3058C24.5174 27.3734 24.7242 27.3848 24.9218 27.3385C25.1195 27.2923 25.2994 27.1903 25.4401 27.045L26.2449 26.3423C26.1828 26.5332 26.1913 26.7398 26.269 26.9249C26.3466 27.1101 26.4883 27.2615 26.6685 27.3521C26.6406 27.5486 26.6293 27.747 26.6346 27.9453H29.4174V22.8966C29.4328 22.4237 29.5347 21.9575 29.7182 21.5208H25.7705L25.762 21.5166Z" fill="white"/>
<path d="M21.1314 30.0153L21.1907 30.0911C21.2755 30.192 21.3221 30.171 21.4195 30.1163L21.5593 30.0406C21.6482 29.9732 22.2243 30.192 22.2539 29.7166C22.3174 30.07 21.8939 30.8189 22.148 31.2354L22.4911 31.7992H21.3644C21.3176 31.7988 21.2717 31.8122 21.2325 31.8376C21.1933 31.8631 21.1625 31.8995 21.1442 31.9423L20.8477 32.5481C20.8143 32.6143 20.799 32.688 20.8035 32.7619C20.808 32.8357 20.832 32.9071 20.8731 32.9688L21.0721 33.1918C21.1704 33.1052 21.2448 32.9952 21.2882 32.8721L21.1992 32.7837C21.1668 32.7573 21.1454 32.7199 21.1391 32.6787C21.1329 32.6375 21.1422 32.5955 21.1653 32.5607L21.3475 32.1863C21.3558 32.1559 21.3706 32.1278 21.3908 32.1036C21.4111 32.0795 21.4363 32.06 21.4649 32.0464C21.4934 32.0328 21.5246 32.0255 21.5562 32.025C21.5878 32.0244 21.6192 32.0306 21.6482 32.0432L22.5589 32.2368C22.6267 32.2368 22.7325 32.2872 22.8003 32.1737C22.8506 32.0895 22.9289 32.0253 23.0217 31.9923C23.1145 31.9593 23.2159 31.9594 23.3086 31.9927C23.8084 32.0685 24.9648 32.1863 25.3756 31.7066C25.8585 32.3462 26.8031 32.3462 26.7438 32.6785L26.5362 33.8103H26.8369L27.0191 32.6911C27.0191 32.5607 27.1207 32.3798 26.9767 32.2704C26.9174 32.2241 26.892 32.2031 26.7607 31.9759C26.587 31.6772 26.5997 31.2312 26.4303 30.8442C26.4812 30.7678 26.5526 30.7072 26.6365 30.6692C26.7204 30.6313 26.8133 30.6175 26.9047 30.6296C27.2393 30.7095 27.3283 31.2817 27.8027 31.7487C27.7677 31.5309 27.7036 31.3186 27.6121 31.1176C27.8 31.259 27.9463 31.4479 28.0356 31.6646C28.0457 31.7511 28.0758 31.834 28.1236 31.907C28.1714 31.98 28.2355 32.041 28.311 32.0853C28.4211 32.1274 28.5566 32.0853 28.6879 31.9128C28.6879 31.9128 28.3745 31.4921 28.1458 31.1849C28.0099 30.9616 27.8195 30.7759 27.5922 30.645C27.3649 30.5141 27.1081 30.4423 26.8454 30.436C26.661 30.4621 26.4845 30.5282 26.3287 30.6296C25.6806 30.2678 25.1765 30.6296 24.9775 30.6296L23.7661 30.5581C23.5925 30.5191 23.4407 30.4151 23.3425 30.2678C23.3522 29.9348 23.2432 29.6091 23.0347 29.3482C22.8263 29.0872 22.5317 28.9078 22.2031 28.8415C22.2031 28.8415 22.2285 28.6564 22.1565 28.5933L21.9023 28.9088L21.1992 28.6522L21.7499 29.1023L21.1526 29.805C21.1281 29.8304 21.1128 29.8632 21.109 29.8982C21.1051 29.9331 21.113 29.9684 21.1314 29.9985" fill="white"/>
<path d="M20.3373 31.4451C20.1679 31.5755 20.1763 31.7564 20.278 31.9624L20.3796 32.1517L20.6465 31.9498L20.5872 31.8194C20.5626 31.7815 20.5525 31.736 20.5587 31.6913C20.5649 31.6465 20.5871 31.6055 20.6211 31.5755L21.0023 31.2895C21.0352 31.2575 21.0759 31.2344 21.1204 31.2226C21.165 31.2108 21.2118 31.2107 21.2564 31.2222L22.057 31.3905C21.9846 31.282 21.9303 31.1627 21.896 31.0372L21.1421 30.9404C21.0928 30.9367 21.0434 30.9438 20.9973 30.9612C20.9511 30.9787 20.9094 31.006 20.8752 31.0414L20.3373 31.4451Z" fill="white"/>
<path d="M25.4648 33.8095H25.7656L26.2527 32.6193C26.2704 32.5872 26.2902 32.5563 26.312 32.5268C26.1287 32.4575 25.9516 32.3731 25.7825 32.2744C25.9054 32.4384 25.9985 32.5057 25.9477 32.6571L25.4648 33.8095Z" fill="white"/>
<path d="M25.7199 17.7084L26.279 14.5024L24.1611 15.2219V18.5288L25.7199 17.7084ZM24.5127 15.5458L25.9274 15.0284C25.9274 15.0284 25.6521 15.2513 25.326 15.4743C25.0685 15.6366 24.7979 15.7773 24.5169 15.895L24.5127 15.5458ZM24.5127 16.32L25.7834 15.8614C25.6353 16.0054 25.4736 16.135 25.3005 16.2485C25.0427 16.4101 24.7722 16.5508 24.4915 16.6692L24.5127 16.32ZM24.5127 17.1614L25.6479 16.7407C25.6479 16.7407 25.6479 16.8796 25.3217 17.0983C25.0642 17.2605 24.7936 17.4012 24.5127 17.5191V17.1614Z" fill="white"/>
<path d="M21.9327 20.5486L21.9793 20.6243H22.4029V20.7001C22.4098 20.7759 22.4254 20.8507 22.4495 20.9231C22.5296 21.1587 22.6767 21.3662 22.873 21.5205C23.1864 21.7606 23.5746 21.8841 23.9701 21.8697C25.0163 21.8697 25.4907 21.1965 25.5373 20.7001V20.6243H25.9609L26.0075 20.5486C26.431 19.9049 26.9266 19.1939 27.5111 19.0887L25.91 18.1673L23.9955 19.2233L22.0344 18.1631L20.4375 19.0845C21.022 19.1855 21.5261 19.9007 21.9412 20.5444" fill="white"/>
<path d="M23.8259 18.5249V15.218L21.708 14.4985L22.2671 17.7045L23.8259 18.5249ZM23.4701 17.4857C23.1893 17.3676 22.9187 17.2269 22.661 17.065C22.3307 16.842 22.3307 16.7031 22.3307 16.7031L23.4701 17.1239V17.4857ZM23.4701 15.5419V15.8827C23.1891 15.765 22.9185 15.6243 22.661 15.462C22.3307 15.239 22.0553 15.016 22.0553 15.016L23.4701 15.5419ZM23.4701 16.3161V16.6569C23.1893 16.5389 22.9187 16.3981 22.661 16.2361C22.4878 16.123 22.3261 15.9934 22.1782 15.8491L23.4701 16.3161Z" fill="white"/>
<path d="M23.9963 13.085C22.7807 13.085 21.8784 13.4803 21.6709 13.9261L23.9963 14.8556L26.3175 13.9429C26.1184 13.4803 25.2119 13.1018 23.9963 13.1018" fill="white"/>
<path d="M23.996 11.7634C24.8348 11.7661 25.6594 11.9788 26.3935 12.3817C26.4795 12.0981 26.5959 11.8246 26.7408 11.5657L26.1901 11.6499L25.7666 10.7078L24.9194 11.1283L23.996 10.2451L23.0811 11.1452L22.234 10.7246L21.7977 11.6499L21.2471 11.5657C21.3914 11.8248 21.5079 12.0983 21.5944 12.3817C22.3298 11.9781 23.1558 11.7654 23.996 11.7634" fill="white"/>
<path d="M39.159 19.0298C39.4698 18.9928 39.7636 18.8688 40.0062 18.6723C39.3708 18.5041 38.0408 18.0288 36.9056 18.2518C36.5287 18.3022 36.3211 18.4536 36.4567 18.5377C37.271 19.1904 37.9208 20.0228 38.3542 20.9687C38.5181 20.7392 38.6204 20.4721 38.6515 20.1925C38.6826 19.9129 38.6416 19.63 38.5321 19.3705C39.4937 19.9467 39.7436 20.2117 40.1883 20.1149C39.8992 19.7098 39.5509 19.3497 39.1548 19.0467" fill="white"/>
<path d="M9.62344 20.9684C10.0627 20.0238 10.7184 19.1942 11.538 18.5459C11.6735 18.4618 11.4617 18.3104 11.089 18.2599C9.95382 18.0454 8.61958 18.5249 7.98422 18.6805C8.22703 18.8765 8.52069 19.0004 8.83136 19.038C8.43506 19.3408 8.08669 19.7009 7.79785 20.1062C8.24684 20.2156 8.49674 19.938 9.45401 19.3618C9.34695 19.6218 9.30714 19.9042 9.33821 20.1834C9.36929 20.4625 9.47026 20.7295 9.63191 20.96" fill="white"/>
<path fill-rule="evenodd" clip-rule="evenodd" d="M16.2786 31.0672C16.7022 30.718 17.0876 30.5455 17.0707 29.7041C16.4057 30.0406 14.5293 30.0238 13.7372 28.9467C13.5127 28.6396 13.7372 28.4882 13.9659 28.728C14.5039 29.3338 15.5035 29.0603 15.8635 28.8836C15.8041 28.654 15.6876 28.4428 15.5247 28.2694C15.6602 28.1347 16.0457 27.937 16.1261 27.5962C15.7924 27.4962 15.4487 27.4328 15.1011 27.4069C15.2049 27.3155 15.2787 27.1952 15.3127 27.0616C15.3467 26.928 15.3394 26.7874 15.2917 26.658C14.4742 26.9062 13.4704 26.5696 13.2374 26.2709C13.0044 25.9722 13.2374 25.6987 13.4322 25.8965C13.8558 26.3172 15.8424 26.8052 16.5878 26.069C16.3231 25.9963 16.0951 25.8283 15.9482 25.5978C16.6387 25.5304 17.1893 25.1265 17.219 24.6217C16.7598 24.6525 16.2995 24.5807 15.872 24.4113C16.0257 24.3789 16.1673 24.3047 16.281 24.197C16.3947 24.0893 16.476 23.9522 16.5158 23.8012C15.2451 23.7255 15.1562 22.7957 15.1477 22.64C15.9694 23.1113 17.418 22.9009 17.0411 21.7439C16.3591 21.706 15.6687 20.6079 17.5493 19.6024C19.2436 18.6852 21.2005 17.6923 21.0269 16.0641C20.9167 15.0207 19.1843 14.3096 18.9683 13.7795C18.2482 14.1203 18.1212 14.5158 18.4261 15.1805C18.4261 15.1805 16.8166 15.3404 16.6895 14.3391C16.6893 14.1151 16.7393 13.8939 16.8361 13.6916C16.9328 13.4892 17.0737 13.3109 17.2486 13.1695C17.0665 13.1695 15.8551 12.8455 15.4908 13.8258C14.8131 13.3672 14.2201 13.384 13.7753 13.8679C14.5039 14.2886 14.9571 15.7738 16.1643 16.2113C15.3171 16.6741 13.9193 16.4806 13.1061 15.0585C12.3394 16.2071 11.8989 17.3431 13.5297 18.5548C10.535 19.9095 10.5647 22.4928 7.95547 23.7255C8.21808 24.4281 8.77719 24.4281 9.48456 24.3187C8.35786 25.7703 9.31936 27.2933 7.53613 27.9118C7.70556 28.505 8.04018 28.9762 8.69671 28.8037C8.51034 29.094 8.38751 29.0856 8.09525 29.4053C9.06946 30.0154 10.2131 29.5736 10.4842 27.6172C10.5308 27.268 11.0136 27.4868 10.8485 27.8276C9.7387 30.108 12.5427 31.8245 11.5516 33.4948C12.4284 33.4569 13.0934 33.3896 13.4576 33.0993C13.6396 33.4146 13.7249 33.7758 13.7033 34.1385C13.8848 34.1219 14.0544 34.0417 14.1817 33.9122C14.309 33.7826 14.3857 33.6123 14.398 33.4317C14.7157 34.3489 15.8466 35.3334 17.6595 35.3334C16.7403 33.9871 17.6425 32.6029 16.2786 31.0672ZM14.4869 32.7501L14.1015 33.4022C13.9489 32.9906 13.7648 32.5911 13.5508 32.2074C13.2416 32.8469 12.746 32.8595 12.2801 32.8595C12.3775 31.3154 10.4418 29.7798 11.289 28.038C11.3324 27.9551 11.359 27.8646 11.3671 27.7715C11.3753 27.6784 11.3649 27.5847 11.3366 27.4956C11.3083 27.4065 11.2626 27.3238 11.2021 27.2523C11.1416 27.1808 11.0675 27.1218 10.984 27.0787C9.68787 26.4266 10.2893 29.1361 8.99322 29.2202C9.17157 28.9054 9.2988 28.5647 9.37019 28.2105C9.09487 28.282 8.43834 28.6985 8.14184 28.1642C8.44483 27.9999 8.70279 27.7645 8.89326 27.4785C9.08373 27.1925 9.20092 26.8646 9.23465 26.5234C9.29563 26.0228 9.41649 25.5313 9.59469 25.0592C9.86912 24.5797 10.1912 24.1287 10.5562 23.7129C10.4249 23.7129 8.97204 24.0369 8.64165 23.8854C11.1619 22.3497 10.5943 20.3976 14.4319 18.6558C13.4238 17.9111 12.3945 17.3178 13.1357 15.9C14.1862 17.1622 16.1854 16.7414 17.2655 16.1398C16.1981 15.9294 14.8258 14.9912 14.4996 13.9562C14.902 13.8931 15.423 14.3265 15.7238 14.5284C15.8678 14.1456 15.9271 13.687 16.393 13.6028C15.7703 14.9281 17.0029 15.6223 18.1762 15.6265C18.3584 15.6265 19.1208 15.5508 19.1208 15.5508C18.9979 15.3026 18.5066 14.6252 18.8624 14.3517C19.1504 14.621 19.4935 14.8355 19.807 15.0712C22.0942 16.8298 18.7184 18.458 17.3376 19.1985C15.1731 20.3597 15.7534 21.7439 16.6556 22.0973C16.6556 22.253 16.5539 22.3203 16.4057 22.3708C15.7746 22.5811 15.1773 22.131 14.6733 21.8449C14.7029 22.7116 14.6436 23.5278 15.6094 24.0242L14.9444 24.264C15.5162 24.6848 15.6899 24.9246 16.3803 25.0129C16.0395 25.1359 15.6797 25.1986 15.3171 25.1981C15.3846 25.4761 15.4992 25.7407 15.656 25.9806C14.2455 26.1489 13.6821 25.3495 13.2459 25.379C12.314 25.4463 12.3733 27.1881 14.6648 27.1881L14.4276 27.5752C14.6903 27.7231 14.977 27.8242 15.2748 27.8739C15.1223 27.9959 14.9783 28.16 14.8512 28.2946L15.2155 28.606C14.2794 28.7742 14.0168 27.7645 13.4111 28.261C12.4877 28.9888 14.525 30.5245 16.4777 30.2973C16.2234 30.5443 15.9485 30.7695 15.656 30.9704C17.2486 32.464 16.4608 33.8735 17.1173 34.9042C16.5033 34.8672 15.9172 34.6362 15.4448 34.2448C14.9723 33.8535 14.6382 33.3224 14.4912 32.7291" fill="#222220"/>
<path fill-rule="evenodd" clip-rule="evenodd" d="M11.9789 27.2804C12.3092 27.6254 12.7116 27.6591 13.4698 27.6128C12.6227 27.5118 12.1652 27.3099 11.873 26.7713C11.8292 26.4687 11.8023 26.1639 11.7925 25.8584C11.816 24.7848 12.1148 23.7349 12.6608 22.8081C12.6813 23.3055 12.8764 23.78 13.2121 24.1496C13.5478 24.5192 14.0031 24.7605 14.4991 24.8318C13.3555 24.3353 12.6862 23.2162 13.0505 22.1349C13.2877 21.7563 13.5588 21.3692 13.8553 20.9695C14.0078 20.7802 14.1518 20.5951 14.2788 20.4226C14.1264 20.9737 14.7956 21.5417 15.2446 21.6385C15.0032 21.4028 14.4779 20.6329 15.6682 19.3497C15.3179 19.5159 14.9857 19.7176 14.677 19.9513C16.8711 17.5953 18.6755 17.5322 19.5057 16.3457C18.3409 17.1451 15.1641 17.6037 13.7324 17.183C14.5203 17.7047 16.4221 17.6584 16.8838 17.5616C15.3335 19.0552 11.9534 20.6035 11.3774 21.975C11.9124 21.3371 12.6378 20.8848 13.4487 20.6834C12.8952 21.4383 12.4212 22.2475 12.0339 23.0984C11.136 25.0379 9.91607 25.0632 9.85254 26.6661C10.2761 25.425 11.0936 25.1095 11.6739 24.2975C11.565 24.8785 11.5209 25.4697 11.5426 26.0603C11.5573 26.7226 11.6922 27.3767 11.9407 27.9914C11.8814 28.7824 11.9407 30.1329 12.8641 31.0249C12.359 30.2822 12.1134 29.3953 12.1652 28.5005C12.8811 29.8721 14.9184 31.7654 15.9054 33.036C14.9184 31.3993 12.5168 29.4892 11.9873 27.2804" fill="#222220"/>
<path fill-rule="evenodd" clip-rule="evenodd" d="M34.5424 20.7005C35.3516 20.9032 36.0752 21.3554 36.6095 21.9921C36.0249 20.6163 32.6406 19.0722 31.1031 17.5787C31.569 17.6754 33.4666 17.7259 34.2544 17.2C32.827 17.5871 29.6502 17.1453 28.4473 16.3291C29.2944 17.5156 31.0819 17.5913 33.276 19.9347C32.9663 19.7002 32.6326 19.4985 32.2806 19.3331C33.4878 20.6163 32.9668 21.3862 32.7041 21.6219C33.1531 21.5251 33.8266 20.9571 33.6741 20.406C33.8181 20.5785 33.9664 20.7594 34.0977 20.9529C34.3984 21.3484 34.6653 21.7397 34.9025 22.1183C35.2668 23.1996 34.5933 24.3187 33.4539 24.8152C33.9494 24.7438 34.4042 24.5023 34.7392 24.1327C35.0742 23.763 35.2684 23.2885 35.2879 22.7915C35.8354 23.7179 36.1357 24.7678 36.1605 25.8418C36.1496 26.1474 36.1213 26.4522 36.0758 26.7547C35.7835 27.3059 35.3133 27.5078 34.4789 27.5962C35.2413 27.6425 35.6395 27.5962 35.9699 27.2638C35.4531 29.4684 33.0345 31.3827 32.0518 33.0194C33.0388 31.7572 35.0761 29.8555 35.792 28.4839C35.8432 29.3786 35.5977 30.2654 35.0931 31.0083C36.008 30.1163 36.0758 28.7658 36.0165 27.9706C36.2637 27.357 36.3986 26.7044 36.4146 26.0437C36.4379 25.453 36.3938 24.8617 36.2833 24.2809C36.8594 25.0971 37.6938 25.4084 38.1047 26.6495C38.0242 25.0508 36.834 25.0255 35.919 23.0818C35.5324 22.2306 35.0583 21.4213 34.5043 20.6668" fill="#222220"/>
<path fill-rule="evenodd" clip-rule="evenodd" d="M38.4558 24.3352C39.1632 24.4446 39.7265 24.4446 39.9849 23.742C37.3799 22.5092 37.4053 19.926 34.4107 18.5712C36.0541 17.3595 35.6136 16.2236 34.8343 15.075C34.0252 16.497 32.6317 16.6906 31.7761 16.2278C32.979 15.8071 33.4365 14.3135 34.165 13.8843C33.7372 13.3963 33.14 13.3963 32.4665 13.817C32.098 12.8367 30.8908 13.1607 30.7087 13.1607C30.8838 13.3019 31.0249 13.4802 31.1216 13.6826C31.2184 13.885 31.2683 14.1063 31.2678 14.3303C31.1407 15.3148 29.5354 15.1718 29.5354 15.1718C29.8615 14.507 29.7175 14.1115 28.9932 13.7707C28.773 14.3008 27.0448 15.0119 26.9347 16.0553C26.761 17.6877 28.7052 18.6764 30.4122 19.5936C32.2928 20.6033 31.6024 21.6972 30.9205 21.7351C30.5435 22.8963 31.9879 23.1025 32.8138 22.6313C32.8138 22.7869 32.7037 23.7167 31.4457 23.7925C31.4862 23.9427 31.5678 24.0788 31.6814 24.1858C31.7951 24.2927 31.9363 24.3663 32.0895 24.3983C31.662 24.5675 31.2017 24.6394 30.7426 24.6087C30.7892 25.1135 31.3398 25.5174 32.0133 25.5848C31.8676 25.8155 31.6414 25.9848 31.3779 26.0602C32.1234 26.7965 34.1269 26.3126 34.5335 25.8877C34.7199 25.6941 34.9571 25.9676 34.7241 26.2621C34.4912 26.5566 33.4873 26.9016 32.6698 26.6534C32.6252 26.7863 32.6224 26.9295 32.6618 27.0641C32.7011 27.1986 32.7807 27.318 32.8901 27.4065C32.5496 27.4337 32.213 27.4971 31.8862 27.5958C31.9625 27.9366 32.3521 28.1344 32.4877 28.269C32.3214 28.436 32.1991 28.6412 32.1319 28.8664C32.4962 29.0431 33.4958 29.3166 34.0295 28.7108C34.2455 28.4709 34.4827 28.6224 34.2624 28.9295C33.4746 30.0066 31.594 30.0234 30.9289 29.6869C30.9289 30.5283 31.2763 30.7008 31.721 31.05C30.3614 32.6067 31.2593 33.9951 30.2978 35.3498C32.1107 35.3498 33.2628 34.3695 33.5593 33.4482C33.5716 33.6288 33.6483 33.7991 33.7756 33.9286C33.9029 34.0581 34.0725 34.1384 34.254 34.155C34.2343 33.7924 34.3195 33.4318 34.4996 33.1158C34.8682 33.4103 35.5374 33.4776 36.4099 33.5113C35.4188 31.8284 38.2271 30.1244 37.1131 27.8441C36.9479 27.5033 37.4308 27.2845 37.4773 27.6337C37.74 29.5901 38.8921 30.0318 39.8705 29.4218C39.5783 29.102 39.4469 29.1105 39.269 28.8202C39.9256 28.9926 40.2602 28.5214 40.4296 27.9282C38.6506 27.3055 39.6079 25.7867 38.4812 24.3352H38.4558ZM38.6295 28.2185C38.6992 28.5731 38.8266 28.9142 39.0064 29.2283C37.7103 29.1441 38.3118 26.4346 37.0157 27.0868C36.8478 27.1723 36.7208 27.3201 36.6621 27.4982C36.6034 27.6762 36.6178 27.8701 36.7022 28.0376C37.5494 29.7794 35.6179 31.3151 35.728 32.8423C35.2494 32.8423 34.7538 32.8423 34.4573 32.1902C34.2439 32.5742 34.0599 32.9737 33.9066 33.385L33.5212 32.7329C33.3736 33.3259 33.0393 33.8567 32.5669 34.2479C32.0946 34.6391 31.5089 34.8704 30.8951 34.9081C31.5474 33.8773 30.7638 32.4721 32.3564 30.9743C32.0636 30.7736 31.7887 30.5484 31.5347 30.3011C33.4915 30.5283 35.5289 28.9927 34.6013 28.2648C33.9956 27.7894 33.7287 28.7781 32.7969 28.6098L33.1612 28.2984C33.0341 28.1722 32.8858 28.0081 32.7376 27.8777C33.0354 27.8282 33.3221 27.7271 33.5847 27.579L33.3475 27.1919C35.6348 27.1919 35.6941 25.4501 34.7665 25.3828C34.3429 25.3492 33.7669 26.1485 32.3564 25.9844C32.5114 25.7436 32.6259 25.4793 32.6952 25.2019C32.3327 25.2022 31.9729 25.1396 31.6321 25.0168C32.3225 24.9284 32.4792 24.7012 33.068 24.2679L32.403 24.0239C33.3687 23.5442 33.3052 22.7112 33.3348 21.8445C32.8308 22.1348 32.2335 22.5808 31.6067 22.3704C31.4542 22.3199 31.3567 22.2526 31.3567 22.0969C32.2632 21.7435 32.8392 20.3593 30.6748 19.1981C29.294 18.4576 25.9181 16.8294 28.2054 15.0708C28.5188 14.831 28.8577 14.6164 29.1457 14.3513C29.5057 14.6248 29.0144 15.3022 28.8916 15.5504C28.8916 15.5504 29.654 15.6261 29.8319 15.6261C31.0094 15.6261 32.2462 14.9277 31.6194 13.6024C32.0895 13.6992 32.1446 14.1452 32.2844 14.528C32.5851 14.3261 33.1061 13.8927 33.5085 13.9558C33.1823 14.995 31.8142 15.9291 30.7383 16.1394C31.8184 16.7242 33.8177 17.1576 34.8681 15.8996C35.6052 17.3175 34.5759 17.9107 33.5678 18.6554C37.4096 20.393 36.842 22.3452 39.358 23.885C39.0318 24.0365 37.5748 23.7336 37.4435 23.7125C37.8111 24.1271 38.1348 24.5783 38.4092 25.0588C38.5914 25.5305 38.7165 26.022 38.7819 26.523C38.8178 26.8636 38.9358 27.1907 39.1261 27.4763C39.3163 27.762 39.5732 27.9978 39.8748 28.1638C39.5783 28.6981 38.9217 28.2816 38.6464 28.2101" fill="#222220"/>
<path fill-rule="evenodd" clip-rule="evenodd" d="M20.3196 32.4847L20.866 32.0219L20.7813 31.8578C20.722 31.74 20.7517 31.7316 20.8152 31.6853L21.1032 31.4707C21.1344 31.4476 21.171 31.4328 21.2095 31.4276C21.2481 31.4225 21.2873 31.4272 21.3235 31.4412L22.1706 31.6432H21.2769C21.1983 31.6402 21.121 31.6634 21.0572 31.7091C20.9935 31.7549 20.9471 31.8206 20.9253 31.8956L20.8618 32.0219L20.6246 32.5015C20.5695 32.603 20.5485 32.7193 20.5645 32.8336C20.5805 32.9478 20.6327 33.054 20.7136 33.1368L20.8787 33.3345L20.5484 34.0119H20.8321L21.0651 33.5407C21.2596 33.3624 21.4054 33.138 21.4887 32.8886C21.3913 32.8086 21.3193 32.7497 21.3743 32.6403L21.4802 32.4173C21.5141 32.3416 21.5268 32.3122 21.6285 32.3332L22.5391 32.5267C22.6071 32.5615 22.6855 32.5705 22.7596 32.5519C22.8337 32.5333 22.8984 32.4884 22.9415 32.4258C23.0644 32.2364 23.0813 32.2575 23.3651 32.2869L23.831 32.3374C24.3552 32.4044 24.8872 32.3011 25.3474 32.0429C25.4321 32.2406 25.6058 32.3879 25.6863 32.5393C25.7159 32.594 25.6863 32.674 25.627 32.775L25.1229 34.0119H25.9277L26.3809 32.8801C26.4147 32.7919 26.4666 32.7117 26.5334 32.6445L26.275 34.0119H27.0544L27.2619 32.6572C27.3085 32.3584 27.262 32.2575 27.1349 32.1354C26.8087 31.862 26.8172 31.294 26.7113 30.9406C26.7703 30.907 26.8388 30.8937 26.9062 30.9027C27.0756 30.9027 27.2027 31.3487 27.406 31.6264C27.8041 32.1859 28.3505 32.8002 28.9774 31.9335C28.9178 31.8366 28.8498 31.7451 28.7741 31.66L28.6004 31.4581C28.4988 31.3445 28.0159 30.7975 27.8126 30.6166C27.6263 30.4323 27.383 30.3156 27.1218 30.285C26.8607 30.2545 26.5968 30.312 26.3725 30.4483C25.7371 30.116 25.0679 30.4483 24.9111 30.4483L23.8183 30.381C23.7822 30.3797 23.7469 30.3693 23.7159 30.351C23.6848 30.3326 23.6588 30.3068 23.6404 30.2758L23.8437 30.2085C23.6531 29.4218 23.1745 28.7654 22.3401 28.6518C22.3401 28.6518 22.2892 28.4036 22.1622 28.3573L21.9123 28.6476C21.8393 28.6577 21.7681 28.6775 21.7005 28.7065L20.6331 28.311L21.4548 29.1062C21.4548 29.1062 21.0312 29.691 20.8999 29.8046C20.8801 29.8242 20.8643 29.8474 20.8536 29.8731C20.8428 29.8987 20.8373 29.9262 20.8373 29.954C20.8373 29.9817 20.8428 30.0092 20.8536 30.0349C20.8643 30.0605 20.8801 30.0838 20.8999 30.1033L21.0566 30.3053C21.1371 30.4105 21.2261 30.4063 21.3531 30.3389L21.5268 30.2464C21.603 30.1833 21.8614 30.3095 21.9504 30.2085C21.9048 30.4159 21.8807 30.6274 21.8784 30.8396L21.1583 30.7555C21.1025 30.7416 21.0441 30.7413 20.9881 30.7544C20.9321 30.7676 20.88 30.7939 20.8364 30.8312L20.2222 31.2982C20.1222 31.3756 20.0532 31.4859 20.0276 31.6092C20.002 31.7326 20.0214 31.861 20.0824 31.9714L20.3196 32.4847ZM26.2496 32.6193L25.7625 33.8099H25.4618L25.9489 32.6572C25.9997 32.5099 25.9023 32.4384 25.7837 32.2743C25.9526 32.3732 26.1298 32.4577 26.3132 32.5267C26.2914 32.5563 26.2716 32.5872 26.2539 32.6193H26.2496ZM21.5607 30.036L21.4209 30.1075C21.3235 30.1622 21.2769 30.1875 21.1922 30.0823L21.1329 30.0066C21.1145 29.9765 21.1066 29.9412 21.1104 29.9062C21.1142 29.8712 21.1296 29.8385 21.1541 29.813L21.7513 29.123L21.2007 28.6729L21.8995 28.9295L22.1579 28.6098C22.2342 28.6729 22.2088 28.858 22.2088 28.858C22.5374 28.9243 22.8319 29.1037 23.0404 29.3646C23.2489 29.6256 23.3579 29.9513 23.3482 30.2842C23.4469 30.4303 23.5987 30.5329 23.7717 30.5703L24.9874 30.6419C25.1907 30.6419 25.6905 30.259 26.3386 30.6419C26.4948 30.5404 26.6709 30.473 26.8553 30.4441C27.1178 30.4511 27.3743 30.5233 27.6015 30.6541C27.8287 30.7849 28.0192 30.9702 28.1557 31.193C28.3844 31.4791 28.6979 31.9209 28.6979 31.9209C28.5623 32.0808 28.431 32.1312 28.3209 32.0934C28.2454 32.0491 28.1813 31.9881 28.1335 31.9151C28.0857 31.8421 28.0556 31.7591 28.0456 31.6726C27.956 31.4561 27.8098 31.2672 27.622 31.1257C27.713 31.3269 27.7771 31.5391 27.8126 31.7568C27.3382 31.2898 27.2492 30.7218 26.9146 30.6419C26.823 30.6281 26.7292 30.6405 26.6444 30.6778C26.5597 30.715 26.4873 30.7756 26.436 30.8522C26.6054 31.2393 26.5927 31.6937 26.7664 31.984C26.8977 32.207 26.9231 32.228 26.9824 32.2785C27.1222 32.3795 27.0417 32.5562 27.0205 32.6992L26.8384 33.8184H26.5376L26.7367 32.7203C26.796 32.3879 25.8557 32.3879 25.3686 31.7484C24.945 32.228 23.8014 32.106 23.3016 32.0345C23.2089 32.0012 23.1074 32.001 23.0146 32.0341C22.9219 32.0671 22.8436 32.1312 22.7933 32.2154C22.7297 32.3248 22.6196 32.2911 22.5518 32.2785L21.6412 32.085C21.6125 32.0723 21.5814 32.0659 21.5499 32.0662C21.5185 32.0665 21.4876 32.0734 21.4591 32.0866C21.4306 32.0997 21.4053 32.1188 21.3848 32.1424C21.3643 32.1661 21.3492 32.1938 21.3404 32.2238L21.1583 32.5982C21.1361 32.6333 21.1273 32.6751 21.1335 32.716C21.1397 32.7569 21.1605 32.7943 21.1922 32.8212L21.2769 32.9138C21.2334 33.0357 21.159 33.1443 21.0609 33.2293L20.8618 33.0064C20.8176 32.9459 20.7917 32.8742 20.7872 32.7997C20.7827 32.7251 20.7998 32.6509 20.8364 32.5856L21.1329 31.9756C21.1513 31.9328 21.182 31.8964 21.2212 31.8709C21.2604 31.8455 21.3063 31.8321 21.3531 31.8325H22.4798L22.1367 31.273C21.8784 30.8522 22.3062 30.1075 22.2426 29.7541C22.2088 30.2253 21.6327 30.0108 21.5437 30.0739L21.5607 30.036ZM20.3366 31.4455L20.8703 31.0247C20.9041 30.9886 20.9456 30.9605 20.9918 30.9423C21.0379 30.9241 21.0876 30.9163 21.1371 30.9195L21.8911 31.0163C21.9253 31.1419 21.9797 31.2612 22.052 31.3697L21.2515 31.2014C21.2068 31.1907 21.1602 31.1912 21.1158 31.203C21.0714 31.2148 21.0307 31.2374 20.9973 31.2687L20.6161 31.5548C20.5813 31.5843 20.5586 31.6254 20.5524 31.6704C20.5461 31.7154 20.5568 31.7611 20.5822 31.7989L20.6415 31.9293L20.3747 32.127L20.273 31.9377C20.1714 31.7358 20.1629 31.5506 20.3323 31.4202" fill="#222220"/>
<path fill-rule="evenodd" clip-rule="evenodd" d="M22.6566 17.0736C22.9142 17.2354 23.1848 17.3761 23.4656 17.4942V17.1535L22.3262 16.7329C22.3262 16.7329 22.3262 16.8717 22.6566 17.0946" fill="#222220"/>
<path fill-rule="evenodd" clip-rule="evenodd" d="M23.466 16.6609V16.3203L22.1953 15.8618C22.343 16.0063 22.5048 16.1359 22.6782 16.2488C22.936 16.4104 23.2065 16.5511 23.4872 16.6693" fill="#222220"/>
<path fill-rule="evenodd" clip-rule="evenodd" d="M23.4655 15.8866V15.5417L22.0508 15.0244C22.0508 15.0244 22.3261 15.2473 22.6565 15.4702C22.914 15.6324 23.1846 15.7731 23.4655 15.8908" fill="#222220"/>
<path fill-rule="evenodd" clip-rule="evenodd" d="M27.4395 20.5487H28.8881C28.8344 20.4103 28.7355 20.2937 28.6074 20.2174C28.4792 20.1412 28.329 20.1098 28.1807 20.1282C28.0301 20.1236 27.8812 20.1605 27.7504 20.2347C27.6196 20.309 27.512 20.4176 27.4395 20.5487" fill="#222220"/>
<path fill-rule="evenodd" clip-rule="evenodd" d="M25.9264 15.0245L24.5117 15.5418V15.8825C24.7927 15.7648 25.0633 15.6241 25.3207 15.4619C25.6511 15.239 25.9222 15.0161 25.9222 15.0161" fill="#222220"/>
<path fill-rule="evenodd" clip-rule="evenodd" d="M25.6511 16.7115L24.5117 17.132V17.4727C24.7925 17.3546 25.063 17.2139 25.3207 17.0521C25.6511 16.8292 25.6511 16.6904 25.6511 16.6904" fill="#222220"/>
<path fill-rule="evenodd" clip-rule="evenodd" d="M25.8088 15.8619L24.5381 16.3204V16.661C24.8189 16.5431 25.0895 16.4024 25.3471 16.2404C25.5203 16.1273 25.682 15.9977 25.83 15.8535" fill="#222220"/>
<path fill-rule="evenodd" clip-rule="evenodd" d="M19.7972 20.1282C19.6489 20.1098 19.4987 20.1412 19.3706 20.2174C19.2424 20.2937 19.1435 20.4103 19.0898 20.5487H20.5385C20.4659 20.4176 20.3583 20.309 20.2275 20.2347C20.0967 20.1605 19.9478 20.1236 19.7972 20.1282" fill="#222220"/>
<path fill-rule="evenodd" clip-rule="evenodd" d="M26.8633 14.1076C26.8633 13.2998 25.4952 12.5762 23.9873 12.5762C22.4794 12.5762 21.1112 13.2998 21.1112 14.1076L21.1409 14.3054L21.7423 17.7385L18.9129 19.3877C18.7124 19.5177 18.542 19.6884 18.4127 19.8885C18.2835 20.0887 18.1985 20.3138 18.1632 20.549H18.6842C18.7211 20.2624 18.8655 20.0001 19.0884 19.8145C19.3114 19.6289 19.5966 19.5336 19.8871 19.5476C20.5436 19.5813 20.9333 19.9684 21.323 20.549L21.4204 20.7004L21.5644 20.9234H17.3711C17.7227 21.526 17.9286 22.2015 17.9726 22.8966V31.5468C17.9726 33.7724 19.6965 34.8369 21.5602 34.8369C23.0003 34.8369 23.1952 34.7738 23.9915 35.5605C24.7836 34.7695 24.9784 34.8369 26.4228 34.8369C28.2865 34.8369 30.0104 33.7766 30.0104 31.5468V22.8882C30.0542 22.1931 30.2602 21.5175 30.6119 20.915H26.4186L26.5626 20.692L26.6642 20.5405C27.0497 19.9726 27.4394 19.5729 28.1001 19.5392C28.3906 19.5276 28.6747 19.6251 28.8961 19.8122C29.1174 19.9993 29.2597 20.2623 29.2946 20.549H29.8114C29.7781 20.3152 29.6956 20.091 29.5694 19.8909C29.4431 19.6908 29.2759 19.5194 29.0786 19.3877L26.2279 17.7385L26.8294 14.3054L26.8633 14.1076ZM21.6957 14.5031L23.8136 15.2225V18.5295L22.2464 17.709L21.6957 14.5031ZM22.221 21.5166C22.5347 21.9199 22.9871 22.194 23.4917 22.2866C23.5444 22.5208 23.674 22.731 23.8602 22.884C23.8269 23.0211 23.8214 23.1633 23.844 23.3025C23.8666 23.4417 23.9167 23.5751 23.9916 23.6948C24.0665 23.8146 24.1646 23.9184 24.2802 24.0002C24.3957 24.082 24.5266 24.1402 24.665 24.1714C24.6944 24.3178 24.7624 24.4538 24.8621 24.5654C24.9619 24.6771 25.0897 24.7603 25.2326 24.8067L24.809 25.3158C24.7401 25.3994 24.6514 25.4647 24.5509 25.5058C24.4503 25.5469 24.3411 25.5626 24.2329 25.5514L22.2464 25.3284C22.3311 25.1096 22.1024 24.8572 21.4755 24.9666L22.2549 22.7956L21.7635 21.8111L20.8613 22.5769L20.7935 24.853L20.4081 24.6637C19.904 24.4491 19.7558 25.3537 20.2344 25.3579H20.425C20.4149 25.4002 20.418 25.4447 20.4339 25.4852C20.4498 25.5258 20.4777 25.5606 20.514 25.5851C20.4912 25.599 20.4724 25.6185 20.4594 25.6417C20.4463 25.6649 20.4395 25.691 20.4395 25.7176C20.4395 25.7442 20.4463 25.7703 20.4594 25.7935C20.4724 25.8167 20.4912 25.8362 20.514 25.8501C20.4879 25.8641 20.4656 25.8841 20.4488 25.9084C20.432 25.9326 20.4213 25.9605 20.4176 25.9897C20.4139 26.019 20.4172 26.0486 20.4274 26.0763C20.4375 26.104 20.4541 26.1288 20.4759 26.1488C20.4419 26.2033 20.421 26.2648 20.4146 26.3286C20.4082 26.3923 20.4165 26.4567 20.439 26.5168C20.4615 26.5768 20.4975 26.631 20.5442 26.6752C20.591 26.7193 20.6473 26.7523 20.7088 26.7715C20.9926 26.8472 21.1705 26.5401 21.2298 26.3508L24.3219 27.3016C24.5131 27.3698 24.7201 27.3814 24.9178 27.3351C25.1155 27.2888 25.2955 27.1866 25.4359 27.0408L26.2407 26.3382C26.1785 26.529 26.1871 26.7356 26.2647 26.9207C26.3424 27.1059 26.4841 27.2574 26.6642 27.3479C26.6388 27.546 26.6275 27.7457 26.6303 27.9453H18.5825V22.8966C18.565 22.424 18.4632 21.9581 18.2818 21.5208L22.221 21.5166ZM25.546 23.4309C25.4623 23.5918 25.4226 23.7716 25.4308 23.9525C25.4389 24.1334 25.4947 24.309 25.5926 24.4617L25.4613 24.5921C24.881 24.5206 24.6523 23.6623 24.6523 23.6623C24.6458 23.7393 24.6458 23.8167 24.6523 23.8937C24.4811 23.8333 24.3354 23.7175 24.2386 23.5649C24.1418 23.4122 24.0995 23.2317 24.1186 23.0523C24.2504 23.1247 24.3936 23.1745 24.5421 23.1995L24.5803 22.9471C24.4109 22.9256 24.2515 22.8557 24.1214 22.7459C23.9913 22.6361 23.8962 22.4912 23.8475 22.3286H23.7924H24.0084C24.2336 22.3274 24.4574 22.2948 24.6734 22.2319C24.7662 22.3496 24.8818 22.4476 25.0136 22.5199C25.1453 22.5922 25.2904 22.6373 25.4401 22.6526C25.3953 22.9071 25.4323 23.1691 25.546 23.4015V23.4309ZM26.3931 25.6734C26.3331 25.7535 26.2873 25.8431 26.2576 25.9385L25.9357 26.233C25.9487 25.9954 25.9066 25.758 25.8126 25.5392C25.7186 25.3203 25.5752 25.1259 25.3935 24.9708L25.7366 24.6342L25.8044 24.7015C25.7786 24.803 25.7734 24.9085 25.7891 25.0119C25.8048 25.1154 25.8412 25.2146 25.896 25.304C25.9508 25.3933 26.023 25.4709 26.1084 25.5321C26.1937 25.5934 26.2906 25.6371 26.3931 25.6608V25.6734ZM24.8429 25.5556L25.1097 25.2948C25.2936 25.4468 25.4369 25.6415 25.527 25.8617C25.6171 26.0818 25.6513 26.3206 25.6265 26.5569L25.3342 26.822C25.2776 26.8751 25.215 26.9217 25.1478 26.9608C25.2134 26.7194 25.2199 26.4659 25.1669 26.2215C25.1138 25.9771 25.0027 25.7488 24.8429 25.5556V25.5556ZM24.2711 25.7744C24.3705 25.7866 24.4715 25.7721 24.5633 25.7323C24.6933 25.9304 24.7721 26.1573 24.7928 26.3928C24.8135 26.6284 24.7754 26.8654 24.6819 27.0829C24.547 27.0827 24.4129 27.0629 24.2838 27.024L24.1821 26.9945C24.3587 26.6099 24.3873 26.1743 24.2626 25.7702L24.2711 25.7744ZM23.5891 25.686L23.9661 25.7323C24.0346 26.1242 23.9721 26.5276 23.7882 26.8809L23.3646 26.7547C23.5542 26.4318 23.6371 26.0581 23.6018 25.686H23.5891ZM22.814 25.5977L23.2672 25.6524C23.3014 26.0079 23.2276 26.3655 23.0554 26.679L22.5937 26.5443C22.7722 26.2624 22.8498 25.9289 22.814 25.5977V25.5977ZM20.9714 25.4757C20.9375 25.4921 20.8998 25.4991 20.8622 25.4958C20.8246 25.4925 20.7887 25.4791 20.7582 25.457C20.7277 25.435 20.7038 25.4051 20.6892 25.3706C20.6745 25.336 20.6696 25.2982 20.6749 25.2611C20.7865 25.2017 20.9119 25.1727 21.0384 25.1772C21.1649 25.1816 21.288 25.2193 21.395 25.2863C21.5051 25.3579 21.5983 25.5556 21.7508 25.6776C21.7222 25.8736 21.6754 26.0666 21.611 26.254C21.5305 26.2499 21.4529 26.223 21.3872 26.1765C21.3216 26.13 21.2707 26.0659 21.2404 25.9917C21.2102 25.9175 21.2019 25.8362 21.2165 25.7575C21.2311 25.6788 21.2681 25.6058 21.323 25.5472C21.282 25.4952 21.224 25.4591 21.1589 25.4452C21.0939 25.4314 21.026 25.4407 20.9672 25.4715L20.9714 25.4757ZM20.6707 26.3129C20.7632 26.3474 20.8602 26.3686 20.9587 26.376C20.9568 26.3989 20.95 26.421 20.9389 26.4411C20.9278 26.4612 20.9125 26.4787 20.8942 26.4926C20.8758 26.5064 20.8547 26.5163 20.8323 26.5216C20.8099 26.5269 20.7866 26.5275 20.7639 26.5233C20.7429 26.5169 20.7235 26.5062 20.707 26.4917C20.6906 26.4772 20.6775 26.4593 20.6687 26.4394C20.6598 26.4194 20.6554 26.3977 20.6558 26.3759C20.6561 26.3541 20.6612 26.3326 20.6707 26.3129V26.3129ZM20.2471 25.1012C20.2228 25.0891 20.2034 25.069 20.1921 25.0444C20.1809 25.0197 20.1786 24.992 20.1856 24.9658C20.1925 24.9396 20.2083 24.9166 20.2303 24.9007C20.2524 24.8848 20.2792 24.8768 20.3064 24.8782C20.4335 24.8782 20.6072 25.0255 20.7724 25.097C20.5985 25.1258 20.421 25.1258 20.2471 25.097V25.1012ZM20.6707 25.9763C20.7639 26.0647 21.0392 26.031 21.0392 26.031V26.0857C20.9206 26.2456 20.586 26.1741 20.6622 25.9763H20.6707ZM21.035 25.7954C20.8401 25.8712 20.6368 25.766 20.7004 25.6398C20.7935 25.7239 21.0477 25.6818 21.0477 25.6818L21.035 25.7954ZM21.323 23.5235L20.946 24.8867L21.0731 22.6863L21.6576 22.1898L21.9541 22.8377L21.2298 24.9666L21.4289 23.5277C21.4289 23.4267 21.3654 23.4183 21.3484 23.5277L21.323 23.5235ZM21.3738 25.177C21.5535 25.1655 21.734 25.174 21.9118 25.2022C22.0007 25.2401 21.9414 25.3831 21.8271 25.3663C21.6698 25.3189 21.5179 25.2555 21.3738 25.177V25.177ZM22.0304 25.5093L22.4878 25.564C22.5203 25.8784 22.4521 26.1949 22.293 26.4686L21.8694 26.3424C21.9731 26.0728 22.0346 25.789 22.0515 25.5009L22.0304 25.5093ZM29.4259 31.551C29.4462 32.0167 29.3348 32.4788 29.1042 32.8848C28.8736 33.2908 28.5331 33.6245 28.1213 33.8482L28.4136 33.2591H28.1298L27.757 34.0164C27.3355 34.1712 26.8891 34.2482 26.4397 34.2436C24.953 34.2436 24.5591 34.3025 24.0084 34.8495C23.4578 34.3067 23.0639 34.2436 21.5771 34.2436C21.1247 34.2476 20.6753 34.1692 20.2514 34.0122V34.0122L20.6284 33.2549H20.353L20.0226 33.9197C19.9422 33.8818 19.8702 33.8439 19.7939 33.8019L20.065 33.2591H19.7854L19.5864 33.6799C19.2598 33.4359 18.9973 33.1173 18.821 32.7511C18.6448 32.3849 18.5601 31.9819 18.574 31.5762V28.2356H29.4047L29.4259 31.551ZM29.7266 21.5208C29.5429 21.9574 29.441 22.4237 29.4259 22.8966V27.9453H28.8329C28.6015 27.6048 28.4336 27.2258 28.3373 26.8262C28.2869 27.0148 28.2767 27.2117 28.3073 27.4044C28.3379 27.5972 28.4088 27.7814 28.5152 27.9453H27.7528C27.5834 27.5802 27.4652 27.1938 27.4012 26.7968C27.1725 27.0534 27.3165 27.7518 27.4605 27.9453H26.9565C26.9433 27.6936 26.9675 27.4412 27.0285 27.1965C26.7617 27.146 26.4821 27.0113 26.4821 26.7168C26.5288 26.7667 26.5876 26.8037 26.6529 26.8243C26.7182 26.845 26.7878 26.8485 26.8548 26.8346L27.0709 26.6663C26.3593 26.6874 26.3254 25.9132 26.8887 25.5472C26.3211 25.5472 25.9018 25.2317 26.1051 24.6342C26.0101 24.5737 25.9283 24.495 25.8644 24.4027C25.8004 24.3104 25.7557 24.2063 25.7328 24.0965C25.7099 23.9868 25.7093 23.8736 25.7311 23.7637C25.7528 23.6537 25.7965 23.5492 25.8594 23.4562C25.7541 23.3145 25.6881 23.1478 25.6681 22.9728C25.648 22.7978 25.6746 22.6207 25.7451 22.4591C25.4536 22.4621 25.1724 22.3519 24.9615 22.1519H24.9149C25.2517 22.0171 25.5447 21.793 25.762 21.504L29.7266 21.5208ZM27.5707 19.089C26.9819 19.19 26.4779 19.9052 26.067 20.549L26.0204 20.6247H25.5968V20.7004C25.5502 21.1969 25.0758 21.87 24.0296 21.87C23.6344 21.8824 23.247 21.7591 22.9326 21.5208C22.7361 21.3667 22.5889 21.1591 22.509 20.9234C22.4852 20.851 22.4696 20.7762 22.4624 20.7004V20.6247H22.0388L21.9329 20.549C21.5094 19.9052 21.0138 19.1942 20.4293 19.089L22.0261 18.1676L23.9957 19.2237L25.9569 18.1634L27.5707 19.089ZM25.7408 17.709L24.1736 18.5295V15.2183L26.2915 14.4989L25.7408 17.709ZM23.9957 14.8565L21.6661 13.9435C21.8652 13.4807 22.7759 13.1021 23.9915 13.1021C25.2071 13.1021 26.1094 13.4976 26.3127 13.9435L23.9957 14.8565Z" fill="#222220"/>
<path fill-rule="evenodd" clip-rule="evenodd" d="M29.1585 24.7764V24.524C28.3749 24.524 28.197 23.5903 28.197 23.5903C28.1553 23.7335 28.1489 23.8845 28.1783 24.0306C28.2076 24.1767 28.2719 24.3137 28.3658 24.4299C28.4596 24.5462 28.5803 24.6384 28.7175 24.6987C28.8547 24.759 29.0045 24.7856 29.1543 24.7764" fill="#222220"/>
<path fill-rule="evenodd" clip-rule="evenodd" d="M28.1724 26.3292L28.0962 26.0895C27.4312 26.2577 27.0839 25.2104 27.0839 25.2104C27.0394 25.3621 27.036 25.5227 27.0742 25.676C27.1124 25.8293 27.1907 25.9699 27.3012 26.0835C27.4117 26.197 27.5505 26.2796 27.7035 26.3227C27.8565 26.3659 28.0183 26.3681 28.1724 26.3292" fill="#222220"/>
<path fill-rule="evenodd" clip-rule="evenodd" d="M28.6547 25.3574C27.8584 25.4836 27.5322 24.5625 27.5322 24.5625C27.508 24.6828 27.5088 24.8067 27.5348 24.9266C27.5607 25.0466 27.6112 25.1599 27.6831 25.2597C27.755 25.3594 27.8467 25.4435 27.9526 25.5066C28.0586 25.5697 28.1764 25.6105 28.2989 25.6266C28.2698 25.757 28.2793 25.893 28.3262 26.0182C28.373 26.1434 28.4553 26.2525 28.5631 26.3324C28.6708 26.4124 28.7996 26.4597 28.9338 26.4688C29.068 26.4779 29.202 26.4483 29.3197 26.3836L29.2434 26.1565C29.1376 26.1967 29.0213 26.2013 28.9125 26.1694C28.8038 26.1376 28.7086 26.0711 28.6416 25.9803C28.5747 25.8894 28.5397 25.7792 28.5421 25.6666C28.5444 25.5541 28.584 25.4454 28.6547 25.3574" fill="#222220"/>
<path fill-rule="evenodd" clip-rule="evenodd" d="M28.1594 22.7275V22.4752C27.1089 22.2607 27.1936 21.5415 27.1936 21.5415C27.1529 21.6846 27.1472 21.8352 27.177 21.9809C27.2067 22.1266 27.2711 22.2632 27.3648 22.3792C27.4584 22.4952 27.5786 22.5873 27.7153 22.6479C27.8521 22.7085 28.0014 22.7358 28.1509 22.7275" fill="#222220"/>
<path fill-rule="evenodd" clip-rule="evenodd" d="M21.4922 33.2544L21.1152 34.0156H21.399L21.776 33.2544H21.4922Z" fill="#222220"/>
<path fill-rule="evenodd" clip-rule="evenodd" d="M22.0593 33.2544L21.6865 34.0156H21.9703L22.3431 33.2544H22.0593Z" fill="#222220"/>
<path fill-rule="evenodd" clip-rule="evenodd" d="M24.3389 33.2544L23.9619 34.0156H24.2457L24.6227 33.2544H24.3389Z" fill="#222220"/>
<path fill-rule="evenodd" clip-rule="evenodd" d="M24.9102 33.2544L24.5332 34.0156H24.817L25.1897 33.2544H24.9102Z" fill="#222220"/>
<path fill-rule="evenodd" clip-rule="evenodd" d="M23.7715 33.2544L23.3945 34.0156H23.6783L24.0553 33.2544H23.7715Z" fill="#222220"/>
<path fill-rule="evenodd" clip-rule="evenodd" d="M27.0967 34.0156H27.3805L27.7574 33.2544H27.4737L27.0967 34.0156Z" fill="#222220"/>
<path fill-rule="evenodd" clip-rule="evenodd" d="M22.6319 33.2544L22.2549 34.0156H22.5387L22.9156 33.2544H22.6319Z" fill="#222220"/>
<path fill-rule="evenodd" clip-rule="evenodd" d="M23.1992 33.2544L22.8223 34.0156H23.1103L23.483 33.2544H23.1992Z" fill="#222220"/>
<path fill-rule="evenodd" clip-rule="evenodd" d="M21.9126 29.178C21.8895 29.1746 21.866 29.1782 21.8451 29.1884C21.8242 29.1987 21.8069 29.215 21.7956 29.2352C21.7843 29.2554 21.7795 29.2786 21.7818 29.3016C21.7841 29.3246 21.7935 29.3463 21.8086 29.364C21.8237 29.3816 21.8438 29.3942 21.8663 29.4001C21.8888 29.406 21.9126 29.405 21.9345 29.3971C21.9564 29.3892 21.9754 29.3749 21.9889 29.356C22.0024 29.3372 22.0097 29.3147 22.01 29.2916C22.0112 29.2639 22.0019 29.2368 21.9838 29.2157C21.9657 29.1947 21.9403 29.1812 21.9126 29.178" fill="#222220"/>
<path fill-rule="evenodd" clip-rule="evenodd" d="M23.9959 12.0626C24.9325 12.036 25.8521 12.3154 26.6136 12.8577C26.7329 12.2456 26.9625 11.6598 27.2913 11.1286L26.351 11.2337L25.8596 10.1945L24.9151 10.6826L23.9959 9.78223L23.081 10.6868L22.128 10.1945L21.6366 11.2337L20.6963 11.1286C21.0259 11.6594 21.2556 12.2453 21.374 12.8577C22.1368 12.3148 23.0579 12.0354 23.9959 12.0626V12.0626ZM21.8018 11.6418L22.2423 10.7036L23.0895 11.1243L23.9959 10.245L24.9151 11.1454L25.7622 10.7247L26.1858 11.6671L26.7364 11.5829C26.5917 11.842 26.4753 12.1156 26.3891 12.3992C25.6563 11.9927 24.831 11.7794 23.9917 11.7794C23.1524 11.7794 22.3271 11.9927 21.5943 12.3992C21.5075 12.1158 21.3911 11.8422 21.2469 11.5829L21.8018 11.6418Z" fill="#222220"/>
<path fill-rule="evenodd" clip-rule="evenodd" d="M24.9527 10.2031C25.0184 10.2089 25.0837 10.1888 25.1345 10.1471C25.1852 10.1053 25.2173 10.0453 25.2238 9.98017C25.191 9.80529 25.1279 9.63738 25.0374 9.48389C25.0374 9.48389 24.7367 9.80353 24.7282 9.93811C24.7235 10.0026 24.7443 10.0664 24.7862 10.1159C24.8281 10.1654 24.8879 10.1967 24.9527 10.2031" fill="#222220"/>
<path fill-rule="evenodd" clip-rule="evenodd" d="M26.4906 10.7576C26.5195 10.7729 26.5511 10.7823 26.5837 10.7852C26.6162 10.7882 26.649 10.7847 26.6802 10.7749C26.7114 10.7651 26.7402 10.7492 26.7652 10.7282C26.7901 10.7072 26.8105 10.6814 26.8253 10.6525C26.8638 10.4785 26.8709 10.2991 26.8464 10.1226C26.8464 10.1226 26.4483 10.2992 26.3847 10.4212C26.3549 10.4793 26.3493 10.5467 26.3691 10.6089C26.3889 10.671 26.4326 10.723 26.4906 10.7534" fill="#222220"/>
<path fill-rule="evenodd" clip-rule="evenodd" d="M23.0295 10.2031C23.0951 10.1977 23.1559 10.1669 23.1987 10.1173C23.2416 10.0677 23.263 10.0033 23.2583 9.93811C23.2583 9.80353 22.9491 9.48389 22.9491 9.48389C22.8588 9.63752 22.7958 9.80538 22.7627 9.98017C22.7691 10.0445 22.8007 10.1038 22.8505 10.1455C22.9003 10.1871 22.9646 10.2078 23.0295 10.2031" fill="#222220"/>
<path fill-rule="evenodd" clip-rule="evenodd" d="M21.488 10.7578C21.5454 10.7267 21.5881 10.6744 21.6071 10.6123C21.6261 10.5502 21.6199 10.4831 21.5897 10.4256C21.5262 10.3036 21.128 10.127 21.128 10.127C21.1047 10.3037 21.1133 10.4831 21.1534 10.6569C21.1682 10.6858 21.1886 10.7116 21.2135 10.7326C21.2384 10.7536 21.2673 10.7695 21.2985 10.7793C21.3296 10.7891 21.3625 10.7926 21.395 10.7896C21.4276 10.7867 21.4592 10.7773 21.488 10.762" fill="#222220"/>
<path fill-rule="evenodd" clip-rule="evenodd" d="M39.9682 19.1687C40.2894 19.0319 40.5436 18.775 40.6756 18.4535C39.8284 18.3357 37.6216 17.4101 35.796 18.1632C36.478 17.5195 37.0922 17.4353 37.1515 16.5097C37.2253 16.5776 37.3138 16.6278 37.4102 16.6566C37.5065 16.6853 37.6082 16.6918 37.7075 16.6756C37.8068 16.6594 37.901 16.6208 37.9831 16.5629C38.0651 16.505 38.1327 16.4292 38.1807 16.3414C37.9944 15.7903 37.52 16.2363 37.4522 16.0848C37.3844 15.9333 38.0494 16.1479 38.1977 15.4327C37.6597 15.2475 37.4988 15.6851 37.4014 15.5841C37.3039 15.4832 37.7445 15.3022 37.4268 14.7427C36.8677 15.0666 37.1599 15.4369 37.0413 15.4747C36.9227 15.5126 37.0117 15.0835 36.3933 15.1045C36.334 15.765 36.9736 15.7861 36.8677 15.8913C36.7618 15.9964 36.5712 15.5126 36.1052 15.7693C36.0974 15.8805 36.117 15.992 36.1624 16.094C36.2077 16.196 36.2775 16.2855 36.3655 16.3547C36.4535 16.424 36.5572 16.4708 36.6676 16.4912C36.778 16.5116 36.8918 16.505 36.999 16.4719C36.927 17.4858 35.9909 17.3133 35.3047 18.4409C36.7829 19.194 37.448 20.5066 38.3586 21.4112C38.6809 21.0652 38.9544 20.6774 39.1719 20.2584C39.2829 20.3693 39.4149 20.4574 39.5603 20.5174C39.7057 20.5775 39.8616 20.6084 40.019 20.6084C40.1765 20.6084 40.3324 20.5775 40.4778 20.5174C40.6232 20.4574 40.7552 20.3693 40.8662 20.2584C40.5273 19.9134 40.5146 19.6526 39.9978 19.1814L39.9682 19.1687ZM38.5662 19.3665C38.676 19.626 38.7173 19.909 38.6861 20.1888C38.655 20.4686 38.5525 20.7358 38.3883 20.9652C37.9501 20.0208 37.2959 19.191 36.478 18.5418C36.3467 18.4577 36.55 18.3062 36.927 18.2558C38.0621 18.0412 39.3921 18.5208 40.0275 18.6765C39.7848 18.8721 39.4909 18.9947 39.1804 19.0299C39.5759 19.3337 39.9242 19.6938 40.2139 20.0985C39.7691 20.2079 39.515 19.926 38.5535 19.3538" fill="#222220"/>
<path fill-rule="evenodd" clip-rule="evenodd" d="M29.0526 36.2675V35.0264C27.8541 35.5533 26.5731 35.8707 25.2659 35.9646L25.1939 36.4064C25.3294 36.4064 25.4988 36.44 25.7233 36.4568C24.5596 36.6141 23.3799 36.6141 22.2162 36.4568C22.4407 36.4568 22.6101 36.4274 22.7456 36.4064L22.6736 35.9646C21.375 35.8683 20.1027 35.5509 18.9123 35.0264V36.2633L17.6416 36.7976C18.7199 37.3371 19.8568 37.7521 21.0302 38.0346L20.8777 38.5521C22.9381 39.1315 25.12 39.1315 27.1804 38.5521L27.0279 38.0346C28.2012 37.7517 29.338 37.3367 30.4165 36.7976L29.0526 36.2675ZM18.3193 36.8271L19.2003 36.4737V35.4639C19.973 35.7459 20.7678 35.964 21.5766 36.1161L21.0768 37.7316C20.129 37.5185 19.2052 37.2113 18.3193 36.8145V36.8271ZM23.9952 38.6909C23.0527 38.6848 22.1143 38.5676 21.1996 38.3417L21.7291 36.6588C23.2307 36.9093 24.7639 36.9093 26.2655 36.6588L26.795 38.3417C25.8788 38.5674 24.939 38.6846 23.9952 38.6909V38.6909ZM26.9051 37.7443L26.401 36.1161C27.2101 35.9613 28.0049 35.7404 28.7773 35.4555V36.4653L29.6583 36.8187C28.7728 37.2163 27.8489 37.5236 26.9009 37.7359" fill="#222220"/>
<path fill-rule="evenodd" clip-rule="evenodd" d="M8.81959 20.2416C9.03776 20.6589 9.31128 21.0452 9.63284 21.3902C10.5435 20.4856 11.2128 19.173 12.6868 18.4199C11.9879 17.2797 11.0518 17.469 10.9925 16.4509C11.0995 16.4831 11.2127 16.4891 11.3225 16.4683C11.4323 16.4475 11.5354 16.4006 11.6229 16.3314C11.7104 16.2623 11.7797 16.1732 11.8248 16.0716C11.8699 15.97 11.8896 15.859 11.882 15.7483C11.4118 15.4916 11.2466 16.0007 11.1196 15.8703C10.9925 15.7398 11.6575 15.744 11.594 15.0835C10.9756 15.0835 11.0899 15.5042 10.9417 15.4537C10.7934 15.4033 11.1153 15.033 10.5562 14.7217C10.2385 15.3023 10.6706 15.4832 10.5816 15.5631C10.4927 15.6431 10.3233 15.2266 9.78533 15.4117C9.92934 16.1269 10.6325 15.8324 10.5308 16.0638C10.4292 16.2952 9.98864 15.7693 9.80227 16.3204C9.84972 16.4089 9.91706 16.4853 9.99905 16.5437C10.081 16.6021 10.1755 16.641 10.275 16.6572C10.3746 16.6735 10.4766 16.6668 10.5731 16.6376C10.6696 16.6083 10.7581 16.5574 10.8315 16.4887C10.8908 17.4185 11.505 17.4943 12.187 18.1422C10.3614 17.3891 8.14611 18.3147 7.30744 18.4325C7.44137 18.7532 7.69699 19.0086 8.01904 19.1435C7.47687 19.64 7.47687 19.9008 7.14648 20.2458C7.14648 20.2458 7.8369 20.9989 8.84077 20.2458L8.81959 20.2416ZM7.80725 20.1028C8.09753 19.6971 8.44733 19.3369 8.845 19.0341C8.53434 18.9966 8.24067 18.8726 7.99786 18.6765C8.63322 18.5082 9.96746 18.0328 11.1026 18.2558C11.4754 18.3063 11.6872 18.4577 11.5516 18.5419C10.7273 19.1906 10.0673 20.022 9.62437 20.9695C9.46272 20.7389 9.36175 20.4718 9.33067 20.1926C9.2996 19.9133 9.33941 19.6308 9.44647 19.3707C8.4892 19.9471 8.23506 20.2122 7.78608 20.1154" fill="#222220"/>
<path fill-rule="evenodd" clip-rule="evenodd" d="M23.1914 19.5516V20.0983C23.2648 20.0295 23.3526 19.9776 23.4485 19.9464C23.5444 19.9151 23.6461 19.9052 23.7463 19.9175V20.704C23.7428 20.8987 23.6904 21.0896 23.5938 21.2591H24.3859C24.2894 21.0895 24.237 20.8987 24.2334 20.704V19.9133C24.3336 19.9007 24.4354 19.9105 24.5313 19.9417C24.6273 19.973 24.715 20.0251 24.7883 20.0941V19.5474H23.1914V19.5516Z" fill="#222220"/>
</svg>
