<svg width="48" height="48" viewBox="0 0 48 48" fill="none" xmlns="http://www.w3.org/2000/svg">
<rect width="48" height="48" fill="#9246FF"/>
<path d="M14 27.0976L16.7381 15.8293V15.2927L17.8333 11H37V23.878L34.8095 27.0976L30.4286 29.2439L24.9524 31.9268L21.119 33L17.8333 31.9268L14 27.0976Z" fill="white" stroke="black"/>
<path d="M16.6248 9L11 14.714V35.286H17.751V41L23.3758 35.286H27.8725L38 25V9H16.6248ZM35.7497 23.858L31.251 28.428H26.7503L22.8127 32.428V28.428H17.751V11.286H35.7497V23.858V23.858Z" fill="black"/>
<path d="M33 16H30.5999V22H33V16ZM26.4001 16H24V22H26.4001V16V16Z" fill="black"/>
</svg>
