<svg width="48" height="48" viewBox="0 0 48 48" fill="none" xmlns="http://www.w3.org/2000/svg">
<rect width="48" height="48" fill="#50ABF1"/>
<path d="M39.6247 16.2428C38.5809 16.7053 37.4597 17.0178 36.2809 17.159C37.4972 16.4312 38.4071 15.2858 38.8409 13.9365C37.6982 14.6152 36.4476 15.093 35.1434 15.349C34.2664 14.4126 33.1048 13.7919 31.8388 13.5833C30.5729 13.3748 29.2736 13.59 28.1425 14.1956C27.0114 14.8011 26.1119 15.7632 25.5836 16.9324C25.0554 18.1016 24.9279 19.4124 25.2209 20.6615C22.9055 20.5453 20.6405 19.9434 18.5727 18.8951C16.505 17.8468 14.6807 16.3755 13.2184 14.5765C12.7184 15.439 12.4309 16.439 12.4309 17.504C12.4304 18.4628 12.6665 19.4068 13.1183 20.2524C13.5701 21.098 14.2236 21.8191 15.0209 22.3515C14.0963 22.3221 13.192 22.0722 12.3834 21.6228V21.6978C12.3833 23.0424 12.8485 24.3457 13.6999 25.3865C14.5514 26.4273 15.7367 27.1414 17.0547 27.4078C16.1969 27.6399 15.2976 27.6741 14.4247 27.5078C14.7966 28.6648 15.5209 29.6765 16.4964 30.4014C17.4719 31.1263 18.6496 31.528 19.8647 31.5503C17.802 33.1695 15.2545 34.0479 12.6322 34.044C12.1677 34.0441 11.7035 34.017 11.2422 33.9628C13.904 35.6742 17.0026 36.5825 20.1672 36.579C30.8797 36.579 36.7359 27.7065 36.7359 20.0115C36.7359 19.7615 36.7297 19.509 36.7184 19.259C37.8576 18.4352 38.8408 17.4151 39.6222 16.2465L39.6247 16.2428V16.2428Z" fill="white"/>
</svg>
