<svg width="48" height="48" viewBox="0 0 48 48" fill="none" xmlns="http://www.w3.org/2000/svg">
<rect width="48" height="48" fill="#8B3FFD"/>
<path d="M28.5173 12.522C22.3051 12.522 17.3838 17.4444 17.3838 23.4785C17.3838 29.5125 22.3858 34.435 28.5173 34.435C34.6488 34.435 39.6508 29.5125 39.6508 23.4785C39.7315 17.4444 34.6488 12.522 28.5173 12.522ZM28.5173 27.5276C26.2583 27.5276 24.3221 25.7015 24.3221 23.4785C24.3221 21.2554 26.1776 19.4293 28.5173 19.4293C30.8569 19.4293 32.7126 21.2554 32.7126 23.4785C32.6319 25.7015 30.8569 27.5276 28.5173 27.5276Z" fill="white"/>
<path d="M17.3836 15.7773V31.7357H13.4303L8.34766 15.7773H17.3836Z" fill="white"/>
</svg>
