<svg width="48" height="48" viewBox="0 0 48 48" fill="none" xmlns="http://www.w3.org/2000/svg">
<rect width="48" height="48" fill="#7D3DAF"/>
<path d="M23.1978 9.00514C20.6298 9.03614 15.1088 9.45814 12.0208 12.2911C9.72381 14.5671 8.92181 17.9321 8.82781 22.0931C8.74981 26.2391 8.65581 34.0251 16.1608 36.1451V39.3741C16.1608 39.3741 16.1138 40.6661 16.9678 40.9311C18.0198 41.2641 18.6188 40.2701 19.6188 39.2021L21.4838 37.0931C26.6188 37.5201 30.5518 36.5361 31.0048 36.3901C32.0468 36.0571 37.9158 35.3071 38.8748 27.5201C39.8588 19.4781 38.3958 14.4111 35.7548 12.1191H35.7388C34.9418 11.3851 31.7388 9.05114 24.5828 9.02514C24.5828 9.02514 24.0518 8.98914 23.1978 9.00414V9.00514ZM23.2858 11.2661C24.0148 11.2611 24.4578 11.2921 24.4578 11.2921C30.5148 11.3081 33.4058 13.1311 34.0878 13.7451C36.3118 15.6511 37.4578 20.2191 36.6188 26.9331C35.8218 33.4431 31.0618 33.8551 30.1808 34.1361C29.8058 34.2561 26.3418 35.1101 21.9778 34.8291C21.9778 34.8291 18.7278 38.7511 17.7118 39.7611C17.5508 39.9381 17.3628 39.9901 17.2428 39.9641C17.0708 39.9221 17.0188 39.7091 17.0288 39.4171L17.0598 34.0581C10.6948 32.2981 11.0698 25.6571 11.1378 22.1881C11.2158 18.7191 11.8668 15.8811 13.8048 13.9591C16.4138 11.6001 21.1018 11.2821 23.2838 11.2661H23.2858ZM23.7658 14.7341C23.7134 14.7336 23.6615 14.7435 23.6129 14.7631C23.5643 14.7828 23.5201 14.8118 23.4829 14.8486C23.4456 14.8855 23.416 14.9293 23.3957 14.9776C23.3754 15.0259 23.3649 15.0778 23.3648 15.1301C23.3648 15.3541 23.5468 15.5311 23.7658 15.5311C24.7573 15.5123 25.7427 15.6899 26.6653 16.0538C27.5878 16.4176 28.4291 16.9605 29.1408 17.6511C30.5938 19.0621 31.3018 20.9581 31.3288 23.4371C31.3288 23.6561 31.5058 23.8381 31.7298 23.8381V23.8221C31.8354 23.8224 31.9368 23.7809 32.0119 23.7068C32.087 23.6326 32.1298 23.5317 32.1308 23.4261C32.1794 22.2593 31.9901 21.0948 31.5746 20.0033C31.1591 18.9119 30.526 17.9163 29.7138 17.0771C28.1308 15.5301 26.1248 14.7331 23.7658 14.7331V14.7341ZM18.4948 15.6511C18.2118 15.6098 17.9231 15.6666 17.6768 15.8121H17.6558C17.0841 16.1473 16.569 16.5709 16.1298 17.0671C15.7648 17.4891 15.5668 17.9161 15.5148 18.3271C15.4838 18.5721 15.5048 18.8171 15.5778 19.0511L15.6038 19.0671C16.0148 20.2751 16.5518 21.4371 17.2078 22.5311C18.0528 24.0681 19.0928 25.4895 20.3018 26.7601L20.3378 26.8121L20.3948 26.8541L20.4308 26.8961L20.4728 26.9321C21.748 28.1447 23.1729 29.1895 24.7128 30.0411C26.4728 30.9991 27.5408 31.4521 28.1818 31.6401V31.6501C28.3698 31.7071 28.5408 31.7331 28.7128 31.7331C29.2591 31.6931 29.7763 31.4713 30.1818 31.1031C30.6758 30.6638 31.0947 30.1467 31.4218 29.5721V29.5621C31.7288 28.9841 31.6248 28.4371 31.1818 28.0671C30.2946 27.2916 29.3353 26.6028 28.3168 26.0101C27.6348 25.6401 26.9418 25.8641 26.6608 26.2391L26.0618 26.9941C25.7548 27.3691 25.1968 27.3171 25.1968 27.3171L25.1808 27.3271C21.0198 26.2641 19.9098 22.0511 19.9098 22.0511C19.9098 22.0511 19.8578 21.4781 20.2428 21.1861L20.9928 20.5821C21.3518 20.2901 21.6018 19.5981 21.2168 18.9151C20.6282 17.8953 19.9409 16.9357 19.1648 16.0501C18.9951 15.8414 18.7571 15.6993 18.4928 15.6491L18.4948 15.6511ZM24.4578 16.8391C23.9268 16.8391 23.9268 17.6411 24.4628 17.6411C25.1231 17.6519 25.7748 17.7926 26.3807 18.0553C26.9865 18.318 27.5347 18.6975 27.9938 19.1721C28.4126 19.6342 28.7345 20.1755 28.9403 20.7642C29.146 21.3528 29.2316 21.9768 29.1918 22.5991C29.1936 22.7045 29.2366 22.8049 29.3116 22.8789C29.3865 22.9529 29.4875 22.9946 29.5928 22.9951L29.6088 23.0161C29.7149 23.0154 29.8165 22.9729 29.8915 22.8978C29.9665 22.8228 30.009 22.7213 30.0098 22.6151C30.0458 21.0261 29.5518 19.6931 28.5828 18.6251C27.6088 17.5571 26.2498 16.9581 24.5148 16.8391H24.4578V16.8391ZM25.1148 18.9951C24.5678 18.9791 24.5468 19.7971 25.0888 19.8131C26.4068 19.8811 27.0468 20.5471 27.1308 21.9171C27.1326 22.0211 27.1751 22.1203 27.2491 22.1934C27.3231 22.2664 27.4228 22.3076 27.5268 22.3081H27.5428C27.5963 22.3059 27.6488 22.2929 27.6972 22.2701C27.7456 22.2473 27.789 22.2151 27.8249 22.1754C27.8607 22.1356 27.8883 22.0891 27.9059 22.0386C27.9236 21.9881 27.931 21.9346 27.9278 21.8811C27.8338 20.0951 26.8598 19.0891 25.1308 18.9961H25.1148V18.9951Z" fill="white"/>
</svg>
