<svg width="48" height="48" viewBox="0 0 48 48" fill="none" xmlns="http://www.w3.org/2000/svg">
<rect width="48" height="48" fill="#5181B8"/>
<path fill-rule="evenodd" clip-rule="evenodd" d="M39.2658 15.3542C39.4884 14.5737 39.2658 14 38.2071 14H34.7062C33.816 14 33.4059 14.4955 33.1834 15.0421C33.1834 15.0421 31.403 19.6087 28.8809 22.575C28.0649 23.4337 27.6941 23.7068 27.249 23.7068C27.0264 23.7068 26.7044 23.4337 26.7044 22.6532V15.3542C26.7044 14.4174 26.4461 14 25.7041 14H20.2028C19.6467 14 19.3121 14.4347 19.3121 14.8468C19.3121 15.735 20.5729 15.9397 20.703 18.4376V23.8632C20.703 25.0526 20.4989 25.2684 20.0538 25.2684C18.867 25.2684 15.9804 20.6811 14.268 15.4324C13.9324 14.4121 13.5958 14 12.7011 14H9.20028C8.20005 14 8 14.4955 8 15.0421C8 16.0179 9.18703 20.8579 13.5263 27.2589C16.4192 31.6303 20.4949 34 24.2038 34C26.4293 34 26.7044 33.4737 26.7044 32.5671V29.2632C26.7044 28.2105 26.9152 28.0005 27.6198 28.0005C28.1392 28.0005 29.0292 28.2737 31.1064 30.3813C33.4799 32.8795 33.871 34 35.2064 34H38.7072C39.7074 34 40.2075 33.4737 39.919 32.435C39.6034 31.3997 38.4701 29.8982 36.9663 28.1176C36.1503 27.1026 34.9263 26.0097 34.5557 25.4634C34.0363 24.7608 34.1846 24.4484 34.5557 23.8239C34.5557 23.8239 38.8207 17.5011 39.2658 15.3542V15.3542Z" fill="white"/>
</svg>
