<svg width="48" height="48" viewBox="0 0 48 48" fill="none" xmlns="http://www.w3.org/2000/svg">
<rect width="48" height="48" fill="url(#paint0_linear_247_3173)"/>
<path d="M35.3377 12.6503C32.3296 9.65312 28.3291 8.00168 24.0668 8C15.2847 8 8.13711 15.1129 8.1336 23.8558C8.13247 26.6504 8.86614 29.3784 10.2604 31.783L8 40L16.4464 37.795C18.7736 39.0582 21.3937 39.7239 24.0604 39.7251H24.067C32.8482 39.7251 39.9964 32.6113 40 23.8684C40.0017 19.6315 38.346 15.6475 35.3377 12.6503V12.6503ZM24.067 37.047H24.0616C21.6853 37.0461 19.3546 36.4108 17.3213 35.21L16.8377 34.9243L11.8255 36.2329L13.1633 31.3694L12.8484 30.8708C11.5227 28.7724 10.8226 26.347 10.8236 23.8568C10.8265 16.5901 16.7673 10.6781 24.0721 10.6781C27.6093 10.6794 30.9343 12.0522 33.4346 14.5433C35.9349 17.0344 37.3111 20.3458 37.3098 23.8674C37.3069 31.1347 31.3662 37.047 24.067 37.047V37.047ZM31.331 27.1762C30.9328 26.9779 28.9756 26.0194 28.6106 25.8872C28.2457 25.7549 27.9804 25.6888 27.7149 26.0855C27.4495 26.4821 26.6866 27.3746 26.4543 27.639C26.2221 27.9034 25.9898 27.9365 25.5917 27.7382C25.1936 27.5399 23.9108 27.1215 22.3902 25.7717C21.2068 24.7212 20.4077 23.4236 20.1755 23.0269C19.9433 22.6303 20.1508 22.4159 20.3501 22.2183C20.5292 22.0408 20.7482 21.7556 20.9473 21.5242C21.1463 21.2929 21.2127 21.1275 21.3454 20.8631C21.4781 20.5987 21.4117 20.3673 21.3122 20.169C21.2127 19.9707 20.4164 18.0205 20.0847 17.2272C19.7616 16.4546 19.4333 16.5592 19.1889 16.547C18.9569 16.5355 18.6913 16.5331 18.4259 16.5331C18.1605 16.5331 17.7292 16.6323 17.3643 17.0289C16.9994 17.4256 15.9709 18.3841 15.9709 20.3343C15.9709 22.2844 17.3974 24.1684 17.5965 24.4328C17.7956 24.6973 20.4038 28.6993 24.3974 30.4155C25.3473 30.8237 26.0888 31.0674 26.667 31.2501C27.6207 31.5515 28.4886 31.509 29.1746 31.407C29.9395 31.2933 31.53 30.4486 31.8618 29.5231C32.1936 28.5975 32.1936 27.8043 32.094 27.639C31.9945 27.4738 31.7291 27.3746 31.331 27.1762V27.1762Z" fill="white"/>
<defs>
<linearGradient id="paint0_linear_247_3173" x1="24" y1="0" x2="24" y2="48" gradientUnits="userSpaceOnUse">
<stop stop-color="#61FD7D"/>
<stop offset="1" stop-color="#2BB826"/>
</linearGradient>
</defs>
</svg>
