<svg width="48" height="48" viewBox="0 0 48 48" fill="none" xmlns="http://www.w3.org/2000/svg">
<rect width="48" height="48" fill="white"/>
<path d="M15.4096 12.3774C17.5591 10.7846 20.0997 9.82177 22.7475 9.58252V13.964C21.0359 14.1859 19.4013 14.8412 18.003 15.8773C16.2522 17.1746 14.9647 19.0002 14.3304 21.0849C13.6961 23.1696 13.7485 25.403 14.48 27.4556C15.2115 29.5082 16.5833 31.2716 18.393 32.4852C20.2028 33.6989 22.3547 34.2988 24.5314 34.1967C26.708 34.0943 28.7942 33.2952 30.4822 31.9172C32.1701 30.539 33.3705 28.6549 33.9063 26.5428C34.2801 25.0695 34.3166 23.5396 34.0239 22.0648L37.7032 19.1069L37.7007 19.083C38.6939 21.8151 38.8456 24.7873 38.1287 27.6139C37.3632 30.6313 35.6484 33.3228 33.237 35.2915C30.8256 37.2601 27.8454 38.4017 24.7358 38.5477C21.6263 38.6938 18.5521 37.8368 15.9668 36.1029C13.3814 34.3691 11.4217 31.8502 10.3767 28.9179C9.33175 25.9856 9.25683 22.795 10.163 19.8169C11.0692 16.8387 12.9085 14.2307 15.4096 12.3774Z" fill="#FCCA00"/>
<path d="M34.9287 14.4226L34.9441 14.4612L32.4854 18.3663C31.5912 17.0413 30.3931 15.9384 28.9908 15.1578V24.0445C28.9908 26.771 26.7806 28.9813 24.054 28.9813C21.3275 28.9813 19.1172 26.771 19.1172 24.0445C19.1172 21.3179 21.3275 19.1076 24.054 19.1076C25.0759 19.1076 26.0252 19.4181 26.8128 19.9498V9.78613C30.018 10.4026 32.8482 12.073 34.9287 14.4226Z" fill="#FC3F1D"/>
</svg>
