<svg width="48" height="48" viewBox="0 0 48 48" fill="none" xmlns="http://www.w3.org/2000/svg">
<rect width="48" height="48" fill="white"/>
<path d="M38.3718 17.138C38.202 16.5324 37.8711 15.9841 37.4144 15.5515C36.9449 15.1055 36.3693 14.7865 35.7422 14.6246C33.395 14.0062 23.9913 14.0062 23.9913 14.0062C20.0709 13.9616 16.1516 14.1577 12.2553 14.5933C11.6282 14.7672 11.0537 15.0934 10.5831 15.5427C10.1206 15.9875 9.78567 16.5359 9.61069 17.1368C9.19036 19.4 8.98614 21.6981 9.00077 24C8.98577 26.2998 9.1895 28.5971 9.61069 30.8632C9.78192 31.4616 10.1156 32.0075 10.5793 32.4485C11.043 32.8895 11.6204 33.208 12.2553 33.3767C14.6338 33.9938 23.9913 33.9938 23.9913 33.9938C27.9166 34.0384 31.8409 33.8424 35.7422 33.4067C36.3693 33.2447 36.9449 32.9257 37.4144 32.4797C37.8769 32.0388 38.2056 31.4903 38.3706 30.8932C38.8019 28.6308 39.0116 26.3318 38.9967 24.0287C39.0292 21.7159 38.8197 19.406 38.3718 17.1368V17.138ZM21.0017 28.2773V19.7239L28.8256 24.0012L21.0017 28.2773Z" fill="#FF0000"/>
</svg>
